<svg width="149" height="60" viewBox="0 0 149 60" fill="none" xmlns="http://www.w3.org/2000/svg">
<g clip-path="url(#clip0_195_3128)">
<path d="M0 0V14.1171H50.987V0H0ZM47.7995 11.0486H3.18752V3.07286H47.7995V11.0486ZM3.18752 37.4529H0V23.3357H3.18752V28.9157H8.88238V23.3357H12.0699V37.4529H8.88238V31.6029H3.18752V37.4529ZM19.3074 37.68C16.0754 37.68 13.8704 35.7129 13.8704 32.4857C13.8704 29.2586 16.0265 27.1757 18.8851 27.1757C22.0015 27.1757 23.5485 29.1857 23.5485 32.19V33.3214H16.8934C17.2669 34.8814 18.5339 35.2843 19.8009 35.2843C20.9034 35.2843 21.6992 35.0571 22.6816 34.47H22.7972V36.7971C21.9526 37.3843 20.7567 37.68 19.3074 37.68ZM16.8934 31.2643H20.69C20.6189 30.2271 20.1743 29.5029 18.934 29.5029C17.9959 29.5029 17.1779 29.8886 16.8934 31.2643ZM31.8663 31.5343L30.2259 37.4529H27.4385L24.251 27.5143V27.4029H27.2962L29.03 33.3429L30.6705 27.4029H33.1556L34.8182 33.3429L36.5743 27.4029H39.5039V27.5143L36.3164 37.4529H33.529L31.8663 31.5343ZM44.6875 37.68C42.158 37.68 41.1266 36.7071 41.1266 34.4271V23.3357H44.2208V34.2257C44.2208 34.9243 44.5008 35.1729 45.1099 35.1729C45.3233 35.1729 45.6256 35.1043 45.8123 35.0357H45.8612V37.5C45.6034 37.59 45.1588 37.68 44.692 37.68H44.6875ZM52.1607 37.68C48.9287 37.68 46.7237 35.7129 46.7237 32.4857C46.7237 29.2586 48.8798 27.1757 51.7383 27.1757C54.8547 27.1757 56.4018 29.1857 56.4018 32.19V33.3214H49.7467C50.1201 34.8814 51.3871 35.2843 52.6541 35.2843C53.7567 35.2843 54.5524 35.0571 55.5349 34.47H55.6505V36.7971C54.8058 37.3843 53.6099 37.68 52.1607 37.68ZM49.7467 31.2643H53.5433C53.4721 30.2271 53.0276 29.5029 51.7872 29.5029C50.8492 29.5029 50.0312 29.8886 49.7467 31.2643ZM69.103 27.4029H71.4014V29.7986H69.103V33.8871C69.103 34.7657 69.4542 35.1729 70.3922 35.1729C70.6501 35.1729 70.979 35.1514 71.3303 35.0357H71.4014V37.3843C71.0013 37.5214 70.3922 37.68 69.5031 37.68C66.9958 37.68 66.0133 36.5743 66.0133 34.02V29.7943H62.0522V33.8829C62.0522 34.7614 62.4034 35.1686 63.3414 35.1686C63.5993 35.1686 63.9283 35.1471 64.2795 35.0314H64.3506V37.38C63.9505 37.5171 63.3414 37.6757 62.4523 37.6757C59.945 37.6757 58.9625 36.57 58.9625 34.0157V29.79H57.371V27.3943H58.9625V24.6386H62.0567V27.3943H66.0177V24.6386H69.1119V27.3943L69.103 27.4029ZM87.4457 28.1229C87.4457 31.1957 85.3118 32.8671 82.0798 32.8671H79.8081V37.4529H76.6206V23.3357H82.0798C85.3162 23.3357 87.4457 25.0071 87.4457 28.1229ZM81.822 30.27C83.4402 30.27 84.2137 29.3871 84.2137 28.1229C84.2137 26.8586 83.4402 25.9329 81.822 25.9329H79.8081V30.27H81.822ZM94.332 36.4586C93.6518 37.2471 92.6471 37.6329 91.5668 37.6329C89.5307 37.6329 87.8636 36.4371 87.8636 34.3114C87.8636 32.3443 89.5263 31.0371 91.918 31.0371C92.6693 31.0371 93.4429 31.1486 94.2386 31.3757V31.1957C94.2386 30.1114 93.6073 29.6357 91.9402 29.6357C90.8866 29.6357 89.8775 29.9271 89.0106 30.4029H88.895V28.0071C89.6907 27.5571 91.0956 27.1714 92.4782 27.1714C95.6168 27.1714 97.3283 28.6157 97.3283 31.1486V37.4529H94.3275V36.4586H94.332ZM94.2386 34.29V33.4329C93.7718 33.1843 93.1628 33.0943 92.5271 33.0943C91.5179 33.0943 90.9089 33.4543 90.9089 34.2686C90.9089 35.0829 91.5179 35.4643 92.4293 35.4643C93.2962 35.4643 93.9541 35.0357 94.2342 34.29H94.2386ZM98.9021 32.4386C98.9021 29.2071 101.267 27.1757 104.361 27.1757C105.464 27.1757 106.495 27.4029 107.269 27.9429V30.4971H107.153C106.473 30 105.677 29.7043 104.761 29.7043C103.214 29.7043 102.045 30.72 102.045 32.4386C102.045 34.1571 103.219 35.1514 104.761 35.1514C105.673 35.1514 106.473 34.8557 107.153 34.3586H107.269V36.9129C106.495 37.4571 105.464 37.68 104.361 37.68C101.267 37.68 98.9021 35.67 98.9021 32.4386ZM112.306 32.8929V37.4571H109.212V23.34H112.306V31.38L115.422 27.4029H118.939V27.5143L115.191 32.0786L118.939 37.3414V37.4529H115.4L112.306 32.8886V32.8929ZM125.967 36.4586C125.287 37.2471 124.278 37.6329 123.202 37.6329C121.161 37.6329 119.499 36.4371 119.499 34.3114C119.499 32.3443 121.161 31.0371 123.553 31.0371C124.304 31.0371 125.078 31.1486 125.874 31.3757V31.1957C125.874 30.1114 125.243 29.6357 123.58 29.6357C122.526 29.6357 121.517 29.9271 120.65 30.4029H120.535V28.0071C121.33 27.5571 122.735 27.1714 124.118 27.1714C127.256 27.1714 128.968 28.6157 128.968 31.1486V37.4529H125.967V36.4586ZM125.874 34.29V33.4329C125.407 33.1843 124.798 33.0943 124.162 33.0943C123.153 33.0943 122.544 33.4543 122.544 34.2686C122.544 35.0829 123.153 35.4643 124.069 35.4643C124.985 35.4643 125.594 35.0357 125.874 34.29ZM134.169 29.0271C134.729 27.9214 135.552 27.2871 136.699 27.2871C137.121 27.2871 137.544 27.3771 137.704 27.4671V30.3129H137.588C137.237 30.1757 136.814 30.0857 136.228 30.0857C135.267 30.0857 134.516 30.63 134.258 31.6671V37.4529H131.164V27.3986H134.165V29.0229L134.169 29.0271ZM145.999 36.4157C145.346 37.23 144.314 37.68 142.905 37.68C140.233 37.68 138.522 35.3314 138.522 32.4386C138.522 29.5457 140.233 27.1757 142.905 27.1757C144.265 27.1757 145.248 27.5829 145.906 28.3286V23.3357H149V37.4529H145.999V36.4157ZM145.91 34.0414V30.81C145.395 30.0857 144.714 29.7729 143.941 29.7729C142.58 29.7729 141.669 30.72 141.669 32.4386C141.669 34.1571 142.585 35.0829 143.941 35.0829C144.714 35.0829 145.395 34.7657 145.91 34.0457V34.0414ZM0 42.0643H9.04687V43.7786H2.04055V48.0943H8.38892V49.7657H2.04055V54.4629H9.04687V56.1771H0V42.06V42.0643ZM16.52 46.0414C18.8406 46.0414 20.1298 47.5114 20.1298 49.9286V56.1857H18.1871V49.9757C18.1871 48.6857 17.5069 47.76 16.031 47.76C14.8129 47.76 13.7815 48.5057 13.4303 49.5686V56.1857H11.4875V46.2471H13.4303V47.6914C14.0393 46.7657 15.0707 46.0414 16.5244 46.0414H16.52ZM25.3535 46.2429H28.0031V47.8457H25.3535V53.1986C25.3535 54.33 25.9625 54.7114 27.065 54.7114C27.3673 54.7114 27.6963 54.6686 27.9319 54.5743H28.0031V56.1771C27.723 56.2886 27.3229 56.3829 26.785 56.3829C24.371 56.3829 23.4107 55.32 23.4107 53.3786V47.8457H21.628V46.2429H23.4107V43.5986H25.3535V46.2429ZM34.3292 56.3871C31.3062 56.3871 29.2434 54.4414 29.2434 51.3257C29.2434 48.21 31.1639 46.0414 33.9513 46.0414C36.7388 46.0414 38.2636 48.0086 38.2636 50.9186V51.7757H31.1861C31.3951 53.7857 32.7332 54.7586 34.5826 54.7586C35.7296 54.7586 36.552 54.51 37.4634 53.8543H37.5345V55.5043C36.6898 56.1386 35.5873 56.3829 34.3248 56.3829L34.3292 56.3871ZM31.2573 50.2414H36.3875C36.3164 48.7757 35.5695 47.6443 33.9736 47.6443C32.4976 47.6443 31.5374 48.7071 31.2573 50.2414ZM42.5047 47.7771C42.9493 46.7143 43.9362 46.0843 45.061 46.0843C45.5055 46.0843 45.9057 46.1529 46.0701 46.2429V48.0943H45.999C45.7189 47.9571 45.2477 47.8929 44.7809 47.8929C43.7273 47.8929 42.8382 48.57 42.5092 49.7014V56.1857H40.5664V46.2471H42.5092V47.7814L42.5047 47.7771ZM52.6764 46.0414C55.7483 46.0414 57.3843 48.4586 57.3843 51.2143C57.3843 53.97 55.7439 56.3871 52.6764 56.3871C51.4094 56.3871 50.3335 55.7529 49.7956 55.0757V60H47.8528V46.2429H49.7956V47.37C50.3335 46.6714 51.4138 46.0371 52.6764 46.0371V46.0414ZM52.3474 54.69C54.2679 54.69 55.3926 53.22 55.3926 51.21C55.3926 49.2 54.2679 47.73 52.3474 47.73C51.2938 47.73 50.3068 48.3386 49.7956 49.3114V53.13C50.3113 54.0986 51.2938 54.69 52.3474 54.69ZM61.6254 47.7771C62.07 46.7143 63.0525 46.0843 64.1817 46.0843C64.6262 46.0843 65.0263 46.1529 65.1908 46.2429V48.0943H65.1197C64.8396 47.9571 64.3684 47.8929 63.9016 47.8929C62.848 47.8929 61.9589 48.57 61.6299 49.7014V56.1857H59.6871V46.2471H61.6299V47.7814L61.6254 47.7771ZM68.0005 42.2229C68.6807 42.2229 69.2408 42.7414 69.2408 43.3971C69.2408 44.0529 68.6762 44.5714 68.0005 44.5714C67.3247 44.5714 66.7601 44.0529 66.7601 43.3971C66.7601 42.7414 67.347 42.2229 68.0005 42.2229ZM67.0402 46.2429H68.9874V56.1814H67.0402V46.2429ZM75.9226 50.3786C77.3986 50.8286 79.039 51.4157 79.039 53.3143C79.039 55.3457 77.3052 56.3871 75.0779 56.3871C73.7176 56.3871 72.3572 56.07 71.5881 55.4829V53.7H71.6815C72.5484 54.4671 73.8376 54.8057 75.0557 54.8057C76.1582 54.8057 77.1407 54.3986 77.1407 53.5414C77.1407 52.6843 76.3227 52.4571 74.7045 51.9386C73.2508 51.4886 71.637 50.9657 71.637 49.0929C71.637 47.22 73.2775 46.0414 75.3624 46.0414C76.5806 46.0414 77.6564 46.29 78.5277 46.8557V48.6643H78.4566C77.6119 48.0086 76.6295 47.6271 75.4114 47.6271C74.1933 47.6271 73.5131 48.1457 73.5131 48.8486C73.5131 49.6371 74.2644 49.8643 75.927 50.3871L75.9226 50.3786ZM85.8097 56.3871C82.7867 56.3871 80.7239 54.4414 80.7239 51.3257C80.7239 48.21 82.6444 46.0414 85.4318 46.0414C88.2192 46.0414 89.7441 48.0086 89.7441 50.9186V51.7757H82.6666C82.8756 53.7857 84.2137 54.7586 86.0631 54.7586C87.2101 54.7586 88.0325 54.51 88.9439 53.8543H89.015V55.5043C88.1703 56.1386 87.0723 56.3829 85.8053 56.3829L85.8097 56.3871ZM82.7422 50.2414H87.8725C87.8013 48.7757 87.0545 47.6443 85.4585 47.6443C83.9825 47.6443 83.0223 48.7071 82.7422 50.2414Z" fill="white"/>
</g>
<defs>
<clipPath id="clip0_195_3128">
<rect width="149" height="60" fill="white"/>
</clipPath>
</defs>
</svg>
