<svg width="133" height="41" viewBox="0 0 133 41" fill="none" xmlns="http://www.w3.org/2000/svg">
<path d="M60.5332 13.6494H60.5249C57.682 13.6494 55.5571 15.4382 54.947 18.3267H65.6836C65.3723 15.6498 63.181 13.6494 60.5373 13.6494H60.5332Z" fill="white"/>
<path d="M40.1516 13.6494H40.1433C37.3378 13.6494 35.1631 15.4797 34.5654 18.3267H45.302C44.9907 15.6498 42.7994 13.6494 40.1558 13.6494H40.1516Z" fill="white"/>
<path d="M80.9106 13.6494C77.5407 13.6494 75.0962 16.3553 75.0962 20.0822C75.0962 23.8091 77.4328 26.515 80.9106 26.515C83.6539 26.515 86.5673 24.2615 86.5673 20.0822C86.5673 16.8824 84.6251 13.6494 80.9106 13.6494Z" fill="white"/>
<path d="M11.4697 0.140625C10.2869 0.140625 9.14559 0.613748 8.3114 1.45209L1.53412 8.22937C0.695779 9.06771 0.226807 10.209 0.226807 11.3918V40.0697L121.836 39.9992C123.019 39.9992 124.16 39.526 124.994 38.6877L131.693 31.9851C132.531 31.1468 133 30.0055 133 28.8227V0.140625H11.4697ZM18.745 29.7897L9.45685 10.3833H13.8519L13.8851 10.4497C14.1383 10.981 19.8033 22.8464 20.5379 24.6849C21.2725 22.8505 26.9333 10.981 27.1865 10.4497L27.2197 10.3833H31.6563L31.5774 10.5535L22.3723 29.7938H18.7492L18.745 29.7897ZM49.3527 21.5723L49.3403 21.6719H34.5199C35.0802 24.6185 37.2798 26.5152 40.1517 26.5152C42.4717 26.5152 44.0612 25.627 44.8747 23.8798L44.9079 23.8134H48.9875L48.9377 23.9669C47.7466 27.7478 44.2936 30.1922 40.1476 30.1922C34.3913 30.1922 30.3697 26.0337 30.3697 20.0782C30.3697 14.1227 34.3913 9.96415 40.1476 9.96415C45.3561 9.96415 49.4357 14.4049 49.4357 20.0782C49.4357 20.6468 49.4357 20.9912 49.3527 21.5723ZM69.7344 21.5723L69.7219 21.6719H54.9016C55.4618 24.6185 57.6614 26.5152 60.5334 26.5152C62.8533 26.5152 64.4429 25.627 65.2563 23.8798L65.2895 23.8134H69.3692L69.3194 23.9669C68.1282 27.7478 64.6753 30.1922 60.5292 30.1922C54.7729 30.1922 50.7514 26.0337 50.7514 20.0782C50.7514 14.1227 54.7729 9.96415 60.5292 9.96415C65.7377 9.96415 69.8174 14.4049 69.8174 20.0782C69.8174 20.6468 69.8174 20.9912 69.7344 21.5723ZM90.5725 29.7855H87.0324L86.7253 27.0007C85.2976 28.9513 82.8573 30.1922 80.4211 30.1922C75.0176 30.1922 71.0956 25.9383 71.0956 20.0782C71.0956 14.2181 75.3164 9.96415 80.9109 9.96415C83.4881 9.96415 85.8787 10.8979 87.6383 12.5995C89.5557 14.4505 90.5725 17.0402 90.5725 20.0782V29.7814V29.7855ZM121.276 29.7855H117.275V18.609C117.275 15.4632 115.818 13.7284 113.179 13.7284C110.539 13.7284 109.082 15.4424 109.082 18.6879V29.827H105.082V18.6879C105.082 15.4424 103.666 13.7284 100.985 13.7284C98.3044 13.7284 96.8891 15.4632 96.8891 18.609V29.7855H92.88V18.3227C92.88 13.33 96.0882 9.97245 100.857 9.97245C104.559 9.97245 106.601 12.2883 107.078 13.3549C107.555 12.3132 109.643 9.97245 113.299 9.97245C118.072 9.97245 121.276 13.3258 121.276 18.3227V29.7855Z" fill="white"/>
</svg>
