<svg width="80" height="45" viewBox="0 0 80 45" fill="none" xmlns="http://www.w3.org/2000/svg">
<path d="M17.9391 17.7851C16.5168 17.9464 15.2337 16.9239 15.0722 15.505C14.9107 14.0862 15.9328 12.8046 17.3551 12.6434C18.7757 12.4838 20.0606 13.5046 20.2203 14.9234C20.3818 16.344 19.3597 17.6256 17.9374 17.7851H17.9391Z" fill="white"/>
<path d="M27.8095 10.9088C26.0831 10.3461 25.1418 8.49323 25.7035 6.77246C26.2669 5.04825 28.1204 4.10809 29.8467 4.6691C31.5713 5.23011 32.5144 7.08299 31.951 8.80719C31.3875 10.5297 29.5358 11.4716 27.8095 10.9088Z" fill="white"/>
<path d="M39.2412 7.63889C37.6694 6.10512 37.6402 3.58659 39.1776 2.01679C40.7133 0.446994 43.2332 0.417829 44.8067 1.95331C46.3785 3.4888 46.4059 6.00562 44.8686 7.57541C43.3312 9.14349 40.8112 9.17437 39.2412 7.63889Z" fill="white"/>
<path d="M50.3807 8.31142C49.448 5.90783 50.6453 3.20401 53.0518 2.27242C55.4584 1.34084 58.1673 2.53663 59.0983 4.94022C60.0311 7.34381 58.8338 10.0493 56.4272 10.9792C54.0189 11.9108 51.3135 10.715 50.3807 8.3097V8.31142Z" fill="white"/>
<path d="M61.3916 12.9589C61.3916 9.86566 63.903 7.35742 67.0018 7.35742C70.1006 7.35742 72.6103 9.86566 72.6103 12.9589C72.6103 16.0522 70.1006 18.5622 67.0018 18.5622C63.903 18.5622 61.3916 16.0522 61.3916 12.9589Z" fill="white"/>
<path d="M43.9495 22.9556C39.5159 22.9556 36.2986 26.1689 36.2986 30.597C36.2986 34.09 38.286 37.6139 42.7264 37.6139C43.8945 37.6139 44.932 37.3685 45.8579 36.8624V37.5006C45.8579 39.1974 45.4714 40.7689 42.6697 40.7689C42.0204 40.7689 41.4055 40.6677 40.8472 40.5098C40.1446 40.3023 39.4867 39.9626 38.8323 39.6349C38.8323 39.6349 38.7653 39.604 38.7584 39.6006C38.5969 39.5337 38.4217 39.5405 38.2603 39.6057C38.1366 39.6555 38.049 39.7361 37.9717 39.8408C37.8806 39.9626 36.9582 41.3882 36.8946 41.5152C36.8689 41.565 36.8259 41.6782 36.8122 41.7605C36.8053 41.7931 36.8019 41.8274 36.8019 41.8583C36.8019 42.0573 36.8895 42.2358 37.0235 42.361C37.3155 42.6321 37.6779 42.8414 38.0266 43.0301C38.1297 43.0867 38.2345 43.1382 38.3393 43.1879C39.4146 43.7198 40.9984 44.2327 43.0975 44.2327C45.3443 44.2327 47.1205 43.598 48.3744 42.3438C49.9238 40.7981 49.9238 39.2403 49.9238 37.2725V24.4808L49.8002 24.4207C47.9141 23.4737 45.8356 22.9521 43.9495 22.9521V22.9556ZM45.8579 33.625C45.638 33.7657 44.695 34.265 43.6094 34.265C42.0204 34.265 40.4212 33.0692 40.4212 30.398C40.4212 27.9875 41.8487 26.3028 43.8945 26.3028C44.8032 26.3028 45.5951 26.5807 45.8596 26.6836V33.6233L45.8579 33.625Z" fill="white"/>
<path d="M19.6824 23.9937C19.6824 23.9697 19.679 23.9388 19.6721 23.9028C19.6189 23.5922 19.3475 23.3555 19.0228 23.3555H16.2246C15.8587 23.3555 15.5632 23.6506 15.5632 24.016V36.9535C15.5632 37.3189 15.8587 37.6157 16.2246 37.6157H19.0228C19.3509 37.6157 19.6206 37.3773 19.6738 37.0633C19.6807 37.0238 19.6841 36.9895 19.6841 36.9638V23.9937H19.6824Z" fill="white"/>
<path d="M80 19.7814C79.9794 19.4349 79.6942 19.1621 79.3438 19.1621H76.5439C76.1832 19.1621 75.8963 19.4486 75.8877 19.8072C75.8877 19.8106 75.8877 36.9926 75.8877 37.0029C75.9135 37.3443 76.1969 37.6136 76.5439 37.6136H79.3438C79.6977 37.6136 79.9863 37.3323 80 36.9806C80 36.9754 80 19.79 80 19.7814Z" fill="white"/>
<path d="M67.9034 22.9551C63.9302 22.9551 61.0479 26.1564 61.0479 30.5673C61.0479 34.9782 63.8375 38.0114 68.1577 38.0114C70.5986 38.0114 72.4314 37.121 73.1134 36.735C73.2508 36.6629 73.6304 36.3249 73.3023 35.6833L72.6221 34.352C72.4366 33.9951 72.1824 33.9196 72.0003 33.9196C71.911 33.9196 71.8216 33.9368 71.6842 33.9934L71.6 34.0329C70.523 34.5115 69.5095 34.7466 68.4995 34.7466C67.4018 34.7466 66.4914 34.3983 65.8662 33.7378C65.3113 33.1527 65.0657 32.4065 65.0519 31.8729H74.3296V30.5399C74.3296 25.791 71.9264 22.9551 67.9017 22.9551H67.9034ZM65.0554 28.838C65.3903 27.1292 66.5035 26.0758 67.9893 26.0758C70.1949 26.0758 70.4646 28.1414 70.4921 28.838H65.0554Z" fill="white"/>
<path d="M60.0105 34.8206C59.8491 34.3814 59.5313 34.3162 59.3509 34.3162C59.2581 34.3162 59.1705 34.3419 59.0795 34.3608C58.6758 34.4689 58.3048 34.5204 57.9131 34.5204C56.4135 34.5204 56.2881 33.4567 56.2881 32.2729V26.8138H59.904C60.2699 26.8138 60.5654 26.5187 60.5654 26.1533V24.0122C60.5654 23.6656 60.2991 23.386 59.9607 23.3568C59.9435 23.3551 59.9281 23.3517 59.9143 23.3517H59.904H56.2881V19.8209C56.2881 19.4572 55.9927 19.1621 55.6268 19.1621H52.8286C52.7221 19.1621 52.6225 19.1896 52.5331 19.2342C52.2549 19.3508 52.1655 19.603 52.1655 19.802V32.1339C52.1655 34.0812 52.1655 35.488 53.4023 36.7232C54.5274 37.847 56.2108 38.0151 57.1161 38.0151C58.5023 38.0151 59.521 37.684 60.1634 37.3786C60.3386 37.2945 60.7955 36.9771 60.5396 36.2755L60.0088 34.824L60.0105 34.8206Z" fill="white"/>
<path d="M6.42331 24.9032C6.1811 24.7917 5.92344 24.6527 5.69841 24.4777C5.54038 24.3679 5.40811 24.2272 5.30677 24.0625C5.30333 24.0574 5.2329 23.927 5.2226 23.9012C5.21572 23.8892 5.18996 23.8223 5.18309 23.7983C5.13327 23.6559 5.10407 23.5015 5.10407 23.342C5.10407 23.0777 5.17965 22.8324 5.30848 22.6214C5.56443 22.1685 6.04197 21.8305 6.53668 21.6847C8.0088 21.2043 9.60803 21.6538 10.9049 22.4001C10.9805 22.4412 11.063 22.4859 11.1506 22.5305C11.2983 22.618 11.4512 22.6729 11.5835 22.6729C11.8016 22.6729 11.9957 22.5785 12.1331 22.4292L12.1297 22.4344C12.6055 21.8597 13.3613 20.6999 13.3751 20.681C13.5142 20.4563 13.528 20.1526 13.394 19.921C13.3579 19.8592 13.3115 19.794 13.26 19.7443C13.1947 19.6825 13.1449 19.6413 13.0693 19.5916C11.0458 18.1865 8.44339 17.7113 6.03166 18.1024C4.62482 18.3409 3.2592 18.974 2.2921 20.0359C0.732377 21.7087 0.411156 24.4417 1.62733 26.3958C2.47762 27.77 3.92569 28.6295 5.37548 29.2574C6.44564 29.7618 7.61887 30.0844 8.61173 30.7414C9.14939 31.0674 9.51012 31.6576 9.51012 32.3318C9.51012 33.0678 9.06865 33.6923 8.48977 33.9977C8.17714 34.1624 7.86966 34.2945 7.52439 34.3631C7.17912 34.4317 6.82354 34.4523 6.47312 34.4403C6.27558 34.4335 6.07804 34.418 5.8805 34.394C4.72445 34.2911 3.70582 33.7575 2.69234 33.2497C2.69234 33.2497 2.61847 33.2154 2.61332 33.2119C2.43983 33.1416 2.24744 33.1467 2.07566 33.2171C1.94168 33.272 1.8472 33.3578 1.76303 33.471C1.66512 33.6031 0.672255 35.142 0.601827 35.2793C0.574343 35.3342 0.527964 35.4543 0.510786 35.5435C0.505633 35.5795 0.502197 35.6138 0.502197 35.6498C0.502197 35.866 0.594956 36.0582 0.740966 36.1937C1.74929 37.0412 3.03761 37.5147 4.30531 37.827C6.40957 38.2747 8.70792 38.2387 10.6524 37.2522C13.9127 35.7596 14.9915 30.9181 12.5196 28.2795C10.8757 26.5587 8.52069 25.8845 6.42503 24.9015L6.42331 24.9032Z" fill="white"/>
<path d="M34.7475 33.7162V29.6794C34.7527 27.914 34.7544 25.9153 33.1981 24.3592C32.2791 23.4413 30.9856 22.9541 29.4568 22.9541C27.7786 22.9541 26.7479 23.7793 26.212 24.2717V24.0144C26.212 24.0144 26.212 24.0075 26.212 24.0058V23.9921C26.212 23.968 26.2085 23.9372 26.1999 23.9011C26.1999 23.8874 26.1914 23.8737 26.1896 23.86C26.1896 23.8548 26.1896 23.8514 26.1879 23.8462C26.1879 23.8462 26.1845 23.8342 26.1828 23.8291C26.1828 23.8256 26.1793 23.8222 26.1776 23.8188C26.1742 23.8051 26.169 23.7913 26.1639 23.7776C26.1622 23.7707 26.1604 23.7622 26.157 23.7553C26.1226 23.6678 26.0677 23.5872 25.9852 23.5203C25.9749 23.5117 25.9629 23.5014 25.9509 23.4928C25.9474 23.4928 25.9474 23.4894 25.944 23.4877C25.944 23.4877 25.9406 23.4859 25.9406 23.4842H25.9388C25.8289 23.4036 25.6966 23.3538 25.5506 23.3538H22.7524C22.3865 23.3538 22.0911 23.6489 22.0911 24.0144V24.6388V36.9519C22.0911 37.3173 22.3865 37.6141 22.7524 37.6141H25.5506C25.8787 37.6141 26.1484 37.3756 26.2017 37.0617C26.2102 37.0222 26.2137 36.9879 26.2137 36.9622V34.3544V27.3135C26.5744 27.0647 27.6085 26.502 28.6615 26.502C29.2747 26.502 29.7626 26.665 30.07 26.9721C30.5476 27.449 30.6266 28.3257 30.6266 30.1134V30.4068V36.9519C30.6266 37.3173 30.9238 37.6141 31.2879 37.6141H34.0862C34.4125 37.6141 34.6839 37.3756 34.7372 37.0617C34.7458 37.0222 34.7492 36.9879 34.7492 36.9622V34.3561C34.7492 34.3561 34.7492 34.351 34.7492 34.3493V33.7162H34.7475Z" fill="white"/>
</svg>
