<svg width="158" height="33" viewBox="0 0 158 33" fill="none" xmlns="http://www.w3.org/2000/svg">
<path d="M66.236 6.93066C63.4095 6.93066 60.1943 8.24045 58.2302 10.8648V10.86V10.8624V7.34333H51.4888V31.8967H58.2302V17.9257C58.2302 15.4114 60.1787 12.738 63.7887 12.738C66.5793 12.738 69.4656 14.6781 69.4656 17.9257V31.8967H76.2082V16.6757C76.2082 11.0299 72.1688 6.93186 66.2372 6.93186" fill="white"/>
<path d="M124.125 7.34375L118.03 24.0695L111.934 7.34375H104.234L114.336 31.8875H121.724L131.826 7.34375H124.125Z" fill="white"/>
<path d="M44.3129 24.3468C41.4745 26.446 39.8537 26.9484 37.2664 26.9484C34.9376 26.9484 33.1146 26.226 31.8288 24.9568L49.0652 17.8063C48.6896 15.1412 47.6789 12.7621 46.1215 10.9523C43.8572 8.32081 40.5044 6.92969 36.4244 6.92969C29.0107 6.92969 23.4199 12.3997 23.4199 19.622C23.4199 26.8444 29.0226 32.3132 37.166 32.3132C41.7281 32.3132 46.3942 30.1505 48.5748 27.6242L44.3117 24.3468H44.3129ZM31.3599 14.7405C32.5082 13.1987 34.3371 12.2944 36.5464 12.2944C38.9769 12.2944 40.819 13.6819 41.7723 15.7297L29.9939 20.616C29.6721 18.1089 30.3133 16.1472 31.3611 14.7405H31.3599Z" fill="white"/>
<path d="M22.7777 25.704H7.45391V0H0.620361V31.8953H22.7777V25.704Z" fill="white"/>
<path d="M143.932 32.3096C136.559 32.3096 130.782 26.8168 130.782 19.6208C130.782 12.4248 136.599 6.92969 144.023 6.92969C151.448 6.92969 157.172 12.4224 157.172 19.6208C157.172 26.8192 151.357 32.3096 143.932 32.3096ZM143.932 12.7071C140.167 12.7071 137.434 15.5599 137.434 19.6196C137.434 23.6793 140.328 26.5322 144.023 26.5322C147.718 26.5322 150.522 23.6004 150.522 19.6196C150.522 15.6388 147.627 12.7071 143.932 12.7071Z" fill="white"/>
<path d="M92.0234 32.3096C84.6504 32.3096 78.873 26.8168 78.873 19.6208C78.873 12.4248 84.6899 6.92969 92.1143 6.92969C99.5388 6.92969 105.264 12.4224 105.264 19.6208C105.264 26.8192 99.4479 32.3096 92.0234 32.3096ZM92.0234 12.7071C88.258 12.7071 85.5248 15.5599 85.5248 19.6196C85.5248 23.6793 88.4194 26.5322 92.1143 26.5322C95.8092 26.5322 98.613 23.6004 98.613 19.6196C98.613 15.6388 95.7183 12.7071 92.0234 12.7071Z" fill="white"/>
</svg>
