<svg width="176" height="36" viewBox="0 0 176 36" fill="none" xmlns="http://www.w3.org/2000/svg">
<path d="M175.294 14.483C175.294 12.37 174.119 11.432 171.769 10.968C169.419 10.5039 168.017 10.267 168.017 8.6181C168.017 7.44316 168.955 6.74214 170.594 6.74214C172.707 6.74214 173.408 7.68012 173.408 8.85507L173.645 9.09203H174.583L174.82 8.85507C174.82 6.50518 172.944 5.5672 170.594 5.5672C168.017 5.5672 166.605 6.9791 166.605 8.6181C166.605 10.4941 168.017 11.432 170.357 11.906C172.707 12.3799 173.872 12.607 173.872 14.483C173.872 15.6579 173.171 16.5959 170.821 16.5959C168.708 16.5959 167.77 15.4209 167.77 14.0189L167.533 13.7819H166.595L166.358 14.0189C166.358 16.1318 167.997 17.7708 170.811 17.7708C173.862 17.7708 175.274 16.3589 175.274 14.483M165.203 12.1429L165.44 11.906V11.205C165.44 7.91709 163.564 5.57707 160.276 5.57707C156.988 5.57707 155.113 7.92696 155.113 11.205V11.669C155.113 14.9569 156.752 17.7708 160.513 17.7708C163.801 17.7708 164.966 15.6579 165.203 14.2559L164.966 14.0189H164.028L163.791 14.2559C163.317 15.6678 162.379 16.6057 160.503 16.6057C157.453 16.6057 156.515 13.7918 156.515 12.3799L156.752 12.1429H165.203ZM163.801 10.968H156.761L156.524 10.731C156.524 9.09203 157.462 6.74214 160.276 6.74214C163.09 6.74214 164.028 9.09203 164.028 10.731L163.791 10.968H163.801ZM153.474 17.3068V6.04112L153.237 5.80416H152.299L152.062 6.04112V17.3068L152.299 17.5437H153.237L153.474 17.3068ZM153.474 3.69124V2.27933L153.237 2.04236H152.299L152.062 2.27933V3.69124L152.299 3.9282H153.237L153.474 3.69124ZM144.558 16.5959C142.208 16.5959 140.806 14.9569 140.806 11.669C140.806 8.38114 142.218 6.74214 144.558 6.74214C146.898 6.74214 148.31 8.38114 148.31 11.669C148.31 14.9569 146.898 16.5959 144.558 16.5959ZM148.31 15.8949C148.31 18.9458 147.609 21.2957 144.795 21.2957C142.682 21.2957 141.981 20.3577 141.744 19.1827L141.507 18.9458H140.569L140.332 19.1827C140.569 21.0587 141.971 22.4706 144.785 22.4706C147.836 22.4706 149.712 20.5946 149.712 15.9047V6.04112L149.475 5.80416H148.774L148.537 6.04112L148.3 7.45303H148.063C147.599 6.51505 146.424 5.57707 144.311 5.57707C141.023 5.57707 139.384 8.15405 139.384 11.6789C139.384 15.2037 141.023 17.7807 144.311 17.7807C146.424 17.7807 147.599 16.8427 148.063 15.9047H148.3L148.31 15.8949ZM133.065 6.74214C135.415 6.74214 137.054 8.6181 137.054 11.669C137.054 14.7199 135.415 16.5959 133.065 16.5959C130.715 16.5959 129.076 14.7199 129.076 11.669C129.076 8.6181 130.715 6.74214 133.065 6.74214ZM133.065 17.7708C136.116 17.7708 138.466 15.6579 138.466 11.669C138.466 7.68012 136.116 5.5672 133.065 5.5672C130.014 5.5672 127.664 7.68012 127.664 11.669C127.664 15.6579 130.014 17.7708 133.065 17.7708ZM126.025 17.3068V1.35122L125.788 1.11426H124.85L124.613 1.35122V17.3068L124.85 17.5437H125.788L126.025 17.3068ZM117.574 6.74214C119.923 6.74214 121.562 8.6181 121.562 11.669C121.562 14.7199 119.923 16.5959 117.574 16.5959C115.224 16.5959 113.585 14.7199 113.585 11.669C113.585 8.6181 115.224 6.74214 117.574 6.74214ZM117.574 17.7708C120.624 17.7708 122.974 15.6579 122.974 11.669C122.974 7.68012 120.624 5.5672 117.574 5.5672C114.523 5.5672 112.173 7.68012 112.173 11.669C112.173 15.6579 114.523 17.7708 117.574 17.7708ZM110.771 17.3068V10.267C110.771 7.21607 109.132 5.57707 106.545 5.57707C104.906 5.57707 103.494 6.27809 102.793 7.45303H102.556L102.319 6.04112L102.082 5.80416H101.381L101.144 6.04112V17.3068L101.381 17.5437H102.319L102.556 17.3068V10.968C102.556 8.39101 103.731 6.74214 106.308 6.74214C108.184 6.74214 109.359 7.91709 109.359 10.2571V17.2969L109.596 17.5339H110.534L110.771 17.2969V17.3068ZM98.8041 17.3068V10.267C98.8041 7.21607 97.1651 5.57707 94.5782 5.57707C92.9392 5.57707 91.5273 6.27809 90.8263 7.45303H90.5893V1.35122L90.3524 1.11426H89.4144L89.1774 1.35122V17.3068L89.4144 17.5437H90.3524L90.5893 17.3068V10.968C90.5893 8.39101 91.7643 6.74214 94.3413 6.74214C96.2172 6.74214 97.3922 7.91709 97.3922 10.2571V17.2969L97.6291 17.5339H98.5671L98.8041 17.2969V17.3068ZM78.6325 11.669C78.6325 8.38114 80.2715 6.74214 82.6214 6.74214C84.9713 6.74214 85.9093 8.15405 86.1364 9.55608L86.3734 9.79305H87.3113L87.5483 9.55608C87.3113 7.2062 85.4354 5.5672 82.6214 5.5672C79.5705 5.5672 77.2206 7.44316 77.2206 11.669C77.2206 15.8949 79.5705 17.7708 82.6214 17.7708C85.4354 17.7708 87.3113 16.1318 87.5483 13.7819L87.3113 13.545H86.3734L86.1364 13.7819C85.8994 15.1938 84.9614 16.5959 82.6214 16.5959C80.2814 16.5959 78.6325 14.9569 78.6325 11.669ZM76.0457 12.1429L76.2827 11.906V11.205C76.2827 7.91709 74.4067 5.57707 71.1188 5.57707C67.831 5.57707 65.955 7.92696 65.955 11.205V11.669C65.955 14.9569 67.594 17.7708 71.3558 17.7708C74.6437 17.7708 75.8087 15.6579 76.0457 14.2559L75.8087 14.0189H74.8708L74.6338 14.2559C74.1697 15.6678 73.2219 16.6057 71.3459 16.6057C68.295 16.6057 67.357 13.7918 67.357 12.3799L67.594 12.1429H76.0457ZM74.6437 10.968H67.6039L67.3669 10.731C67.3669 9.09203 68.3049 6.74214 71.1188 6.74214C73.9328 6.74214 74.8708 9.09203 74.8708 10.731L74.6338 10.968H74.6437ZM68.3148 2.05224V1.35122L68.0778 1.11426H55.8742L55.6372 1.35122V2.05224L55.8742 2.2892H61.038L61.275 2.52617V17.3068L61.5119 17.5437H62.4499L62.6869 17.3068V2.51629L62.9238 2.27933H68.0877L68.3246 2.04236L68.3148 2.05224Z" fill="white"/>
<path d="M55.6469 14.2771V17.5452H45.0527V1.1157H48.7849V14.2771H55.6469ZM6.65473 17.5353C10.4758 17.5353 13.6846 14.9287 14.6029 11.394L23.8938 18.651L33.1749 11.394V17.5353H43.7691V14.2672H36.9071V1.1157H33.1749V7.25701L24.269 14.2178L22.2746 12.6578L26.5399 9.33044L31.1805 5.70687L28.5344 3.63344L19.6285 10.5942L17.634 9.03424L26.5399 2.07343L23.8938 0L14.6029 7.25701C13.6846 3.7223 10.4758 1.1157 6.65473 1.1157H0V17.5353H6.65473ZM3.73218 14.2771V4.37395H6.65473C9.13297 4.37395 11.1373 6.58561 11.1373 9.32057C11.1373 12.0555 9.13297 14.2672 6.65473 14.2672H3.73218V14.2771Z" fill="white"/>
<path d="M54.8772 35.6086H53.9787L53.88 35.5099L53.3765 34.2066L53.179 34.1078H50.681L50.4835 34.2066L49.98 35.5099L49.8813 35.6086H48.9828L48.884 35.5099V34.5126L51.1846 28.7169L51.2833 28.6182H52.5866L52.6853 28.7169L54.9858 34.5126V35.5099L54.8871 35.6086H54.8772ZM51.9744 30.4053H51.8757L50.9772 32.8045L51.0759 32.9033H52.7742L52.8729 32.8045L51.9744 30.4053Z" fill="white"/>
<path d="M62.3804 32.9053C62.3804 34.7023 61.3832 35.6995 59.5862 35.6995C57.7892 35.6995 56.792 34.7023 56.792 32.9053V28.7091L56.8907 28.6104H58.0953L58.194 28.7091V32.9053C58.194 33.9025 58.589 34.5048 59.5961 34.5048C60.6032 34.5048 60.9981 33.9025 60.9981 32.9053V28.7091L61.0968 28.6104H62.2915L62.3903 28.7091V32.9053H62.3804Z" fill="white"/>
<path d="M69.6776 29.8129H67.6832L67.5844 29.9116V35.5099L67.4857 35.6086H66.2811L66.1824 35.5099V29.9116L66.0837 29.8129H64.0892L63.9905 29.7141V28.7169L64.0892 28.6182H69.6875L69.7862 28.7169V29.7141L69.6875 29.8129H69.6776Z" fill="white"/>
<path d="M77.1812 35.6086H75.9865L75.8877 35.5099V32.7157L75.789 32.6169H73.0935L72.9948 32.7157V35.5099L72.8961 35.6086H71.6915L71.5928 35.5099V28.7169L71.6915 28.6182H72.8961L72.9948 28.7169V31.3136L73.0935 31.4124H75.789L75.8877 31.3136V28.7169L75.9865 28.6182H77.1812L77.2799 28.7169V35.5099L77.1812 35.6086Z" fill="white"/>
<path d="M82.6809 35.7094C80.5779 35.7094 79.2844 34.2086 79.2844 32.1154C79.2844 30.0223 80.5877 28.5215 82.6809 28.5215C84.7741 28.5215 86.0774 30.0223 86.0774 32.1154C86.0774 34.2086 84.7741 35.7094 82.6809 35.7094ZM82.6809 29.7063C81.3776 29.7063 80.6865 30.7035 80.6865 32.1056C80.6865 33.5076 81.3875 34.5048 82.6809 34.5048C83.9743 34.5048 84.6753 33.5076 84.6753 32.1056C84.6753 30.7035 83.9743 29.7063 82.6809 29.7063Z" fill="white"/>
<path d="M92.3764 32.7078V32.8066L93.6797 34.5048V35.502L93.581 35.6008H92.9787L92.7812 35.502L90.7868 32.9053L90.5893 32.8066H89.5921L89.4933 32.9053V35.502L89.3946 35.6008H88.19L88.0913 35.502V28.7091L88.19 28.6104H91.4878C92.8898 28.6104 93.887 29.3114 93.887 30.7134C93.887 31.8094 93.186 32.5104 92.3863 32.7078H92.3764ZM91.4779 29.8149H89.5822L89.4835 29.9137V31.5132L89.5822 31.6119H91.4779C92.0802 31.6119 92.4751 31.4144 92.4751 30.7134C92.4751 30.0124 92.0703 29.8149 91.4779 29.8149Z" fill="white"/>
<path d="M97.1851 35.6086H95.9806L95.8818 35.5099V28.7169L95.9806 28.6182H97.1851L97.2839 28.7169V35.5099L97.1851 35.6086Z" fill="white"/>
<path d="M104.481 35.6085H99.4852L99.3865 35.5097V34.4138L99.4852 34.2163L102.684 29.9214V29.8226H99.5839L99.4852 29.7239V28.7267L99.5839 28.6279H104.284L104.382 28.7267V29.8226L104.284 30.0201L101.085 34.3151V34.4138H104.481L104.58 34.5125V35.5097L104.481 35.6085Z" fill="white"/>
<path d="M111.482 35.6086H106.782L106.683 35.5099V28.7169L106.782 28.6182H111.482L111.58 28.7169V29.7141L111.482 29.8129H108.184L108.085 29.9116V31.3136L108.184 31.4124H111.284L111.383 31.5111V32.5083L111.284 32.6071H108.184L108.085 32.7058V34.3053L108.184 34.404H111.482L111.58 34.5028V35.5L111.482 35.5987V35.6086Z" fill="white"/>
<path d="M116.082 35.6086H113.881L113.782 35.5099V28.7169L113.881 28.6182H116.082C118.58 28.6182 119.479 29.9215 119.479 32.1134C119.479 34.3053 118.58 35.6086 116.082 35.6086ZM116.181 29.8129H115.283L115.184 29.9116V34.3053L115.283 34.404H116.181C117.583 34.404 118.077 33.703 118.077 32.1035C118.077 30.504 117.573 29.803 116.181 29.803V29.8129Z" fill="white"/>
<path d="M127.783 32.8066H125.887L125.789 32.9053V35.502L125.69 35.6008H124.485L124.386 35.502V28.7091L124.485 28.6104H127.783C129.185 28.6104 130.182 29.3114 130.182 30.7134C130.182 32.1154 129.185 32.8165 127.783 32.8165V32.8066ZM127.783 29.8149H125.887L125.789 29.9137V31.5132L125.887 31.6119H127.783C128.385 31.6119 128.78 31.4144 128.78 30.7134C128.78 30.0124 128.375 29.8149 127.783 29.8149Z" fill="white"/>
<path d="M137.074 35.6086H136.175L136.077 35.5099L135.573 34.2066L135.376 34.1078H132.878L132.68 34.2066L132.177 35.5099L132.078 35.6086H131.179L131.081 35.5099V34.5126L133.381 28.7169L133.48 28.6182H134.783L134.882 28.7169L137.182 34.5126V35.5099L137.084 35.6086H137.074ZM134.181 30.4053H134.082L133.184 32.8045L133.282 32.9033H134.981L135.079 32.8045L134.181 30.4053Z" fill="white"/>
<path d="M143.482 32.7078V32.8066L144.785 34.5048V35.502L144.686 35.6008H144.084L143.886 35.502L141.892 32.9053L141.695 32.8066H140.697L140.599 32.9053V35.502L140.5 35.6008H139.295L139.197 35.502V28.7091L139.295 28.6104H142.593C143.995 28.6104 144.992 29.3114 144.992 30.7134C144.992 31.8094 144.291 32.5104 143.492 32.7078H143.482ZM142.583 29.8149H140.687L140.589 29.9137V31.5132L140.687 31.6119H142.583C143.185 31.6119 143.58 31.4144 143.58 30.7134C143.58 30.0124 143.176 29.8149 142.583 29.8149Z" fill="white"/>
<path d="M152.18 29.8129H150.185L150.087 29.9116V35.5099L149.988 35.6086H148.783L148.685 35.5099V29.9116L148.586 29.8129H146.591L146.493 29.7141V28.7169L146.591 28.6182H152.19L152.288 28.7169V29.7141L152.19 29.8129H152.18Z" fill="white"/>
<path d="M154.185 28.6104H155.587L155.784 28.7091L158.48 33.3101H158.578V28.7091L158.677 28.6104H159.872L159.97 28.7091V35.502L159.872 35.6008H158.47L158.272 35.502L155.577 30.901H155.478V35.502L155.379 35.6008H154.175L154.076 35.502V28.7091L154.175 28.6104H154.185Z" fill="white"/>
<path d="M167.178 35.6086H162.478L162.379 35.5099V28.7169L162.478 28.6182H167.178L167.277 28.7169V29.7141L167.178 29.8129H163.88L163.781 29.9116V31.3136L163.88 31.4124H166.98L167.079 31.5111V32.5083L166.98 32.6071H163.88L163.781 32.7058V34.3053L163.88 34.404H167.178L167.277 34.5028V35.5L167.178 35.5987V35.6086Z" fill="white"/>
<path d="M173.784 32.7078V32.8066L175.087 34.5048V35.502L174.988 35.6008H174.386L174.188 35.502L172.194 32.9053L171.997 32.8066H170.999L170.901 32.9053V35.502L170.802 35.6008H169.597L169.499 35.502V28.7091L169.597 28.6104H172.895C174.297 28.6104 175.294 29.3114 175.294 30.7134C175.294 31.8094 174.593 32.5104 173.793 32.7078H173.784ZM172.885 29.8149H170.989L170.891 29.9137V31.5132L170.989 31.6119H172.885C173.487 31.6119 173.882 31.4144 173.882 30.7134C173.882 30.0124 173.478 29.8149 172.885 29.8149Z" fill="white"/>
</svg>
