<svg width="191" height="50" viewBox="0 0 191 50" fill="none" xmlns="http://www.w3.org/2000/svg">
<path d="M14.0093 4.01953C18.0401 4.01955 21.0255 4.89036 23.0513 6.53223L23.2446 6.69336C25.1552 8.38492 26.2077 10.5769 26.4067 13.3359L20.5063 13.5303C20.1675 11.97 19.5475 10.7307 18.5366 9.9248H18.5376C17.4578 9.05588 15.8863 8.6709 13.9302 8.6709C11.9672 8.67091 10.2283 9.08696 8.99951 10.0039C8.15375 10.622 7.7115 11.4495 7.71143 12.4893C7.71143 13.4646 8.12226 14.2695 8.90283 14.9277C9.401 15.358 10.2068 15.7549 11.2583 16.1357C12.3259 16.5224 13.6958 16.9087 15.3589 17.2969V17.2979C18.6599 18.0782 21.0544 18.8834 22.5737 19.6973H22.5747C24.0844 20.5032 25.2614 21.5934 26.1138 22.9785L26.1147 22.9795C26.9446 24.3188 27.3862 26.0471 27.3862 28.125C27.3862 29.9652 26.8745 31.709 25.854 33.3154C24.8354 34.91 23.3964 36.1235 21.522 36.9141C19.6312 37.6888 17.2478 38.1104 14.3638 38.1104C10.1645 38.1103 7.00937 37.1295 4.8501 35.2422L4.84912 35.2412L4.45264 34.8779C2.61835 33.1031 1.45661 30.6226 0.995605 27.4072L6.63818 26.8789C7.0859 28.9461 7.90274 30.5419 9.14111 31.6133L9.14307 31.6152C10.4807 32.7556 12.2535 33.29 14.4087 33.29C16.662 33.29 18.4504 32.8044 19.6899 31.7842L19.6909 31.7852L19.6968 31.7803C20.9013 30.7582 21.5356 29.5561 21.5356 28.1533C21.5356 27.2555 21.2654 26.4403 20.7212 25.7832H20.7222L20.7144 25.7754L20.6069 25.6562C20.0499 25.0716 19.1905 24.5758 18.0679 24.1924H18.0688C17.2351 23.8753 15.3866 23.3774 12.5708 22.665L12.5688 22.6641L11.9028 22.4941C8.64104 21.6305 6.40027 20.5936 5.12061 19.4375C3.15292 17.6517 2.18123 15.5025 2.18115 12.9688C2.18115 11.3412 2.62586 9.80962 3.56104 8.41211H3.56201L3.56689 8.4043C4.47417 6.99064 5.79698 5.90689 7.55225 5.14648L7.55322 5.14746C9.31578 4.41218 11.445 4.01953 14.0093 4.01953Z" fill="white" stroke="white"/>
<path d="M33.5273 13.9297L39.2734 31.0273L39.7529 32.4561L40.2227 31.0234L45.8164 13.9297H51.4229L43.0801 36.873L41.5137 41.1699C40.95 42.593 40.43 43.6418 39.9473 44.3525L39.9443 44.3564C39.5218 44.9926 39.0495 45.5093 38.5332 45.9062L38.3096 46.0684C37.688 46.493 36.9192 46.8388 36.0049 47.0918C35.0709 47.3441 34.0164 47.4853 32.8281 47.4854C31.7578 47.4854 30.6805 47.3692 29.624 47.1582L29.1982 43.0928C29.9721 43.2253 30.6938 43.291 31.3574 43.291C32.9488 43.291 34.2244 42.8185 35.0635 41.7881L35.0664 41.7842C35.8386 40.8189 36.4172 39.61 36.8086 38.1963L36.8525 38.04L36.7949 37.8867L27.7646 13.9297H33.5273Z" fill="white" stroke="white"/>
<path d="M66.3413 13.4629C67.7169 13.4629 68.9629 13.7195 70.0884 14.1826C71.2228 14.6913 72.0489 15.2875 72.5757 16.0029L72.5796 16.0078C73.14 16.7516 73.5385 17.5951 73.7651 18.5371V18.5381C73.9886 19.4797 74.1187 20.9056 74.1187 22.7783V37.4912H68.6616V25.4824C68.6616 24.16 68.6274 23.0616 68.5562 22.1904C68.4946 21.4385 68.4026 20.8257 68.2681 20.377L68.2085 20.1943C67.8968 19.3405 67.3978 18.639 66.6597 18.1426H66.6587C65.9372 17.65 65.0699 17.416 64.1157 17.416C62.8784 17.416 61.7781 17.7604 60.7886 18.4355C59.7909 19.1049 59.1069 20.007 58.7446 21.1123L58.7427 21.1162C58.3898 22.2236 58.2183 24.1596 58.2183 26.9082V37.4971H52.7778V13.9307H57.7446V18.4717L58.6372 17.3408C60.6954 14.7317 63.2532 13.4629 66.3413 13.4629Z" fill="white" stroke="white"/>
<path d="M87.3018 13.4629C90.9007 13.4629 93.8048 14.6245 96.0732 16.9307V16.9316C98.35 19.2409 99.496 22.1585 99.4961 25.7188C99.4961 29.0568 98.4793 31.8807 96.457 34.1514L96.0391 34.5977C93.744 36.9305 90.8548 38.1162 87.3408 38.1162C85.1729 38.1162 83.1069 37.6171 81.1279 36.6357C79.179 35.6608 77.702 34.24 76.6934 32.3623L76.6924 32.3604L76.5078 32.0059C75.6178 30.2082 75.1537 28.0311 75.1523 25.4541C75.1524 23.3665 75.664 21.3773 76.6943 19.4092L76.6953 19.4102C77.7098 17.484 79.1501 16.0126 81.0117 14.9902L81.0107 14.9893C82.8797 13.9685 84.9714 13.4629 87.3018 13.4629ZM87.29 17.7314C85.554 17.7315 84.077 18.3789 82.8701 19.5938L82.6318 19.8447C81.3526 21.254 80.7617 23.2644 80.7617 25.7754V25.7812C80.7617 28.2971 81.3504 30.3122 82.6279 31.7061V31.707C83.8801 33.1233 85.4346 33.8427 87.29 33.8428C89.1456 33.8428 90.7009 33.1234 91.9531 31.707L91.9521 31.7061C93.2071 30.3067 93.791 28.275 93.791 25.7471C93.791 23.2119 93.2043 21.2551 91.9512 19.8477L91.9492 19.8457L91.7109 19.5938C90.5031 18.3735 89.0253 17.7314 87.29 17.7314Z" fill="white" stroke="white"/>
<path d="M107.417 1.33789V32.5488C107.417 33.3171 107.447 33.966 107.503 34.4893C107.559 35.0011 107.645 35.4317 107.781 35.7402V35.7412C108.043 36.3393 108.449 36.7895 108.997 37.0977L109.005 37.1025C109.392 37.3102 109.944 37.4352 110.634 37.4971H101.161C101.741 37.4396 102.214 37.3258 102.561 37.1318L102.57 37.127L102.577 37.1221C103.062 36.8265 103.444 36.3878 103.711 35.7676C103.854 35.4392 103.944 34.9997 104 34.4805C104.058 33.9531 104.084 33.308 104.084 32.5488V10.9062C104.084 9.54355 104.072 8.43993 104.044 7.59668C104.017 6.76493 103.974 6.15471 103.907 5.79883C103.787 5.14079 103.562 4.58632 103.185 4.25098V4.25L103.177 4.24414L103.04 4.13574C102.709 3.89667 102.313 3.75781 101.849 3.75781C101.43 3.75788 100.948 3.87525 100.429 4.05762L100.41 4.01562L106.868 1.33789H107.417Z" fill="white" stroke="white"/>
<path d="M123.401 13.8516C126.887 13.8516 129.649 15.1655 131.754 17.792V17.793C133.548 20.0466 134.44 22.6298 134.44 25.5615C134.44 27.6325 133.952 29.7232 132.95 31.8438V31.8447C131.954 33.9623 130.6 35.5385 128.881 36.5898L128.88 36.5908C127.154 37.6559 125.25 38.1894 123.12 38.1895C119.653 38.1895 116.934 36.8261 114.906 34.0928V34.0918C113.178 31.7666 112.311 29.1501 112.311 26.2432C112.311 24.1326 112.835 22.0456 113.886 19.9492C114.882 17.9729 116.148 16.5247 117.698 15.5195L118.011 15.3252C119.713 14.3489 121.507 13.8516 123.401 13.8516ZM122.095 14.6338C121.243 14.7086 120.4 14.976 119.556 15.4795C118.509 16.1013 117.689 17.1468 117.086 18.5713L117.085 18.5752C116.477 20.0418 116.185 21.8645 116.185 24.0566C116.185 27.6026 116.903 30.6511 118.324 33.2764L118.328 33.2812C119.778 35.8825 121.741 37.3076 124.235 37.3076C126.1 37.3076 127.626 36.5181 128.801 35.0322C130.016 33.5068 130.567 30.9768 130.567 27.5615C130.567 23.2508 129.634 19.82 127.723 17.2666C126.396 15.4926 124.679 14.6035 122.595 14.6035H122.095V14.6338Z" fill="white" stroke="white"/>
<path d="M141.116 29.3564C140.39 30.0429 139.838 30.6607 139.551 31.2402C139.274 31.771 139.094 32.2748 139.094 32.7285C139.094 33.2223 139.326 33.6188 139.684 33.9697V33.9707C139.895 34.177 140.182 34.3263 140.499 34.4375C140.814 34.5483 141.192 34.6303 141.62 34.6895V34.6904C142.142 34.7898 143.418 34.8563 145.337 34.9121V34.9131C148.921 35.0261 151.209 35.1609 152.209 35.334L152.217 35.3359L152.225 35.3369C153.752 35.5497 154.942 36.1169 155.816 36.9844V36.9854C156.683 37.8577 157.114 38.9078 157.114 40.1943C157.114 41.956 156.278 43.6741 154.506 45.3213L154.505 45.3223C151.921 47.7332 148.524 48.957 144.277 48.957C141.004 48.957 138.281 48.2357 136.07 46.79C134.817 45.9484 134.353 45.1902 134.353 44.499C134.353 44.1788 134.43 43.8192 134.582 43.4551C134.84 42.8669 135.404 42.0566 136.304 40.9014L136.312 40.8916L136.319 40.8809C136.319 40.8809 136.332 40.8639 136.37 40.8203C136.404 40.78 136.451 40.7263 136.511 40.6592C136.632 40.5248 136.802 40.3423 137.019 40.1094C137.453 39.6436 138.073 38.9851 138.876 38.1309L139.295 37.6865L138.777 37.3643C137.886 36.8096 137.31 36.3655 136.999 35.9922L136.992 35.9844L136.886 35.8535C136.659 35.5455 136.55 35.2133 136.55 34.8584C136.55 34.365 136.745 33.7459 137.207 32.9736L137.208 32.9727C137.652 32.2245 138.717 31.1115 140.454 29.6484L141.201 29.2754L141.116 29.3564ZM139.472 37.7988C138.719 38.6354 138.144 39.4474 137.728 40.2227C137.285 41.0082 137.066 41.8045 137.066 42.5215C137.066 43.6164 137.718 44.4681 138.809 45.1387L138.811 45.1396C140.662 46.2661 143.274 46.8242 146.598 46.8242C149.921 46.8242 152.182 46.2665 153.799 45.0771L153.8 45.0781C155.36 43.9422 156.232 42.6434 156.232 41.1797C156.232 40.6501 156.097 40.1652 155.808 39.751C155.521 39.3394 155.105 39.0302 154.594 38.8105L154.59 38.8096L154.386 38.7305C153.888 38.5523 153.23 38.419 152.433 38.3213C151.515 38.2088 150.378 38.1397 149.024 38.1113H149.025C145.118 37.9933 142.117 37.7688 140.039 37.4902L139.472 37.4141V37.7988ZM145.172 13.8574C147.361 13.8574 149.227 14.3722 150.799 15.4238L150.925 15.5088H156.131C156.505 15.5088 156.792 15.5138 156.997 15.5244C157.099 15.5297 157.176 15.5364 157.231 15.543C157.24 15.5441 157.248 15.5439 157.255 15.5449C157.262 15.551 157.266 15.5586 157.272 15.5664C157.281 15.5842 157.303 15.6327 157.322 15.7266C157.342 15.8274 157.356 15.9628 157.356 16.1348C157.356 16.3454 157.345 16.5182 157.327 16.6484C157.315 16.7287 157.303 16.7791 157.294 16.8066L157.292 16.8076L157.276 16.8135C157.27 16.8147 157.254 16.8175 157.225 16.8213C157.172 16.8283 157.096 16.8352 156.993 16.8408C156.787 16.8521 156.5 16.8574 156.125 16.8574H151.973L152.612 17.668C153.518 18.8161 153.981 20.3096 153.981 22.1807C153.981 24.2546 153.182 26.0452 151.583 27.5273L151.582 27.5283C149.993 29.012 147.837 29.7773 145.088 29.7773C143.954 29.7773 142.798 29.6162 141.609 29.2432L141.33 29.1553L141.265 29.2148L140.414 28.7793C139.03 28.0713 137.999 27.1597 137.258 25.9678C136.536 24.7515 136.173 23.4449 136.173 22.0059C136.173 19.7738 136.994 17.8645 138.67 16.2783L138.671 16.2773C140.353 14.6753 142.506 13.8575 145.172 13.8574ZM144.733 14.1699C143.288 14.1716 142.098 14.7845 141.142 15.9004L141.139 15.9023C140.168 17.0511 139.731 18.7171 139.731 20.8906C139.731 23.6828 140.331 25.9188 141.594 27.5469L141.598 27.5527C142.593 28.8002 143.859 29.4482 145.398 29.4482C146.921 29.4482 148.084 28.8797 149.016 27.7852L149.017 27.7861C149.975 26.6683 150.406 24.9867 150.406 22.8398C150.406 20.0138 149.806 17.7562 148.522 16.084L148.516 16.0771C147.537 14.8452 146.277 14.1699 144.733 14.1699Z" fill="white" stroke="white"/>
<path d="M168.602 14.5508C168.028 14.6284 167.539 14.8164 167.16 15.1309L167.152 15.1367L167.145 15.1436C166.657 15.582 166.399 16.1323 166.399 16.7783C166.399 17.4856 166.641 18.3493 167.101 19.3721L167.311 19.8203L173.142 31.915L173.632 32.9336L174.056 31.8848L179.392 18.667V18.666C179.706 17.8875 179.868 17.1256 179.868 16.333C179.868 15.9464 179.776 15.613 179.596 15.3574L179.591 15.3506L179.585 15.3438L179.504 15.2451C179.309 15.0251 179.042 14.8396 178.712 14.7275H178.713C178.502 14.6462 178.222 14.591 177.889 14.5566H184.209V14.5801C183.799 14.6528 183.434 14.7629 183.13 14.916L182.963 15.0088C182.526 15.2724 182.102 15.7163 181.671 16.293L181.659 16.3096L181.648 16.3281C181.463 16.6251 181.14 17.322 180.713 18.415L171.016 42.2656C170.094 44.5333 168.906 46.1869 167.456 47.3027L167.453 47.3057C165.987 48.452 164.616 48.9629 163.337 48.9629C162.402 48.9628 161.685 48.7153 161.126 48.208H161.127L161.122 48.2031L160.922 48.0137C160.493 47.5658 160.299 47.0808 160.299 46.5449C160.299 45.9496 160.487 45.5174 160.861 45.1699L160.866 45.165C161.226 44.8216 161.753 44.6387 162.509 44.6387C163 44.6387 163.733 44.7996 164.706 45.1641V45.165L164.716 45.168C165.062 45.2889 165.356 45.3897 165.587 45.46C165.795 45.5231 166.023 45.5849 166.2 45.585C166.902 45.585 167.58 45.2109 168.242 44.6494L168.245 44.6465C168.954 44.0347 169.616 42.8969 170.247 41.3525V41.3516L171.937 37.1816L172.02 36.9775L171.924 36.7783L163.315 18.7881L163.314 18.7852C163.031 18.2013 162.589 17.51 162.023 16.7002L162.019 16.6934L161.695 16.2617C161.381 15.8607 161.098 15.5536 160.849 15.3555L160.829 15.3398L160.806 15.3252C160.402 15.0671 159.829 14.8321 159.099 14.6318V14.5508H168.602Z" fill="white" stroke="white"/>
<mask id="path-9-inside-1_195_3253" fill="white">
<path d="M184.664 12.4621V7.67285H186.766C187.194 7.67285 187.515 7.7292 187.74 7.83062C187.971 7.90386 188.129 8.05599 188.264 8.26447C188.4 8.50111 188.462 8.73776 188.462 8.98567C188.462 9.335 188.36 9.62236 188.129 9.8421C187.921 10.0844 187.583 10.2365 187.121 10.3041C187.295 10.383 187.414 10.4675 187.498 10.5351C187.684 10.7042 187.859 10.9126 188.017 11.1606L188.85 12.4677H188.067L187.431 11.4761C187.245 11.2056 187.087 10.969 186.969 10.8225C186.839 10.6647 186.749 10.5689 186.647 10.4844C186.557 10.4281 186.461 10.4055 186.366 10.3717C186.292 10.3548 186.168 10.3436 186.005 10.3436H185.284V12.4677H184.653L184.664 12.4621ZM185.295 9.80266H186.647C186.929 9.80266 187.16 9.78012 187.318 9.70124C187.481 9.66743 187.605 9.54911 187.69 9.42515C187.786 9.28429 187.819 9.14343 187.819 8.98567C187.819 8.76593 187.74 8.58563 187.571 8.43913C187.408 8.29264 187.149 8.22502 186.805 8.22502H185.295V9.80266Z"/>
</mask>
<path d="M184.664 12.4621V7.67285H186.766C187.194 7.67285 187.515 7.7292 187.74 7.83062C187.971 7.90386 188.129 8.05599 188.264 8.26447C188.4 8.50111 188.462 8.73776 188.462 8.98567C188.462 9.335 188.36 9.62236 188.129 9.8421C187.921 10.0844 187.583 10.2365 187.121 10.3041C187.295 10.383 187.414 10.4675 187.498 10.5351C187.684 10.7042 187.859 10.9126 188.017 11.1606L188.85 12.4677H188.067L187.431 11.4761C187.245 11.2056 187.087 10.969 186.969 10.8225C186.839 10.6647 186.749 10.5689 186.647 10.4844C186.557 10.4281 186.461 10.4055 186.366 10.3717C186.292 10.3548 186.168 10.3436 186.005 10.3436H185.284V12.4677H184.653L184.664 12.4621ZM185.295 9.80266H186.647C186.929 9.80266 187.16 9.78012 187.318 9.70124C187.481 9.66743 187.605 9.54911 187.69 9.42515C187.786 9.28429 187.819 9.14343 187.819 8.98567C187.819 8.76593 187.74 8.58563 187.571 8.43913C187.408 8.29264 187.149 8.22502 186.805 8.22502H185.295V9.80266Z" fill="white"/>
<path d="M184.664 12.4621L185.112 13.3564L185.664 13.08V12.4621H184.664ZM184.664 7.67285V6.67285H183.664V7.67285H184.664ZM187.74 7.83062L187.33 8.74254L187.383 8.76632L187.438 8.78385L187.74 7.83062ZM188.264 8.26447L189.133 7.76833L189.119 7.74389L189.103 7.72027L188.264 8.26447ZM188.129 9.8421L187.44 9.11754L187.404 9.15198L187.371 9.18986L188.129 9.8421ZM187.121 10.3041L186.976 9.31466L183.596 9.80935L186.709 11.2155L187.121 10.3041ZM187.498 10.5351L188.171 9.79519L188.148 9.77397L188.123 9.75427L187.498 10.5351ZM188.017 11.1606L187.173 11.6974L187.174 11.6984L188.017 11.1606ZM188.85 12.4677V13.4677H190.675L189.694 11.9299L188.85 12.4677ZM188.067 12.4677L187.226 13.008L187.521 13.4677H188.067V12.4677ZM187.431 11.4761L188.272 10.9358L188.264 10.9225L188.255 10.9096L187.431 11.4761ZM186.969 10.8225L187.747 10.1941L187.741 10.1878L186.969 10.8225ZM186.647 10.4844L187.288 9.7162L187.235 9.67256L187.177 9.63643L186.647 10.4844ZM186.366 10.3717L186.699 9.42875L186.645 9.41001L186.591 9.39735L186.366 10.3717ZM185.284 10.3436V9.34356H184.284V10.3436H185.284ZM185.284 12.4677V13.4677H186.284V12.4677H185.284ZM184.653 12.4677L184.205 11.5734L184.653 13.4677V12.4677ZM185.295 9.80266H184.295V10.8027H185.295V9.80266ZM187.318 9.70124L187.115 8.72198L186.987 8.74843L186.871 8.80681L187.318 9.70124ZM187.69 9.42515L188.516 9.98849L188.517 9.98746L187.69 9.42515ZM187.571 8.43913L186.904 9.1837L186.91 9.18931L186.917 9.19482L187.571 8.43913ZM185.295 8.22502V7.22502H184.295V8.22502H185.295ZM184.664 12.4621H185.664V7.67285H184.664H183.664V12.4621H184.664ZM184.664 7.67285V8.67285H186.766V7.67285V6.67285H184.664V7.67285ZM186.766 7.67285V8.67285C187.125 8.67285 187.286 8.72289 187.33 8.74254L187.74 7.83062L188.151 6.91869C187.744 6.7355 187.263 6.67285 186.766 6.67285V7.67285ZM187.74 7.83062L187.438 8.78385C187.431 8.78168 187.421 8.77763 187.41 8.77127C187.399 8.76497 187.391 8.75886 187.387 8.7552C187.383 8.75184 187.384 8.75257 187.391 8.76069C187.398 8.76908 187.41 8.78408 187.426 8.80866L188.264 8.26447L189.103 7.72027C188.891 7.39292 188.567 7.04376 188.043 6.87738L187.74 7.83062ZM188.264 8.26447L187.396 8.7606C187.448 8.85182 187.462 8.9182 187.462 8.98567H188.462H189.462C189.462 8.55731 189.351 8.1504 189.133 7.76833L188.264 8.26447ZM188.462 8.98567H187.462C187.462 9.06437 187.45 9.09956 187.447 9.10783C187.446 9.11194 187.445 9.11263 187.445 9.11188C187.446 9.11111 187.445 9.11293 187.44 9.11754L188.129 9.8421L188.818 10.5667C189.291 10.1176 189.462 9.54395 189.462 8.98567H188.462ZM188.129 9.8421L187.371 9.18986C187.382 9.17691 187.316 9.26496 186.976 9.31466L187.121 10.3041L187.265 11.2936C187.85 11.2081 188.459 10.9919 188.887 10.4943L188.129 9.8421ZM187.121 10.3041L186.709 11.2155C186.751 11.2344 186.782 11.2522 186.806 11.2675C186.83 11.2828 186.851 11.2983 186.874 11.316L187.498 10.5351L188.123 9.75427C187.992 9.64988 187.803 9.51494 187.532 9.39275L187.121 10.3041ZM187.498 10.5351L186.826 11.2751C186.939 11.3786 187.058 11.517 187.173 11.6974L188.017 11.1606L188.86 10.6237C188.66 10.3083 188.429 10.0297 188.171 9.79519L187.498 10.5351ZM188.017 11.1606L187.174 11.6984L188.007 13.0055L188.85 12.4677L189.694 11.9299L188.86 10.6227L188.017 11.1606ZM188.85 12.4677V11.4677H188.067V12.4677V13.4677H188.85V12.4677ZM188.067 12.4677L188.909 11.9275L188.272 10.9358L187.431 11.4761L186.589 12.0164L187.226 13.008L188.067 12.4677ZM187.431 11.4761L188.255 10.9096C188.089 10.669 187.897 10.3802 187.747 10.1942L186.969 10.8225L186.191 11.4508C186.277 11.5578 186.4 11.7422 186.607 12.0426L187.431 11.4761ZM186.969 10.8225L187.741 10.1878C187.594 10.0083 187.458 9.85834 187.288 9.7162L186.647 10.4844L186.007 11.2526C186.039 11.2795 186.084 11.3212 186.196 11.4572L186.969 10.8225ZM186.647 10.4844L187.177 9.63643C187.048 9.55557 186.928 9.50762 186.846 9.47821C186.806 9.46398 186.769 9.45188 186.746 9.44457C186.719 9.43587 186.708 9.43218 186.699 9.42875L186.366 10.3717L186.033 11.3147C186.071 11.3282 186.108 11.34 186.129 11.3468C186.154 11.355 186.164 11.3584 186.171 11.3611C186.184 11.3654 186.157 11.3569 186.117 11.3324L186.647 10.4844ZM186.366 10.3717L186.591 9.39735C186.407 9.35509 186.195 9.34356 186.005 9.34356V10.3436V11.3436C186.065 11.3436 186.109 11.3457 186.138 11.348C186.152 11.3492 186.16 11.3502 186.162 11.3505C186.166 11.3509 186.157 11.35 186.141 11.3461L186.366 10.3717ZM186.005 10.3436V9.34356H185.284V10.3436V11.3436H186.005V10.3436ZM185.284 10.3436H184.284V12.4677H185.284H186.284V10.3436H185.284ZM185.284 12.4677V11.4677H184.653V12.4677V13.4677H185.284V12.4677ZM184.653 12.4677L185.1 13.3621L185.112 13.3564L184.664 12.4621L184.217 11.5678L184.205 11.5734L184.653 12.4677ZM185.295 9.80266V10.8027H186.647V9.80266V8.80266H185.295V9.80266ZM186.647 9.80266V10.8027C186.928 10.8027 187.376 10.7905 187.765 10.5957L187.318 9.70124L186.871 8.80681C186.901 8.7918 186.92 8.78642 186.922 8.78585C186.924 8.78524 186.916 8.7877 186.893 8.79085C186.844 8.79758 186.766 8.80266 186.647 8.80266V9.80266ZM187.318 9.70124L187.521 10.6805C188.043 10.5723 188.36 10.217 188.516 9.98849L187.69 9.42515L186.864 8.86182C186.864 8.86151 186.877 8.84139 186.911 8.8144C186.947 8.78554 187.016 8.74258 187.115 8.72198L187.318 9.70124ZM187.69 9.42515L188.517 9.98746C188.743 9.65403 188.819 9.30902 188.819 8.98567H187.819H186.819C186.819 8.99232 186.819 8.97328 186.828 8.94072C186.838 8.90599 186.852 8.8785 186.863 8.86284L187.69 9.42515ZM187.819 8.98567H188.819C188.819 8.48449 188.621 8.02543 188.226 7.68344L187.571 8.43913L186.917 9.19482C186.903 9.18306 186.872 9.15011 186.847 9.09501C186.822 9.04063 186.819 8.99814 186.819 8.98567H187.819ZM187.571 8.43913L188.239 7.69456C187.802 7.30276 187.239 7.22502 186.805 7.22502V8.22502V9.22502C186.859 9.22502 186.901 9.22769 186.933 9.23136C186.965 9.23504 186.984 9.23935 186.991 9.24142C187.007 9.24576 186.963 9.2368 186.904 9.1837L187.571 8.43913ZM186.805 8.22502V7.22502H185.295V8.22502V9.22502H186.805V8.22502ZM185.295 8.22502H184.295V9.80266H185.295H186.295V8.22502H185.295Z" fill="white" mask="url(#path-9-inside-1_195_3253)"/>
<path d="M190 9.89267C190 11.8027 188.445 13.3804 186.54 13.3804C184.636 13.3804 183.064 11.8084 183.064 9.89267C183.064 7.97697 184.619 6.42188 186.54 6.42188C188.462 6.42188 190 7.9657 190 9.89267Z" fill="white" stroke="white" stroke-width="1.01"/>
</svg>
