<svg width="74" height="73" viewBox="0 0 74 73" fill="none" xmlns="http://www.w3.org/2000/svg">
<path d="M30.1126 35.65L34.4969 32.8623L29.7514 43.9245L31.1073 44.444V45.5527H27.9268L30.1126 35.65Z" fill="white"/>
<path d="M19.0438 38.1405L14.026 40.6874L12.1823 43.9503L13.5825 44.3431L13.0186 45.5469H9.92676L12.3343 39.1478C12.5687 39.0021 15.1094 36.7339 15.1094 36.7339L15.3248 35.2957L17.6753 32.3496L21.16 33.4584L19.0502 38.1468L19.0438 38.1405Z" fill="white"/>
<path d="M27.1538 22.7129L15.5658 25.7604C15.1667 25.7604 14.5648 25.773 14.5648 25.773C3.83211 21.1733 10.0031 15.015 10.0664 14.9453C9.99042 14.9897 1.26615 19.393 11.1308 27.5154L9.28082 29.6125L7.96933 35.5364L4.65575 38.172L1.02539 46.0663H4.47202L5.03589 44.7358L3.69906 44.4064L5.87854 40.6176C7.01263 40.0157 11.0675 38.3811 11.8658 37.8299L17.2575 31.0507L23.2891 32.9514L24.1381 29.2007L24.4295 29.8279L24.8983 35.1752L22.345 46.6048H25.9564V45.4391L24.6069 44.8689L28.9975 35.0232C28.9975 35.0232 35.669 30.7719 35.6627 30.7339C35.65 30.6769 36.6194 27.6484 37.5064 24.9177L28.1992 21.4204L27.1538 22.7192V22.7129Z" fill="white"/>
<path d="M44.9381 12.3227L44.1018 11.2646L39.5718 13.2034L37.6647 11.9046L34.6046 12.5635L31.2466 14.0587L30.3786 15.9911L31.9879 17.8918L33.217 18.2529L36.4736 14.8697L33.5908 19.5708L31.3733 18.8548L30.8602 18.1135L29.2002 20.1727L38.0068 23.3342C38.5074 21.7819 38.8875 20.6098 38.8875 20.6098L42.917 20.2614L44.1018 18.6394L39.3247 18.6521L44.8684 14.5656L44.9254 12.3354L44.9381 12.3227Z" fill="white"/>
<path d="M48.2842 12.2077V18.6448H51.3697V9.99023L48.2842 12.2077Z" fill="white"/>
<path d="M54.8799 7.45578V18.6446H57.9654V5.23828L54.8799 7.45578Z" fill="white"/>
<path d="M61.6396 2.59054V18.6452H64.7251V0.373047L61.6396 2.59054Z" fill="white"/>
<path d="M23.7393 58.1415C23.7393 61.8859 21.9527 63.7612 18.373 63.7612C14.7933 63.7612 13.165 61.9302 13.165 58.2745V51.0771H16.0541V58.3125C16.0541 60.3273 16.8651 61.341 18.4807 61.341C20.0963 61.341 20.8629 60.3653 20.8629 58.4202V51.0835H23.7457V58.1541L23.7393 58.1415Z" fill="white"/>
<path d="M35.1814 63.1029C34.25 63.5464 33.0272 63.7618 31.5257 63.7618C29.5616 63.7618 28.022 63.1979 26.8943 62.0765C25.7729 60.9551 25.209 59.4535 25.209 57.5782C25.209 55.5824 25.8426 53.9668 27.1034 52.725C28.3642 51.4832 30.0051 50.8623 32.0199 50.8623C33.268 50.8623 34.3197 51.0144 35.1751 51.3248V54.0302C34.3197 53.5296 33.344 53.2825 32.248 53.2825C31.0442 53.2825 30.0748 53.65 29.3399 54.385C28.6049 55.1199 28.2311 56.1209 28.2311 57.3754C28.2311 58.6299 28.5796 59.5422 29.2765 60.2582C29.9734 60.9741 30.9111 61.3352 32.0832 61.3352C33.2553 61.3352 34.2374 61.0691 35.1687 60.5369V63.1029H35.1814Z" fill="white"/>
<path d="M60.2266 58.1415C60.2266 61.8859 58.44 63.7612 54.8603 63.7612C51.2806 63.7612 49.6523 61.9302 49.6523 58.2745V51.0771H52.5414V58.3125C52.5414 60.3273 53.3524 61.341 54.968 61.341C56.5836 61.341 57.3502 60.3653 57.3502 58.4202V51.0835H60.233V58.1541L60.2266 58.1415Z" fill="white"/>
<path d="M61.8549 63.0644V60.283C62.3744 60.7075 62.9319 61.0243 63.5402 61.2334C64.1484 61.4424 64.7566 61.5501 65.3775 61.5501C65.7387 61.5501 66.0554 61.5185 66.3279 61.4551C66.6003 61.3917 66.8221 61.303 67.0058 61.189C67.1895 61.075 67.3226 60.9419 67.4113 60.7899C67.5 60.6378 67.5443 60.4667 67.5443 60.2893C67.5443 60.0486 67.4746 59.8268 67.3289 59.6368C67.1832 59.4467 66.9931 59.2693 66.746 59.1046C66.499 58.9398 66.2075 58.7878 65.8654 58.6357C65.5296 58.4837 65.1621 58.3316 64.7693 58.1732C63.7683 57.7677 63.027 57.2735 62.5328 56.6843C62.0449 56.1014 61.7979 55.3918 61.7979 54.5619C61.7979 53.9156 61.9309 53.3517 62.197 52.8892C62.4631 52.4204 62.8306 52.0402 63.2867 51.7361C63.7493 51.432 64.2815 51.2103 64.8897 51.0709C65.4979 50.9315 66.1378 50.8555 66.8157 50.8555C67.4937 50.8555 68.0702 50.8935 68.5834 50.9758C69.0966 51.0519 69.5718 51.1723 70.0089 51.337V53.9346C69.7935 53.7889 69.5591 53.6622 69.312 53.5545C69.0586 53.4468 68.7988 53.3517 68.5327 53.282C68.2666 53.2123 68.0005 53.1553 67.7344 53.1236C67.4683 53.092 67.2212 53.073 66.9805 53.073C66.651 53.073 66.3532 53.1046 66.0871 53.1617C65.821 53.225 65.5929 53.3074 65.4092 53.4214C65.2255 53.5291 65.0798 53.6622 64.9784 53.8142C64.877 53.9663 64.8263 54.1374 64.8263 54.3338C64.8263 54.5428 64.8833 54.7266 64.9974 54.8976C65.1114 55.0624 65.2698 55.2208 65.4789 55.3665C65.688 55.5122 65.9414 55.6579 66.2392 55.8037C66.537 55.943 66.8728 56.0951 67.2466 56.2408C67.7598 56.4499 68.2159 56.6716 68.6214 56.9061C69.0269 57.1405 69.3754 57.4066 69.6668 57.7044C69.9582 58.0021 70.18 58.3379 70.3384 58.7181C70.4904 59.0982 70.5728 59.5417 70.5728 60.0422C70.5728 60.7392 70.4398 61.3221 70.1673 61.7972C69.8949 62.2724 69.5274 62.6526 69.0649 62.944C68.6024 63.2354 68.0639 63.4445 67.4493 63.5776C66.8347 63.7106 66.1822 63.7676 65.4979 63.7676C64.8137 63.7676 64.1294 63.7106 63.4958 63.5966C62.8623 63.4825 62.311 63.3051 61.8485 63.077L61.8549 63.0644Z" fill="white"/>
<path d="M40.079 63.5458H37.1963V51.0771H40.079V63.5458Z" fill="white"/>
<path d="M41.2129 58.1288L45.6732 63.5458H49.3099L43.7345 57.02L48.1948 51.0771H44.7609L41.2319 56.2724L41.2129 58.1288Z" fill="white"/>
<path d="M9.00264 58.6931C9.3511 58.5284 9.67422 58.3257 9.95933 58.0849C10.8843 57.312 11.3469 56.2983 11.3469 55.0438C11.3469 52.3955 9.73758 51.0713 6.51271 51.0713H0.563477V63.54H3.44622V53.2254H6.01852C7.55176 53.2254 8.31838 53.8653 8.31838 55.1451C8.31838 56.425 7.55176 57.1092 6.01852 57.1092V57.1219H4.39024L9.5095 63.5336H13.1462L9.00264 58.6805V58.6931Z" fill="white"/>
<path d="M73.7279 51.8506C73.7279 52.5729 73.145 53.1368 72.391 53.1368C71.6371 53.1368 71.0479 52.5729 71.0479 51.8506C71.0479 51.1284 71.6434 50.5771 72.391 50.5771C73.1386 50.5771 73.7279 51.141 73.7279 51.8506ZM71.3836 51.8506C71.3836 52.4145 71.8145 52.8643 72.4037 52.8643C72.9929 52.8643 73.3984 52.4145 73.3984 51.857C73.3984 51.2994 72.9739 50.8306 72.3974 50.8306C71.8208 50.8306 71.39 51.2867 71.39 51.8443L71.3836 51.8506ZM72.1883 52.5159H71.8842V51.2424C72.0045 51.2171 72.1693 51.2044 72.3847 51.2044C72.6318 51.2044 72.7458 51.2424 72.8409 51.2994C72.9106 51.3564 72.9676 51.4578 72.9676 51.5782C72.9676 51.7176 72.8535 51.8253 72.6951 51.876V51.8886C72.8219 51.933 72.8915 52.028 72.9359 52.1991C72.9739 52.3955 72.9993 52.4715 73.0309 52.5159H72.7078C72.6698 52.4715 72.6445 52.3511 72.6064 52.2054C72.5811 52.066 72.5051 52.0027 72.334 52.0027H72.1883V52.5159ZM72.1946 51.7936H72.3403C72.5051 51.7936 72.6445 51.7366 72.6445 51.6099C72.6445 51.4958 72.5558 51.4135 72.3657 51.4135C72.2833 51.4135 72.2326 51.4198 72.201 51.4261V51.7936H72.1946Z" fill="white"/>
<path d="M3.90861 72.7388C3.56648 72.9036 3.11665 72.9859 2.56544 72.9859C1.84317 72.9859 1.27929 72.7769 0.861133 72.3524C0.442977 71.9279 0.240234 71.364 0.240234 70.6544C0.240234 69.9005 0.474655 69.2922 0.937161 68.8234C1.39967 68.3545 2.00156 68.1201 2.74917 68.1201C3.20535 68.1201 3.59816 68.1771 3.90861 68.2912V69.3112C3.59182 69.1212 3.23702 69.0261 2.83154 69.0261C2.38804 69.0261 2.03324 69.1655 1.7608 69.4443C1.48837 69.723 1.35532 70.0969 1.35532 70.572C1.35532 71.0472 1.48203 71.3893 1.7418 71.6618C2.00156 71.9342 2.34369 72.0673 2.77452 72.0673C3.20535 72.0673 3.56648 71.9659 3.90861 71.7631V72.7325V72.7388Z" fill="white"/>
<path d="M7.37461 72.9923C6.70302 72.9923 6.15181 72.7705 5.72732 72.3334C5.30283 71.8962 5.09375 71.326 5.09375 70.6164C5.09375 69.8751 5.30916 69.2732 5.73999 68.8107C6.17082 68.3482 6.74103 68.1201 7.45063 68.1201C8.12222 68.1201 8.66709 68.3419 9.07891 68.779C9.49073 69.2162 9.69981 69.7991 9.69981 70.515C9.69981 71.2309 9.4844 71.8518 9.05357 72.3017C8.62274 72.7515 8.0652 72.9796 7.37461 72.9796V72.9923ZM7.41895 69.0388C7.04515 69.0388 6.75371 69.1782 6.53196 69.457C6.31021 69.7357 6.2025 70.1032 6.2025 70.5657C6.2025 71.0282 6.31021 71.402 6.53196 71.6681C6.75371 71.9342 7.03881 72.0736 7.39361 72.0736C7.74841 72.0736 8.04619 71.9405 8.2616 71.6808C8.47702 71.421 8.58472 71.0535 8.58472 70.5847C8.58472 70.1159 8.48335 69.7167 8.27428 69.4443C8.0652 69.1718 7.78009 69.0388 7.41895 69.0388Z" fill="white"/>
<path d="M16.5797 72.9111H15.5343V70.098C15.5343 69.7939 15.547 69.4581 15.5724 69.0906H15.547C15.49 69.3821 15.4456 69.5848 15.4013 69.7115L14.2989 72.9111H13.4309L12.3095 69.7432C12.2778 69.6608 12.2271 69.4391 12.1637 69.0843H12.1321C12.1637 69.5468 12.1764 69.9523 12.1764 70.3071V72.9111H11.2197V68.21H12.772L13.735 70.9977C13.811 71.2194 13.8681 71.4475 13.8997 71.6693H13.9187C13.9758 71.4095 14.0391 71.1814 14.1088 70.9913L15.0718 68.21H16.5861V72.9111H16.5797Z" fill="white"/>
<path d="M23.7458 72.9111H22.7004V70.098C22.7004 69.7939 22.713 69.4581 22.7384 69.0906H22.713C22.656 69.3821 22.6117 69.5848 22.5673 69.7115L21.4649 72.9111H20.5969L19.4755 69.7432C19.4438 69.6608 19.3931 69.4391 19.3298 69.0843H19.2981C19.3298 69.5468 19.3424 69.9523 19.3424 70.3071V72.9111H18.3857V68.21H19.938L20.901 70.9977C20.977 71.2194 21.0341 71.4475 21.0657 71.6693H21.0848C21.1418 71.4095 21.2051 71.1814 21.2748 70.9913L22.2379 68.21H23.7521V72.9111H23.7458Z" fill="white"/>
<path d="M25.3422 72.7271V71.6754C25.5323 71.8338 25.7414 71.9542 25.9631 72.0365C26.1849 72.1189 26.413 72.1569 26.6411 72.1569C26.7741 72.1569 26.8882 72.1442 26.9895 72.1189C27.0909 72.0936 27.1733 72.0619 27.2366 72.0175C27.3063 71.9732 27.3507 71.9225 27.3887 71.8655C27.4267 71.8085 27.4394 71.7451 27.4394 71.6754C27.4394 71.5867 27.414 71.5043 27.3633 71.4283C27.3127 71.3523 27.2366 71.2889 27.1479 71.2256C27.0592 71.1622 26.9515 71.1052 26.8248 71.0482C26.6981 70.9911 26.565 70.9341 26.4193 70.8771C26.0518 70.725 25.7794 70.535 25.5957 70.3132C25.4119 70.0915 25.3232 69.8254 25.3232 69.5149C25.3232 69.2678 25.3739 69.0588 25.469 68.8814C25.564 68.704 25.7034 68.5582 25.8681 68.4442C26.0392 68.3301 26.2356 68.2478 26.4573 68.1908C26.6791 68.1337 26.9135 68.1084 27.1669 68.1084C27.4204 68.1084 27.6294 68.1211 27.8195 68.1527C28.0096 68.1844 28.1806 68.2288 28.3454 68.2858V69.2678C28.2693 69.2108 28.1806 69.1665 28.0856 69.1221C27.9906 69.0778 27.8955 69.0461 27.8005 69.0207C27.7055 68.9954 27.6041 68.9701 27.5091 68.9574C27.414 68.9447 27.319 68.9384 27.2303 68.9384C27.1099 68.9384 27.0022 68.951 26.9008 68.9701C26.7995 68.9891 26.7171 69.0271 26.6537 69.0651C26.5904 69.1031 26.5334 69.1538 26.4953 69.2171C26.4573 69.2805 26.4383 69.3375 26.4383 69.4136C26.4383 69.4896 26.4573 69.5656 26.5017 69.6226C26.546 69.6797 26.6031 69.743 26.6791 69.8C26.7551 69.8571 26.8501 69.9077 26.9579 69.9648C27.0656 70.0218 27.1923 70.0725 27.3317 70.1295C27.5217 70.2055 27.6865 70.2942 27.8385 70.3829C27.9906 70.4716 28.1173 70.573 28.225 70.6807C28.3327 70.7884 28.4151 70.9215 28.4721 71.0608C28.5291 71.2002 28.5545 71.3713 28.5545 71.5614C28.5545 71.8211 28.5038 72.0429 28.4024 72.2203C28.301 72.3977 28.168 72.5434 27.9969 72.6511C27.8258 72.7588 27.6294 72.8412 27.4014 72.8919C27.1733 72.9425 26.9388 72.9616 26.6854 72.9616C26.432 72.9616 26.1786 72.9425 25.9505 72.8982C25.7161 72.8538 25.5133 72.7905 25.3422 72.7018V72.7271Z" fill="white"/>
<path d="M33.433 72.7388C33.0909 72.9036 32.6411 72.9859 32.0899 72.9859C31.3676 72.9859 30.8037 72.7769 30.3855 72.3524C29.9674 71.9279 29.7646 71.364 29.7646 70.6544C29.7646 69.9005 29.9991 69.2922 30.4616 68.8234C30.9241 68.3545 31.526 68.1201 32.2736 68.1201C32.7298 68.1201 33.1226 68.1771 33.433 68.2912V69.3112C33.1162 69.1212 32.7614 69.0261 32.356 69.0261C31.9125 69.0261 31.5577 69.1655 31.2852 69.4443C31.0128 69.723 30.8797 70.0969 30.8797 70.572C30.8797 71.0472 31.0064 71.3893 31.2662 71.6618C31.526 71.9342 31.8681 72.0673 32.2989 72.0673C32.7298 72.0673 33.0909 71.9659 33.433 71.7631V72.7325V72.7388Z" fill="white"/>
<path d="M36.899 72.9923C36.2274 72.9923 35.6762 72.7705 35.2517 72.3334C34.8272 71.8962 34.6182 71.326 34.6182 70.6164C34.6182 69.8751 34.8336 69.2732 35.2644 68.8107C35.6952 68.3482 36.2654 68.1201 36.975 68.1201C37.6466 68.1201 38.1915 68.3419 38.6033 68.779C39.0151 69.2162 39.2242 69.7991 39.2242 70.515C39.2242 71.2309 39.0088 71.8518 38.578 72.3017C38.1472 72.7515 37.5896 72.9796 36.899 72.9796V72.9923ZM36.9434 69.0388C36.5696 69.0388 36.2781 69.1782 36.0564 69.457C35.8346 69.7357 35.7269 70.1032 35.7269 70.5657C35.7269 71.0282 35.8346 71.402 36.0564 71.6681C36.2781 71.9342 36.5632 72.0736 36.918 72.0736C37.2728 72.0736 37.5706 71.9405 37.786 71.6808C38.0014 71.421 38.1091 71.0535 38.1091 70.5847C38.1091 70.1159 38.0078 69.7167 37.7987 69.4443C37.5896 69.1718 37.3045 69.0388 36.9434 69.0388Z" fill="white"/>
<path d="M41.8022 71.2891V72.9111H40.7441V68.21H42.4041C43.5889 68.21 44.1844 68.7105 44.1844 69.7115C44.1844 70.1867 44.0134 70.5668 43.6776 70.8583C43.3354 71.1497 42.8856 71.2954 42.3154 71.2954H41.8085L41.8022 71.2891ZM41.8022 69.0209V70.4845H42.2204C42.7842 70.4845 43.0693 70.2374 43.0693 69.7432C43.0693 69.249 42.7842 69.0209 42.2204 69.0209H41.8022Z" fill="white"/>
<path d="M48.4297 72.9111H45.6104V68.21H48.322V69.0716H46.6684V70.117H48.208V70.9787H46.6684V72.0557H48.4297V72.9174V72.9111Z" fill="white"/>
</svg>
