<svg width="84" height="16" viewBox="0 0 84 16" fill="none" xmlns="http://www.w3.org/2000/svg">
<g clip-path="url(#clip0_195_3623)">
<path d="M40.839 10.3927L38.6966 9.12948L38.5436 9.37828C38.0654 10.1439 37.3959 10.5266 36.5734 10.5266C35.1579 10.5266 34.1058 9.45485 34.1058 8.05771C34.1058 6.64148 35.177 5.58883 36.5734 5.58883C37.415 5.58883 38.0271 5.95245 38.5436 6.73713L38.6966 6.98593L40.839 5.72279L40.6477 5.45486C39.6148 3.96204 38.2949 3.25391 36.5542 3.25391C33.2833 3.25391 31.5234 5.74193 31.5234 8.07685C31.5234 10.4118 33.2833 12.8998 36.5542 12.8998C38.2184 12.8998 39.7869 12.0577 40.6477 10.6798L40.839 10.3927Z" fill="#C01818"/>
<path d="M40.7246 12.8613H43.6704L44.5503 10.6794H48.969L49.8489 12.8613H52.8138L47.5343 0.0957031H44.8946L45.6023 1.79905L40.7246 12.8613ZM46.7883 5.12919L47.9743 8.134H45.5641L46.7883 5.12919Z" fill="#C01818"/>
<path d="M54.0379 12.88H56.6203V7.1384H58.3035V4.72689H56.6203V3.5977C56.6203 3.1001 56.9453 2.58335 57.5577 2.58335C57.8829 2.58335 58.0929 2.64077 58.2842 2.71732L58.5714 2.83215L59.6424 0.478086L59.3365 0.344114C58.858 0.152727 58.1889 0.0761719 57.7104 0.0761719C56.5438 0.0761719 55.5682 0.458947 54.9179 1.18622C54.344 1.8178 54.0188 2.69818 54.0188 3.67426V4.70775H52.8711V7.11926H54.0188L54.0379 12.88Z" fill="#C01818"/>
<path d="M19.3389 0.0185547V12.8607H22.1507V5.51138L24.8861 7.5401L27.6023 5.51138V12.8607H30.4142L30.4333 0.0185547L24.8861 4.20994L19.3389 0.0185547Z" fill="#C01818"/>
<path d="M64.1566 3.27246C60.905 3.27246 59.145 5.74135 59.145 8.07626C59.145 10.4112 60.905 12.8801 64.1566 12.8801C65.6488 12.861 67.045 12.1911 68.1353 10.9471L66.0313 9.79877C65.4955 10.3538 64.8264 10.6409 64.0993 10.6409C63.0283 10.6409 62.0907 9.93277 61.8421 8.99495H68.8816V8.36335C68.8816 4.86098 66.1079 3.27246 64.1566 3.27246ZM61.8994 6.88969C62.2439 6.00929 62.9704 5.5117 63.908 5.5117C64.8644 5.5117 65.6102 6.00929 65.9927 6.90883L61.8994 6.88969Z" fill="#C01818"/>
<path d="M74.7343 3.27246C71.4827 3.27246 69.7227 5.74135 69.7227 8.07626C69.7227 10.4112 71.4827 12.8801 74.7343 12.8801C76.2264 12.861 77.6232 12.1911 78.7135 10.9471L76.609 9.79877C76.0737 10.3538 75.404 10.6409 74.677 10.6409C73.606 10.6409 72.6689 9.93277 72.4197 8.99495H79.4593V8.36335C79.4593 4.86098 76.7049 3.27246 74.7343 3.27246ZM72.4776 6.88969C72.8216 6.00929 73.5486 5.49256 74.4857 5.5117C75.442 5.5117 76.1884 6.00929 76.5709 6.90883L72.4776 6.88969Z" fill="#C01818"/>
<path fill-rule="evenodd" clip-rule="evenodd" d="M6.81081 3.21255L0 0V12.7847L6.80497 16L13.6216 12.7847V0L6.81081 3.21255ZM6.81081 6.35132L6.81666 6.35406V6.34852L10.8126 4.45933V10.9665L6.81081 12.8585L2.80907 10.9665V4.45933L6.80497 6.34852V6.35406L6.81081 6.35132Z" fill="#C01818"/>
<path d="M81.1009 3.37891V3.74894H80.4868V5.66462H80.0243V3.74894H79.4102V3.37891H81.1009Z" fill="#C01818"/>
<path d="M83.9506 3.37891V5.66462H83.4886V4.17792L82.8711 5.66462H82.5209L81.9 4.17792V5.66462H81.438V3.37891H81.963L82.6957 5.07845L83.429 3.37891H83.9506Z" fill="#C01818"/>
</g>
<defs>
<clipPath id="clip0_195_3623">
<rect width="84" height="16" fill="white"/>
</clipPath>
</defs>
</svg>
