<svg width="86" height="10" viewBox="0 0 86 10" fill="none" xmlns="http://www.w3.org/2000/svg">
<g clip-path="url(#clip0_195_3571)">
<path d="M32.7582 1.14948V4.77588L36.3106 0.448455C36.3544 0.39223 36.4053 0.343035 36.4638 0.300867C36.5183 0.255187 36.5783 0.216534 36.6439 0.184908C36.7097 0.153283 36.7771 0.128685 36.8463 0.111115C36.9155 0.0935455 36.9866 0.0847605 37.0595 0.0847605H39.0705L35.1575 4.85493L39.1143 9.85175H36.9609C36.8846 9.84825 36.8099 9.8377 36.737 9.82013C36.6641 9.80258 36.593 9.7762 36.5238 9.74108C36.4583 9.70945 36.3961 9.66903 36.3379 9.61985C36.2834 9.57065 36.2341 9.51618 36.1903 9.45645L32.7582 4.9867V9.8465H31.7089C31.1569 9.8465 30.7144 9.36683 30.7144 8.7765V0.0742188H31.7637C32.3156 0.0742188 32.7582 0.553872 32.7582 1.14421V1.14948Z" fill="#FF6B00"/>
<path d="M21.5408 1.77887H25.1096C25.1096 1.77887 25.9184 1.75251 26.3721 1.96335C26.7326 2.12675 26.935 2.47463 26.935 3.05444C26.935 3.51299 26.8202 3.82399 26.5798 3.99264C26.6453 4.04537 26.7072 4.09982 26.7654 4.15604C26.8239 4.21579 26.8802 4.27552 26.935 4.33527C26.9896 4.39499 27.0425 4.45649 27.0934 4.51974C27.1409 4.58299 27.1881 4.64799 27.2355 4.71477C27.3394 4.85709 27.487 5.10482 27.6836 5.45269C27.7001 5.47379 27.7164 5.48959 27.7274 5.51067C27.8113 5.46852 27.8913 5.42107 27.9678 5.36837C28.0444 5.31917 28.1173 5.26294 28.1865 5.19969C28.2557 5.13997 28.3213 5.07494 28.3832 5.00467C28.4453 4.93789 28.5017 4.86587 28.5525 4.78857C28.6328 4.65854 28.7038 4.52149 28.7657 4.37742C28.8278 4.23687 28.8787 4.09104 28.9188 3.93994C28.9589 3.79237 28.988 3.64127 29.0064 3.48664C29.0208 3.33554 29.0245 3.18269 29.0171 3.02807C29.0171 2.96482 28.9571 2.07404 28.7822 1.66818C28.7494 1.59087 28.7148 1.51532 28.6784 1.44153C28.6383 1.36774 28.5945 1.2957 28.5473 1.22542C28.4998 1.15514 28.4505 1.08838 28.3997 1.02513C28.3449 0.958364 28.2885 0.895111 28.2303 0.835376C28.1647 0.772124 28.0955 0.710631 28.0226 0.650894C27.9497 0.594671 27.8732 0.543719 27.793 0.498036C27.7127 0.448841 27.6291 0.406674 27.5415 0.371534C27.4579 0.336396 27.3703 0.306526 27.2793 0.281929C27.1409 0.243276 27.0024 0.209894 26.864 0.181782C26.7256 0.15367 26.5871 0.13083 26.4487 0.11326C26.3066 0.0956904 26.1662 0.0833917 26.0277 0.0763637C25.8856 0.0693359 25.7435 0.0675789 25.6014 0.0710929H20.5352V0.756311C20.5297 0.888084 20.5461 1.01986 20.5953 1.14109C20.6445 1.26759 20.7155 1.37828 20.8084 1.47316C20.9014 1.56803 21.0161 1.6471 21.1418 1.6998C21.2621 1.75251 21.3987 1.77887 21.5353 1.77887H21.5408Z" fill="#FF6B00"/>
<path d="M26.6355 5.17176C26.1328 4.43383 25.6245 4.27571 25.313 4.25463C25.0015 4.23353 22.5968 4.25463 22.5968 4.25463V3.59048C22.5968 3.00016 22.1432 2.52051 21.5967 2.52051H20.5474V8.77706C20.5474 9.36741 20.9955 9.84706 21.5475 9.84706H22.5968V5.96768H25.0179L27.0183 9.58351C27.04 9.62218 27.0655 9.65731 27.0946 9.68893C27.1239 9.72056 27.1586 9.74868 27.1984 9.77328C27.2349 9.79436 27.275 9.81193 27.3188 9.82598C27.3589 9.84003 27.4027 9.84706 27.4499 9.84706H29.4774L27.0783 5.89916C27.0728 5.87806 26.7286 5.30353 26.6355 5.17176Z" fill="#FF6B00"/>
<path d="M78.3345 2.54452C78.389 2.3864 78.4546 2.23354 78.5311 2.08595C78.6077 1.93837 78.6932 1.79605 78.7881 1.65901C78.8864 1.51845 78.9921 1.38668 79.1051 1.26369C79.2215 1.1407 79.3455 1.0265 79.4766 0.921084C79.5823 0.833234 79.6916 0.754172 79.8046 0.683892C79.9176 0.610099 80.0359 0.543334 80.1599 0.483597C80.28 0.427374 80.4058 0.376422 80.5369 0.330742C80.6644 0.288574 80.7955 0.253434 80.9305 0.225322C81.0616 0.200725 81.1927 0.179641 81.3238 0.162072C81.4588 0.144502 81.5917 0.128689 81.7228 0.114633C81.8576 0.104091 81.9924 0.0953066 82.1271 0.0882786C82.2585 0.0847648 82.3914 0.0830078 82.5262 0.0830078H84.9966C85.5485 0.0830078 85.9966 0.562662 85.9966 1.153V1.79078H82.619C82.619 1.79078 81.9087 1.79078 81.5369 1.82241C81.5369 1.82241 80.4276 1.91201 79.6132 2.33896C78.8264 2.75009 78.4273 3.09269 78.001 3.67249C78.001 3.66722 78.2031 2.92402 78.3345 2.54452Z" fill="#FF6B00"/>
<path d="M73.9403 9.8438C72.4592 9.8438 71.3498 9.45902 70.612 8.7369C70.0273 8.1571 69.6445 7.32957 69.4644 6.24902C69.4806 6.2754 69.5079 6.3281 69.5299 6.35445C70.1857 7.26632 71.4371 7.98317 73.2845 8.11495C73.5633 8.13602 74.6233 8.1413 74.842 8.1413H76.3504C76.9023 8.1413 77.3507 8.62095 77.3507 9.2113V9.8438H73.9403Z" fill="#FF6B00"/>
<path d="M13.4232 4.33664L11.6361 9.18059C11.6033 9.27547 11.5596 9.36509 11.4995 9.44414C11.4394 9.52322 11.3683 9.59702 11.2863 9.65499C11.2044 9.71297 11.1114 9.76039 11.0131 9.79729C10.9202 9.82892 10.8163 9.84474 10.7125 9.85002H9.34619L13.0735 0.0830078H15.5328C15.2322 0.351824 14.8223 0.736602 14.0517 2.64467C13.8714 3.11904 13.7293 3.47747 13.4232 4.33664Z" fill="#FF6B00"/>
<path d="M19.0385 8.33683L15.8304 0.804688C15.7175 0.97687 15.6082 1.15257 15.5025 1.33178C15.3969 1.51099 15.2985 1.69196 15.2074 1.87468C15.1127 2.05741 15.0252 2.24365 14.9451 2.4334C14.8613 2.61964 14.7848 2.80939 14.7155 3.00266L15.8086 5.76461H14.3712C14.2564 5.76989 14.1472 5.79096 14.0433 5.82786C13.9395 5.87003 13.8411 5.92274 13.7537 5.99126C13.6717 6.05978 13.5952 6.14413 13.535 6.23374C13.4804 6.32334 13.4367 6.42349 13.4148 6.52891L13.0596 7.51983H16.4917L17.3935 9.84959H18.1313C18.8581 9.84959 19.3446 9.04313 19.0385 8.33683Z" fill="#FF6B00"/>
<path d="M42.7402 2.54158V9.84706H43.8661C44.4125 9.84706 44.8606 9.36741 44.8606 8.77706V2.52051H42.7402V2.54158Z" fill="#FF6B00"/>
<path d="M40.6009 0.0908203C40.0487 0.0908203 39.6006 0.570473 39.6006 1.16082V1.78278H47.0388C47.5852 1.78278 48.0336 1.31367 48.0336 0.718058V0.0908203H40.6009Z" fill="#FF6B00"/>
<path d="M2.04399 1.78551C2.04399 1.78551 4.32845 1.78551 4.43228 1.78551C4.53613 1.78551 4.94054 1.81187 5.15371 1.83822C7.76061 2.12812 8.64051 3.24554 9.0176 3.78847C8.84271 2.64994 8.41644 1.78024 7.82073 1.18463C7.0811 0.460757 5.96436 0.0935496 4.47056 0.0830078H0V1.78551H2.04399Z" fill="#FF6B00"/>
<path d="M63.1165 4.33663L61.3349 9.18061C61.3022 9.27548 61.2584 9.36508 61.1983 9.44416C61.1383 9.52321 61.0617 9.59701 60.9797 9.65498C60.8976 9.71296 60.8103 9.76041 60.712 9.79731C60.6136 9.82893 60.5098 9.84473 60.4112 9.85001H59.0449L62.7668 0.0830078H65.2262C64.9257 0.351826 64.5211 0.736601 63.745 2.64468C63.5701 3.11906 63.4008 3.52491 63.1165 4.33663Z" fill="#FF6B00"/>
<path d="M68.7342 8.33683L65.5318 0.804688C65.4151 0.97687 65.3058 1.15257 65.2038 1.33178C65.0981 1.51099 64.998 1.69196 64.903 1.87468C64.8121 2.05741 64.7248 2.24365 64.6409 2.4334C64.5606 2.61964 64.4859 2.80939 64.4167 3.00266L65.5098 5.76461H64.0944C63.9796 5.76989 63.8703 5.79096 63.7664 5.82786C63.6626 5.87003 63.5643 5.92274 63.4822 5.99126C63.3949 6.05978 63.3183 6.14413 63.2635 6.23374C63.2035 6.32334 63.1597 6.42349 63.138 6.52891L62.8647 7.51983H66.193L67.0947 9.84959H67.827C68.5539 9.84959 69.0402 9.04313 68.7342 8.33683Z" fill="#FF6B00"/>
<path d="M50.2235 1.77887H53.7978C53.7978 1.77887 54.6066 1.75251 55.0602 1.95808C55.421 2.12148 55.6232 2.46936 55.6232 3.04917C55.6287 3.51299 55.5083 3.81872 55.2734 3.98739C55.3353 4.04009 55.3953 4.09632 55.4538 4.15604C55.512 4.21227 55.5686 4.27027 55.6232 4.32999C55.6777 4.38974 55.7307 4.45122 55.7815 4.51447C55.829 4.57772 55.8764 4.64274 55.9236 4.70949C56.0275 4.86237 56.1751 5.10482 56.372 5.44742C56.3827 5.46852 56.4048 5.48432 56.4155 5.50542C56.4994 5.46324 56.5796 5.41757 56.6559 5.36837C56.7325 5.31564 56.8054 5.25767 56.8746 5.19442C56.9438 5.13469 57.0094 5.07144 57.0715 5.00467C57.1297 4.93439 57.1843 4.86059 57.2354 4.78329C57.3193 4.65327 57.3904 4.51624 57.4486 4.37217C57.5104 4.23159 57.5616 4.08754 57.6017 3.93994C57.6379 3.78884 57.6654 3.63774 57.6835 3.48664C57.6982 3.33204 57.7018 3.17742 57.6945 3.02282C57.6945 2.95957 57.6345 2.06877 57.4596 1.66291C57.4268 1.5856 57.3919 1.51005 57.3557 1.43626C57.3156 1.36247 57.2718 1.29043 57.2244 1.22015C57.1809 1.15339 57.1316 1.08662 57.0768 1.01986C57.0222 0.956606 56.9659 0.895114 56.9074 0.835376C56.8418 0.768611 56.7726 0.707116 56.6997 0.650894C56.6268 0.594671 56.5505 0.541961 56.4703 0.492766C56.3937 0.447084 56.3117 0.404919 56.2244 0.366264C56.1368 0.331124 56.0495 0.301256 55.9619 0.276659C55.8235 0.238005 55.685 0.204623 55.5466 0.176511C55.4082 0.1484 55.2697 0.127316 55.1313 0.11326C54.9892 0.0956904 54.8489 0.0833917 54.7105 0.0763637C54.5683 0.0693359 54.4262 0.0675789 54.2841 0.0710929H49.2235V0.751041C49.218 0.882814 49.2398 1.01459 49.2835 1.13582C49.3326 1.26232 49.4036 1.37301 49.4967 1.46789C49.595 1.56276 49.7044 1.64183 49.83 1.69453C49.9558 1.74724 50.0869 1.7736 50.2235 1.77887Z" fill="#FF6B00"/>
<path d="M55.3196 5.16688C54.8167 4.42895 54.3086 4.27083 53.9971 4.24975C53.6801 4.22868 51.2808 4.24975 51.2808 4.24975V3.5856C51.2808 2.99527 50.8327 2.51562 50.2807 2.51562H49.2314V8.7722C49.2314 9.36253 49.685 9.84218 50.2315 9.84218H51.2808V5.96808H53.7019L55.7077 9.5839C55.7258 9.62258 55.7496 9.6577 55.7787 9.68933C55.8115 9.72095 55.8461 9.74908 55.8825 9.77368C55.919 9.79475 55.9591 9.81233 56.0026 9.82638C56.0464 9.83693 56.0902 9.84395 56.134 9.84745H58.1615L55.7677 5.89955C55.7567 5.8732 55.4124 5.29865 55.3196 5.16688Z" fill="#FF6B00"/>
<path d="M7.99561 3.72226C8.02839 3.75741 8.06119 3.79253 8.09399 3.82768C8.12676 3.86633 8.15773 3.90323 8.18688 3.93838C8.21604 3.97703 8.2452 4.01568 8.27433 4.05433C8.30348 4.09298 8.3308 4.13163 8.35632 4.17028C8.46198 4.32138 8.55488 4.47776 8.63503 4.63941C8.71518 4.79753 8.78259 4.96268 8.83726 5.13486C8.8919 5.30706 8.93199 5.48098 8.95748 5.65668C8.98663 5.83591 9.00121 6.01336 9.00121 6.18906C9.00121 6.66871 8.90283 7.14308 8.71154 7.58583C8.52027 8.02333 8.24155 8.42391 7.89176 8.76653C7.54199 9.10386 7.12117 9.37268 6.66757 9.55188C6.20849 9.73638 5.71661 9.83126 5.21928 9.83126L4.53065 9.84706H1.00013C0.448147 9.84706 0 9.36741 0 8.77706V2.52051H2.05492V8.14456H4.43776C4.52155 8.14456 4.60535 8.14456 4.68915 8.14456C4.77295 8.14106 4.85675 8.13753 4.94054 8.13401C5.02434 8.12698 5.10633 8.11821 5.18648 8.10766C5.27028 8.09713 5.35408 8.08483 5.43787 8.07076C5.51076 8.05321 5.58179 8.03036 5.65104 8.00226C5.72026 7.97413 5.78767 7.94076 5.85324 7.90211C5.91517 7.86343 5.9753 7.81953 6.03361 7.77033C6.08825 7.72113 6.13925 7.66843 6.18663 7.61221C6.24127 7.54896 6.29045 7.48393 6.33419 7.41718C6.38154 7.35041 6.42344 7.28013 6.45988 7.20633C6.4963 7.13606 6.53094 7.06226 6.56371 6.98496C6.59287 6.91116 6.61655 6.83386 6.63477 6.75303C6.65664 6.67573 6.67667 6.59666 6.69489 6.51586C6.70947 6.43503 6.72405 6.35421 6.7386 6.27338C6.75318 6.19256 6.76594 6.11173 6.77685 6.03093C6.78779 5.95011 6.79691 5.86928 6.8042 5.78846C6.81149 5.68656 6.81694 5.58291 6.82059 5.47748C6.82423 5.37558 6.82788 5.27191 6.83152 5.16648C6.83152 5.06108 6.83152 4.95741 6.83152 4.85551C6.82788 4.75008 6.82423 4.64643 6.82059 4.54453C6.81694 4.42856 6.80965 4.31261 6.79872 4.19666C6.78779 4.08068 6.77504 3.96473 6.76046 3.84876C6.74589 3.73281 6.72766 3.61861 6.70582 3.50616C6.68396 3.39021 6.66028 3.27598 6.63477 3.16356C6.62748 3.13896 6.62019 3.11436 6.6129 3.08976C6.60561 3.06516 6.59832 3.04056 6.59103 3.01596C6.58013 2.99136 6.571 2.96853 6.56371 2.94743C6.55278 2.92283 6.54185 2.89823 6.53094 2.87366C6.66573 2.91581 6.79691 2.96326 6.92442 3.01596C7.05195 3.07218 7.17583 3.13543 7.29605 3.20571C7.41629 3.27248 7.53289 3.34803 7.64585 3.43236C7.75877 3.51318 7.86444 3.59928 7.96281 3.69063L7.99561 3.72226Z" fill="#FF6B00"/>
<path d="M73.2692 1.82943L73.4169 1.80835C73.4533 1.80483 73.4897 1.80132 73.5262 1.79781C73.5626 1.79429 73.5991 1.79254 73.6355 1.79254C73.6756 1.78902 73.7139 1.78726 73.7504 1.78726C73.7865 1.78726 73.823 1.78726 73.8594 1.78726L77.3574 1.77672V1.14421C77.3574 0.553872 76.909 0.0742188 76.3571 0.0742188H73.887C73.7666 0.0742188 73.6481 0.0777328 73.5317 0.0847605C73.4114 0.0882745 73.2931 0.0953025 73.1764 0.105844C73.0561 0.112872 72.9378 0.125171 72.8211 0.142741C72.7008 0.156797 72.5826 0.172609 72.4659 0.190179H72.4441C72.0123 0.2587 71.6025 0.401015 71.2199 0.606582C70.8426 0.817417 70.5039 1.08623 70.2196 1.40249C69.9354 1.72401 69.717 2.08771 69.5639 2.48303C69.4108 2.87308 69.3345 3.28948 69.3345 3.71115C69.3345 3.88685 69.3471 4.06255 69.3725 4.23825C69.4019 4.41393 69.4435 4.58613 69.4983 4.7548C69.5529 4.92698 69.6203 5.09213 69.7005 5.25025C69.7807 5.4119 69.8735 5.56475 69.9792 5.70883C70.657 6.65233 71.3783 6.95275 72.0943 7.17413V7.1636C72.0251 7.03358 71.963 6.90005 71.9084 6.763C71.8502 6.62598 71.8009 6.48715 71.7608 6.3466C71.7173 6.20605 71.679 6.06373 71.6463 5.91965C71.6169 5.7756 71.5951 5.62975 71.5804 5.48218C71.3455 3.6268 72.0998 1.99283 73.2692 1.82943Z" fill="#FF6B00"/>
<path d="M85.9999 5.34816C85.9999 4.75781 85.5516 4.27816 85.0051 4.27816H80.1467C80.1648 4.14463 80.1884 4.01286 80.2177 3.88286C80.2468 3.75283 80.2833 3.62458 80.3271 3.49806C80.3669 3.37156 80.4125 3.24683 80.4637 3.12383C80.5145 2.99733 80.5712 2.87433 80.633 2.75488L80.573 2.77596C80.5329 2.78651 80.4946 2.79703 80.4582 2.80758C80.4217 2.82163 80.3853 2.83393 80.3488 2.84448C80.3124 2.85853 80.2778 2.87258 80.245 2.88663C80.2085 2.90071 80.1721 2.91476 80.1357 2.92881C79.9718 2.99558 79.815 3.07113 79.6655 3.15546C79.5127 3.24331 79.3669 3.34171 79.2285 3.45063C79.0937 3.55956 78.9678 3.67728 78.8514 3.80378C78.7311 3.93381 78.6236 4.06908 78.5289 4.20963C78.4233 4.35723 78.3304 4.51008 78.2502 4.66821C78.17 4.82986 78.1026 4.99501 78.0481 5.16368C77.9933 5.33236 77.9513 5.50453 77.9222 5.68023C77.8931 5.85593 77.8784 6.03338 77.8784 6.21258C77.8839 6.56048 77.9332 6.90308 78.0426 7.23516C78.1464 7.56721 78.2992 7.88348 78.5017 8.17338C78.6983 8.46328 78.9387 8.72153 79.2174 8.94293C79.4962 9.16431 79.8077 9.34878 80.1357 9.48056C80.1939 9.50866 80.2505 9.53326 80.305 9.55436C80.3632 9.57543 80.4217 9.59651 80.4799 9.61761C80.5384 9.63518 80.5966 9.65273 80.6548 9.67031C80.7167 9.68436 80.777 9.69666 80.8352 9.70721C80.9663 9.73181 81.0995 9.75463 81.2343 9.77573C81.3654 9.79331 81.4983 9.80736 81.6331 9.81791C81.7644 9.83196 81.8973 9.84073 82.0321 9.84426C82.1669 9.85128 82.3017 9.85478 82.4364 9.85478H84.8958C85.415 9.85478 85.8468 9.42258 85.8906 8.88493C85.8906 8.84628 85.8906 8.80938 85.8906 8.77426V8.14701L82.3981 8.14173C82.3617 8.14173 82.3255 8.14173 82.2891 8.14173C82.2489 8.13823 82.2107 8.13648 82.1742 8.13648C82.1378 8.13296 82.0995 8.12946 82.0594 8.12593C82.0229 8.12593 81.9865 8.12241 81.95 8.11538L81.8024 8.09431C80.9773 7.97836 80.3543 7.12973 80.1522 5.98066H85.9944L85.9999 5.34816Z" fill="#FF6B00"/>
<path d="M32.7637 1.153V4.77412L36.3162 0.451972C36.3599 0.395749 36.409 0.344797 36.4638 0.299114C36.5183 0.253434 36.5783 0.214781 36.6439 0.183155C36.7097 0.155044 36.7771 0.132203 36.8463 0.114633C36.9192 0.0970636 36.9918 0.0882786 37.0647 0.0882786H39.0705L35.1575 4.85844L39.1143 9.85002H36.9609C36.8846 9.85002 36.8099 9.84122 36.737 9.82364C36.6641 9.80609 36.593 9.77974 36.5238 9.74459C36.4583 9.70944 36.3961 9.66904 36.3379 9.62337C36.2834 9.57417 36.2341 9.51969 36.1903 9.45997L32.7637 4.99022V9.85002H31.7144C31.1624 9.85002 30.7144 9.37037 30.7144 8.78002V0.0830078H31.7637C32.3101 0.0830078 32.7582 0.562661 32.7582 1.153H32.7637Z" fill="#FF6B00"/>
<path d="M21.5408 1.78375H25.1096C25.1096 1.78375 25.9184 1.7574 26.3721 1.96296C26.7326 2.12636 26.935 2.47951 26.935 3.0593C26.935 3.51788 26.8202 3.8236 26.5853 3.99753C26.6472 4.05025 26.7072 4.1047 26.7654 4.16093C26.8239 4.21715 26.8802 4.27513 26.935 4.33488C26.9896 4.3946 27.0425 4.4561 27.0934 4.51935C27.1445 4.58613 27.1917 4.65288 27.2355 4.71965C27.3394 4.86198 27.487 5.1097 27.6836 5.4523C27.6873 5.45933 27.691 5.4646 27.6946 5.46813C27.6983 5.47515 27.702 5.48043 27.7056 5.48393C27.7093 5.48745 27.7127 5.49273 27.7164 5.49975C27.7201 5.50325 27.7237 5.50853 27.7274 5.51555C27.8113 5.4734 27.8913 5.42595 27.9678 5.37325C28.0444 5.32053 28.1173 5.2643 28.1865 5.20458C28.2557 5.14483 28.3213 5.07983 28.3832 5.00955C28.4416 4.93928 28.4962 4.86723 28.5473 4.79345C28.6309 4.6599 28.7038 4.52288 28.7657 4.3823C28.8278 4.23825 28.8787 4.0924 28.9188 3.94483C28.9589 3.79725 28.9862 3.64615 29.0009 3.49153C29.019 3.3369 29.0245 3.18405 29.0171 3.03295C29.0171 2.9697 28.9571 2.07365 28.7767 1.66779C28.7476 1.59048 28.713 1.51493 28.6729 1.44114C28.6364 1.36735 28.5945 1.29531 28.5473 1.22503C28.4998 1.15827 28.4505 1.0915 28.3997 1.02474C28.3449 0.96149 28.2885 0.899995 28.2303 0.840257C28.1647 0.773492 28.0955 0.712 28.0226 0.655777C27.9497 0.599552 27.8732 0.546845 27.793 0.49765C27.7127 0.451967 27.6291 0.411557 27.5415 0.376417C27.4579 0.337765 27.3703 0.30614 27.2793 0.281542C27.1409 0.242888 27.0024 0.211262 26.864 0.186665C26.7256 0.158553 26.5871 0.135713 26.4487 0.118143C26.3066 0.100573 26.1644 0.0882745 26.0223 0.0812468C25.8838 0.0742188 25.7435 0.0724617 25.6014 0.0759757H20.5352V0.761195C20.5297 0.892967 20.5461 1.01947 20.5953 1.14597C20.6445 1.2672 20.7155 1.37789 20.8084 1.47804C20.9014 1.57291 21.0161 1.64671 21.1418 1.69942C21.2621 1.75213 21.3987 1.78375 21.5353 1.78375H21.5408Z" fill="#FF6B00"/>
<path d="M26.6355 5.17959C26.1328 4.44167 25.6245 4.27827 25.313 4.25717C24.9961 4.2361 22.5968 4.25717 22.5968 4.25717V3.59832C22.5968 3.00797 22.1487 2.52832 21.5967 2.52832H20.5474V8.77962C20.5474 9.36997 20.9955 9.84962 21.5475 9.84962H22.5968V5.97022H25.0179L27.0235 9.58607C27.0419 9.62472 27.0655 9.65987 27.0946 9.69149C27.1239 9.72312 27.1586 9.75122 27.1984 9.77582C27.2349 9.79692 27.275 9.81447 27.3188 9.82855C27.3625 9.83907 27.4061 9.84609 27.4499 9.84962H29.4774L27.0838 5.9017C27.0728 5.8859 26.7286 5.3061 26.6355 5.17959Z" fill="#FF6B00"/>
<path d="M78.3345 2.54979C78.389 2.39167 78.4546 2.23881 78.5311 2.09123C78.6077 1.94013 78.6932 1.79605 78.7881 1.65901C78.8864 1.52197 78.9921 1.39195 79.1051 1.26896C79.2215 1.14598 79.3455 1.03002 79.4766 0.921084C79.5823 0.836749 79.6916 0.757684 79.8046 0.683892C79.9176 0.613614 80.0359 0.548604 80.1599 0.488869C80.28 0.429132 80.4058 0.378179 80.5369 0.336012C80.6644 0.293844 80.7955 0.258704 80.9305 0.230593C81.0616 0.205996 81.1927 0.183155 81.3238 0.162072C81.4588 0.144502 81.5917 0.130446 81.7228 0.119904C81.8576 0.105848 81.9905 0.0970636 82.1219 0.0935496C82.2567 0.0865216 82.3914 0.0830078 82.5262 0.0830078H84.9966C85.5485 0.0830078 85.9966 0.562662 85.9966 1.153V1.79078H82.6245C82.6245 1.79078 81.9087 1.79078 81.5369 1.82241C81.5369 1.82241 80.4276 1.90674 79.6132 2.33369C78.8264 2.75009 78.4273 3.09269 78.001 3.67249C78.001 3.67777 78.2086 2.92402 78.3345 2.54979Z" fill="#FF6B00"/>
<path d="M73.9403 9.8438C72.4647 9.8438 71.3498 9.4643 70.612 8.7369C70.0273 8.16237 69.65 7.33485 69.4644 6.24902C69.4806 6.2754 69.5134 6.33337 69.5299 6.35445C70.1857 7.26632 71.4371 7.98845 73.2845 8.11495C73.5633 8.1413 74.6233 8.1413 74.842 8.14657H76.3504C76.9023 8.14657 77.3507 8.62622 77.3507 9.21655V9.8438H73.9403Z" fill="#FF6B00"/>
<path d="M13.4232 4.34189L11.6416 9.18587C11.6088 9.28074 11.5596 9.36509 11.4995 9.44942C11.4394 9.52849 11.3683 9.59702 11.2863 9.66027C11.2044 9.71824 11.1114 9.76567 11.0131 9.79729C10.9202 9.82892 10.8163 9.85002 10.7125 9.85002H9.34619L13.0735 0.0830078H15.5328C15.2322 0.357094 14.8223 0.736602 14.0517 2.64467C13.8714 3.12432 13.7293 3.48274 13.4232 4.34189Z" fill="#FF6B00"/>
<path d="M19.0394 8.33449L15.8368 0.807617C15.7202 0.9798 15.6091 1.1555 15.5034 1.33471C15.4014 1.51041 15.303 1.68962 15.2083 1.87234C15.1136 2.05858 15.0261 2.24482 14.946 2.43106C14.8658 2.62082 14.7893 2.81232 14.7164 3.00559L15.8094 5.76754H14.3721C14.2628 5.76754 14.148 5.79389 14.0442 5.83079C13.9404 5.86769 13.842 5.92039 13.76 5.99419C13.6726 6.06272 13.5961 6.14179 13.5414 6.23667C13.4813 6.32627 13.4376 6.42642 13.4157 6.53184L13.0659 7.51749H16.4926L17.3998 9.84724H18.1322C18.859 9.84724 19.3455 9.04079 19.0394 8.33449Z" fill="#FF6B00"/>
<path d="M42.7402 2.54607V9.8463H43.8661C44.418 9.8463 44.8606 9.36665 44.8606 8.7763V2.53027H42.7402V2.54607Z" fill="#FF6B00"/>
<path d="M40.6009 0.0908203C40.0487 0.0908203 39.6006 0.570473 39.6006 1.16082V1.78805H47.0388C47.5852 1.78805 48.0336 1.31367 48.0336 0.72333V0.0908203H40.6009Z" fill="#FF6B00"/>
<path d="M2.04399 1.79078C2.04399 1.79078 4.32845 1.79078 4.43228 1.79078C4.53613 1.79078 4.94054 1.81714 5.15371 1.83822C7.76061 2.12812 8.64051 3.25082 9.0176 3.79372C8.84271 2.65522 8.41644 1.77497 7.82073 1.18463C7.0811 0.460757 5.96436 0.0935496 4.47056 0.0830078H0V1.78551L2.04399 1.79078Z" fill="#FF6B00"/>
<path d="M63.1221 4.34191L61.3349 9.18588C61.3022 9.28076 61.2584 9.36508 61.1983 9.44943C61.1383 9.52848 61.0617 9.59701 60.9797 9.66026C60.8976 9.71823 60.8103 9.76568 60.712 9.79731C60.6136 9.82893 60.5098 9.85001 60.4112 9.85001H59.0449L62.7668 0.0830078H65.2317C64.9309 0.357096 64.5211 0.736601 63.745 2.64468C63.5701 3.12433 63.4008 3.53018 63.1221 4.34191Z" fill="#FF6B00"/>
<path d="M68.7397 8.33449L65.5318 0.807617C65.4188 0.9798 65.3095 1.1555 65.2038 1.33471C65.0981 1.51041 64.9998 1.68962 64.9086 1.87234C64.8139 2.05858 64.7266 2.24482 64.6464 2.43106C64.5625 2.62082 64.4859 2.81232 64.4167 3.00559L65.5098 5.76754H64.0944C63.9851 5.76754 63.8758 5.79389 63.7664 5.83079C63.6626 5.86769 63.5698 5.92039 63.4822 5.99419C63.3949 6.06272 63.3238 6.14179 63.2635 6.23667C63.2035 6.32627 63.1597 6.42642 63.138 6.53184L62.8647 7.51749H66.193L67.1002 9.84724H67.827C68.5539 9.84724 69.0402 9.04079 68.7397 8.33449Z" fill="#FF6B00"/>
<path d="M50.229 1.77887H53.7978C53.7978 1.77887 54.6066 1.75251 55.0602 1.95808C55.421 2.12675 55.6232 2.47463 55.6232 3.05444C55.6287 3.51299 55.5083 3.81872 55.2734 3.99264C55.3353 4.04537 55.3953 4.09982 55.4538 4.15604C55.512 4.21227 55.5686 4.27024 55.6232 4.32999C55.6777 4.39324 55.7307 4.45649 55.7815 4.51974C55.8326 4.58299 55.8801 4.64799 55.9236 4.71477C56.0275 4.85709 56.1751 5.10482 56.372 5.44742C56.3882 5.46852 56.4048 5.48959 56.421 5.51067C56.5012 5.46852 56.5815 5.42107 56.6614 5.36837C56.738 5.31564 56.8109 5.25942 56.8801 5.19969C56.9493 5.13997 57.0131 5.07494 57.0715 5.00467C57.1334 4.93789 57.1898 4.86587 57.2409 4.78857C57.3211 4.65504 57.3922 4.51799 57.4541 4.37742C57.5123 4.23337 57.5616 4.08752 57.6017 3.93994C57.6379 3.79237 57.6654 3.64127 57.6835 3.48664C57.6982 3.33554 57.7018 3.18269 57.6945 3.02807C57.6945 2.96482 57.6345 2.07404 57.4596 1.66818C57.4268 1.59087 57.3919 1.51532 57.3557 1.44153C57.3156 1.36774 57.2718 1.2957 57.2244 1.22542C57.1809 1.15514 57.1316 1.08838 57.0768 1.02513C57.0222 0.958364 56.9659 0.895111 56.9074 0.835376C56.8418 0.772124 56.7726 0.710631 56.6997 0.650894C56.6268 0.594671 56.5505 0.543719 56.4703 0.498036C56.3901 0.448841 56.308 0.406674 56.2244 0.371534C56.1368 0.336396 56.0495 0.304771 55.9619 0.276659C55.8271 0.241519 55.6905 0.209894 55.5521 0.181782C55.4137 0.15367 55.2734 0.13083 55.1313 0.11326C54.9928 0.0956904 54.8526 0.0833917 54.7105 0.0763637C54.5683 0.0693359 54.4262 0.0675789 54.2841 0.0710929H49.2235V0.756311C49.218 0.888084 49.2398 1.01986 49.2835 1.14109C49.3326 1.26232 49.4036 1.37828 49.4967 1.47316C49.595 1.56803 49.7044 1.64182 49.83 1.69453C49.9558 1.74724 50.0869 1.77887 50.229 1.77887Z" fill="#FF6B00"/>
<path d="M55.3251 5.16648C54.8167 4.43383 54.3086 4.27043 53.9971 4.24936C53.6856 4.22828 51.2808 4.24936 51.2808 4.24936V3.59048C51.2808 3.00016 50.8327 2.52051 50.2807 2.52051H49.2314V8.77181C49.2314 9.36213 49.685 9.84178 50.2315 9.84178H51.2808V5.96768H53.7019L55.7077 9.58351C55.7258 9.62218 55.7496 9.65731 55.7787 9.68893C55.8115 9.72056 55.8461 9.74868 55.8825 9.77328C55.919 9.79436 55.9591 9.81193 56.0026 9.82598C56.0464 9.83653 56.0902 9.84356 56.134 9.84706H58.1671L55.7677 5.89916C55.7567 5.87806 55.4124 5.29826 55.3251 5.16648Z" fill="#FF6B00"/>
<path d="M7.96829 3.76971C8.00471 3.80483 8.04116 3.84348 8.07758 3.88566C8.11038 3.92431 8.14499 3.96296 8.18143 4.00163C8.21421 4.04378 8.2452 4.08421 8.27433 4.12286C8.30713 4.16503 8.33809 4.20718 8.36725 4.24936C8.47291 4.39343 8.56581 4.54276 8.64596 4.69738C8.72247 4.85201 8.78807 5.01188 8.84271 5.17703C8.89736 5.34571 8.93744 5.51438 8.96296 5.68303C8.98844 5.85523 9.00121 6.02916 9.00121 6.20486C9.00121 6.67926 8.90283 7.15363 8.71154 7.59111C8.52027 8.03388 8.24155 8.43446 7.89176 8.77181C7.53654 9.10913 7.12117 9.37268 6.66209 9.55716C6.20849 9.74166 5.71661 9.83653 5.21928 9.83653L4.53065 9.84706H1.00013C0.448147 9.84706 0 9.36741 0 8.77706V2.52051H2.05492V8.14456H4.43776C4.52155 8.14456 4.60535 8.14456 4.68915 8.14456C4.77295 8.14106 4.85675 8.13753 4.94054 8.13401C5.02434 8.12698 5.10633 8.11821 5.18648 8.10766C5.27028 8.09713 5.35408 8.08483 5.43787 8.07076C5.51076 8.05321 5.58179 8.03036 5.65104 8.00226C5.72026 7.97413 5.78767 7.94076 5.85324 7.90211C5.91517 7.86343 5.9753 7.81953 6.03361 7.77033C6.08825 7.72113 6.13925 7.66843 6.18663 7.61221C6.24127 7.54896 6.29045 7.48393 6.33419 7.41718C6.38154 7.34688 6.42344 7.27661 6.45988 7.20633C6.49995 7.13253 6.53458 7.05698 6.56371 6.97968C6.59287 6.90238 6.61655 6.82508 6.63477 6.74776C6.65664 6.66696 6.67667 6.58788 6.69489 6.51058C6.70947 6.42976 6.72405 6.34893 6.7386 6.26811C6.75318 6.18728 6.76594 6.10648 6.77685 6.02566C6.78779 5.94483 6.79691 5.86401 6.8042 5.78318C6.81149 5.67778 6.81694 5.57411 6.82059 5.47221C6.82788 5.36678 6.83152 5.26313 6.83152 5.16123C6.83152 5.05581 6.83152 4.95038 6.83152 4.84496C6.82788 4.74306 6.82423 4.63941 6.82059 4.53398C6.81694 4.41803 6.80965 4.30206 6.79872 4.18611C6.78779 4.07013 6.77504 3.95593 6.76046 3.84348C6.74589 3.72753 6.72766 3.61158 6.70582 3.49561C6.6876 3.38316 6.66573 3.26896 6.64022 3.15301C6.63296 3.13193 6.62384 3.10908 6.6129 3.08448C6.60561 3.05988 6.59832 3.03528 6.59103 3.01068C6.58013 2.98961 6.571 2.96676 6.56371 2.94216C6.55278 2.92108 6.54185 2.89823 6.53094 2.87366C6.66573 2.91933 6.79507 2.97203 6.91896 3.03178C7.04649 3.08801 7.16855 3.15301 7.28512 3.22681C7.40536 3.30058 7.52012 3.37966 7.62943 3.46398C7.73874 3.55183 7.84257 3.64321 7.94095 3.73808L7.96829 3.76971Z" fill="#FF6B00"/>
<path d="M73.2692 1.83236L73.4169 1.81128C73.4533 1.80425 73.4897 1.80074 73.5262 1.80074C73.5626 1.79722 73.5991 1.79371 73.6355 1.79019C73.6756 1.79019 73.7139 1.79019 73.7504 1.79019C73.7865 1.78668 73.823 1.78492 73.8594 1.78492L77.3574 1.77965V1.14714C77.3574 0.556802 76.909 0.0771484 76.3571 0.0771484H73.887C73.7666 0.0771484 73.6481 0.0789054 73.5317 0.0824194C73.4114 0.0859334 73.2913 0.0929612 73.1709 0.103503C73.0542 0.114045 72.936 0.126344 72.8156 0.140399C72.6992 0.154455 72.5826 0.172025 72.4659 0.193109H72.4441C72.0123 0.26163 71.6025 0.403945 71.2199 0.60951C70.8426 0.815077 70.5039 1.08389 70.2196 1.40542C69.9354 1.72167 69.717 2.08537 69.5639 2.48068C69.4108 2.876 69.3345 3.2924 69.3345 3.7088C69.3345 3.88802 69.3471 4.06547 69.3725 4.24117C69.4019 4.41687 69.4435 4.58905 69.4983 4.75772C69.5529 4.9264 69.6203 5.09155 69.7005 5.2532C69.7807 5.41132 69.8735 5.56417 69.9792 5.71175C70.6515 6.65525 71.3783 6.95042 72.0888 7.1718C72.0233 7.04177 71.963 6.90825 71.9084 6.77122C71.8502 6.63417 71.7991 6.49537 71.7553 6.3548C71.7155 6.21075 71.679 6.06667 71.6463 5.9226C71.6169 5.77852 71.5951 5.63445 71.5804 5.49037C71.3455 3.63502 72.0999 1.99576 73.2637 1.83763" fill="#FF6B00"/>
<path d="M85.999 5.35267C85.999 4.76232 85.5509 4.28267 85.0045 4.28267H80.1458C80.1641 4.15265 80.1877 4.02265 80.2168 3.89262C80.2496 3.76262 80.2861 3.63435 80.3262 3.50785C80.3663 3.37782 80.4119 3.25132 80.4628 3.12835C80.5139 3.00535 80.5703 2.88412 80.6324 2.76465L80.5666 2.78572C80.5302 2.79627 80.4937 2.80682 80.4575 2.81737C80.4211 2.8279 80.3846 2.8402 80.3482 2.85425C80.3118 2.8648 80.2771 2.8771 80.2444 2.89115C80.2079 2.9052 80.1715 2.92102 80.135 2.9386C79.9709 3.00185 79.8144 3.0774 79.6649 3.16525C79.5118 3.2531 79.3681 3.35147 79.2331 3.46042C79.0946 3.56935 78.9672 3.68707 78.8505 3.81357C78.7305 3.94007 78.623 4.07535 78.5283 4.21942C78.4226 4.3635 78.3296 4.51635 78.2496 4.678C78.1694 4.83612 78.102 5.00127 78.0472 5.17345C77.9926 5.34212 77.9507 5.51432 77.9216 5.69C77.8961 5.8657 77.8833 6.0414 77.8833 6.2171C77.8833 6.56497 77.9378 6.91287 78.0417 7.24492C78.1455 7.577 78.2986 7.89325 78.5008 8.17787C78.6977 8.46777 78.9436 8.73132 79.2168 8.9527C79.4955 9.17407 79.807 9.3533 80.135 9.49035C80.1932 9.51492 80.2496 9.53952 80.3044 9.56412C80.3626 9.58522 80.4211 9.60455 80.4793 9.62212C80.5375 9.6432 80.596 9.66077 80.6542 9.67482C80.7161 9.6924 80.7761 9.70645 80.8346 9.717C80.9657 9.74157 81.0986 9.76267 81.2334 9.78025C81.3647 9.7978 81.4977 9.81362 81.6324 9.82767C81.7635 9.83822 81.8965 9.847 82.0315 9.85402C82.1663 9.85755 82.301 9.8593 82.4358 9.8593H84.8952C85.4143 9.8593 85.8462 9.4271 85.8899 8.88945C85.8899 8.88242 85.8899 8.87365 85.8899 8.8631C85.8899 8.85255 85.8899 8.84377 85.8899 8.83675C85.8899 8.8262 85.8899 8.81567 85.8899 8.80512C85.8899 8.7981 85.8899 8.7893 85.8899 8.77877V8.1568L82.3975 8.14625C82.3611 8.14625 82.3246 8.14625 82.2882 8.14625C82.2481 8.14275 82.21 8.14097 82.1736 8.14097C82.1372 8.13747 82.0989 8.13395 82.0588 8.13045C82.0223 8.13045 81.9859 8.12692 81.9494 8.1199L81.8018 8.09882C80.9767 7.98285 80.3534 7.13425 80.1513 5.98517H85.9938L85.999 5.35267Z" fill="#FF6B00"/>
</g>
<defs>
<clipPath id="clip0_195_3571">
<rect width="86" height="10" fill="white"/>
</clipPath>
</defs>
</svg>
