<svg width="78" height="34" viewBox="0 0 78 34" fill="none" xmlns="http://www.w3.org/2000/svg">
<path d="M0 25.6182H3.73547C4.65136 25.6182 5.29608 25.8473 5.72264 26.2739C6.01393 26.5651 6.19064 26.9503 6.19064 27.4493V27.4701C6.19064 28.3128 5.71168 28.8125 5.06696 29.0934C5.95116 29.3847 6.513 29.8844 6.513 30.8728V30.8935C6.513 32.1421 5.49352 32.9014 3.75558 32.9014H0V25.6182ZM3.23578 28.5212C3.84942 28.5212 4.19311 28.3134 4.19311 27.8863V27.8655C4.19311 27.4701 3.88111 27.2415 3.27722 27.2415H1.96645V28.5212H3.23578ZM3.52706 31.2787C4.14071 31.2787 4.49475 31.0392 4.49475 30.6126V30.5919C4.49475 30.1964 4.18275 29.9362 3.50635 29.9362H1.96645V31.2787H3.52706Z" fill="#1C1E23"/>
<path d="M7.78284 25.6182H9.80109V31.1324H13.3282V32.9014H7.78223V25.6182H7.78284Z" fill="#1C1E23"/>
<path d="M17.4008 25.5664H19.3465L22.447 32.9015H20.2831L19.7524 31.6011H16.9432L16.4227 32.9015H14.3003L17.4008 25.5664ZM19.1698 30.0301L18.3581 27.9594L17.5361 30.0301H19.1698Z" fill="#1C1E23"/>
<path d="M22.7803 29.2806V29.2599C22.7803 27.1375 24.414 25.4727 26.6199 25.4727C28.108 25.4727 29.0648 26.0967 29.7101 26.9918L28.1909 28.1673C27.7747 27.6469 27.2964 27.3142 26.5992 27.3142C25.5797 27.3142 24.8619 28.1777 24.8619 29.2392V29.2599C24.8619 30.3525 25.5797 31.2057 26.5992 31.2057C27.3591 31.2057 27.8064 30.8516 28.2433 30.3215L29.7625 31.4037C29.0757 32.3507 28.1501 33.0478 26.5371 33.0478C24.4561 33.0478 22.7809 31.4561 22.7809 29.2813L22.7803 29.2806Z" fill="#1C1E23"/>
<path d="M30.9688 25.6182H32.987V28.573L35.4946 25.6182H37.8876L35.1302 28.7497L37.9808 32.9014H35.5567L33.7256 30.1964L32.987 31.0185V32.902H30.9688V25.6188V25.6182Z" fill="#1C1E23"/>
<path d="M38.9077 25.6182H42.0289C43.8705 25.6182 45.0569 26.5651 45.0569 28.1775V28.1983C45.0569 29.9149 43.7358 30.8204 41.9253 30.8204H40.9266V32.9014H38.9083V25.6182H38.9077ZM41.8833 29.2391C42.6011 29.2391 43.0381 28.8643 43.0381 28.2921V28.2714C43.0381 27.6474 42.6011 27.3141 41.8729 27.3141H40.926V29.2391H41.8833Z" fill="#1C1E23"/>
<path d="M48.0439 25.5664H49.9896L53.0901 32.9015H50.9262L50.3954 31.6011H47.5862L47.0658 32.9015H44.9434L48.0439 25.5664ZM49.8129 30.0301L49.0012 27.9594L48.1791 30.0301H49.8129Z" fill="#1C1E23"/>
<path d="M54.1412 25.6182H56.0242L59.0205 29.4682V25.6182H61.018V32.9014H59.249L56.1382 28.9057V32.9014H54.1406V25.6182H54.1412Z" fill="#1C1E23"/>
<path d="M62.653 25.6182H65.4622C68.0636 25.6182 69.5718 27.1166 69.5718 29.2184V29.2391C69.5718 31.3408 68.0423 32.9014 65.4201 32.9014H62.6523V25.6182H62.653ZM65.4933 31.1117C66.7004 31.1117 67.5011 30.4456 67.5011 29.2702V29.2494C67.5011 28.0843 66.6998 27.4079 65.4933 27.4079H64.6712V31.1117H65.4933Z" fill="#1C1E23"/>
<path d="M72.9535 25.5664H74.8993L77.9998 32.9015H75.8359L75.3051 31.6011H72.4959L71.9755 32.9015H69.853L72.9535 25.5664ZM74.7225 30.0301L73.9109 27.9594L73.0888 30.0301H74.7225Z" fill="#1C1E23"/>
<path d="M45.7496 19.3966L45.2737 16.9323C45.2682 16.9049 45.2548 16.8805 45.2347 16.8616L43.2573 15.0286C43.1933 14.9689 43.0927 14.9896 43.0543 15.0683C42.7052 15.7782 42.0994 16.432 41.253 17C40.6564 17.4016 40.0611 17.6794 39.6814 17.8373C39.5644 17.886 39.5785 18.0554 39.7022 18.0841L41.5882 18.5161C41.604 18.5198 41.6193 18.5265 41.6327 18.5356L43.2189 19.6215C43.2463 19.6404 43.2658 19.669 43.2725 19.7013L43.5674 21.0767C43.5802 21.1364 43.6332 21.1797 43.6948 21.1797H46.1835C46.2554 21.1797 46.3133 21.1212 46.3133 21.0499V19.9676C46.3133 19.9292 46.2962 19.8927 46.267 19.8683L45.7947 19.4722C45.7715 19.4533 45.7563 19.4265 45.7508 19.3973L45.7496 19.3966Z" fill="#1C1E23"/>
<path d="M36.7481 17C35.9017 16.4308 35.2954 15.7782 34.9468 15.0683C34.9084 14.9896 34.8079 14.9689 34.7439 15.0286L32.7659 16.8616C32.7457 16.8805 32.7317 16.9049 32.7269 16.9323L32.2497 19.3979C32.2442 19.4271 32.2284 19.4539 32.2058 19.4728L31.7348 19.8677C31.7055 19.8927 31.6885 19.9286 31.6885 19.9676V21.0499C31.6885 21.1218 31.747 21.1797 31.8183 21.1797H34.3064C34.3679 21.1797 34.4209 21.137 34.4337 21.0767L34.7286 19.7013C34.7354 19.669 34.7549 19.6404 34.7823 19.6215L36.3685 18.5356C36.3819 18.5265 36.3971 18.5198 36.413 18.5161L38.2996 18.0841C38.4233 18.0554 38.4373 17.886 38.3203 17.8373C37.9407 17.6794 37.3459 17.4016 36.7493 17" fill="#1C1E23"/>
<path d="M34.5607 7.42978L33.7777 6.5925C33.7527 6.56569 33.7399 6.52913 33.7429 6.49257L33.8581 5.13549C33.8618 5.09283 33.8861 5.05444 33.9233 5.03372L34.465 4.72599C34.4949 4.70892 34.5168 4.68089 34.526 4.64738L34.9135 3.23484C34.9361 3.15197 34.8739 3.07031 34.788 3.07031H33.5699C33.5266 3.07031 33.4858 3.09225 33.4614 3.1282L31.7094 5.76558C31.6954 5.78691 31.6875 5.81189 31.6875 5.83749V8.73385C31.6875 8.76127 31.696 8.78808 31.7125 8.81063L34.3602 12.434C34.4346 12.5357 34.5954 12.4827 34.5954 12.3572V7.51875C34.5954 7.48585 34.5826 7.45416 34.5601 7.42978H34.5607Z" fill="#1C1E23"/>
<path d="M44.4304 3.06934H43.2122C43.1263 3.06934 43.0641 3.15099 43.0867 3.23387L43.4736 4.6464C43.4828 4.67991 43.5047 4.70795 43.5352 4.72501L44.0781 5.03274C44.1153 5.05407 44.1397 5.09185 44.1433 5.13512L44.2585 6.49159C44.2616 6.52815 44.2488 6.56471 44.2238 6.59153L43.4377 7.4282C43.4151 7.45257 43.4023 7.48426 43.4023 7.51717L43.4048 12.3568C43.4048 12.4824 43.5657 12.5348 43.64 12.4336L46.2883 8.81026C46.3048 8.78771 46.3133 8.7609 46.3133 8.73348V5.83712C46.3133 5.81153 46.306 5.78654 46.2914 5.76521L44.5388 3.12784C44.5145 3.09127 44.4742 3.06995 44.4304 3.06995V3.06934Z" fill="#1C1E23"/>
<path d="M42.4916 8.04933C42.1077 7.88114 40.346 7.14258 38.9938 7.14258C37.6416 7.14258 35.8793 7.88114 35.496 8.04933C35.4491 8.07005 35.4204 8.11575 35.4204 8.16755V13.4752C35.4204 15.8816 38.7756 17.0254 38.9201 17.0736L38.9944 17.0973H38.995L39.0694 17.0736C39.2132 17.026 42.5684 15.8822 42.5684 13.4752V8.16755C42.5684 8.11575 42.5397 8.07005 42.4928 8.04933H42.4916ZM38.7202 8.16633C38.8256 8.08224 38.9627 8.05238 39.0968 8.08284C39.2589 8.12002 39.3905 8.2553 39.4234 8.41983C39.4551 8.57705 39.4027 8.73366 39.2838 8.83847C39.2619 8.85797 39.2497 8.886 39.2497 8.91525V12.8323C39.2497 12.9073 39.2168 12.9786 39.1595 13.0273C39.1132 13.0669 39.0541 13.0883 38.9932 13.0883C38.9792 13.0883 38.9651 13.087 38.9511 13.0846C38.8299 13.0645 38.7378 12.9518 38.7378 12.8213V8.91525C38.7378 8.88539 38.7257 8.85797 38.7049 8.83969C38.6099 8.7562 38.555 8.63616 38.555 8.51063C38.555 8.37595 38.6154 8.25103 38.7208 8.16694L38.7202 8.16633ZM36.6776 9.48014C36.6971 9.35095 36.7726 9.23761 36.8853 9.16875C37.0353 9.07735 37.237 9.08831 37.3765 9.19495C37.5039 9.29306 37.5672 9.44541 37.5459 9.60324C37.5423 9.62883 37.552 9.65625 37.5721 9.6788L38.0651 10.2352C38.1065 10.2821 38.1297 10.3424 38.1297 10.4052V12.7939C38.1126 13.4521 38.7159 13.7202 38.9932 13.8085C39.268 13.7183 39.8682 13.446 39.8579 12.7982V10.4058C39.8579 10.343 39.881 10.2827 39.9225 10.2358L40.4155 9.67941C40.435 9.65686 40.4447 9.62883 40.4411 9.6008C40.4252 9.47527 40.4636 9.34913 40.5471 9.25467C40.6336 9.15717 40.7585 9.10416 40.8883 9.1072C41.0187 9.11086 41.1406 9.17241 41.2223 9.27661C41.3307 9.41433 41.3441 9.61603 41.2546 9.76716C41.1723 9.90488 41.0285 9.98958 40.8694 9.9841C40.8438 9.98288 40.8176 9.99628 40.7975 10.0188L40.3685 10.5021V12.7933C40.385 13.8402 39.4033 14.2186 39.1023 14.3094C39.059 14.3235 39.034 14.3314 38.9932 14.3314C38.9523 14.3314 38.928 14.3235 38.8878 14.3101C38.5837 14.2205 37.5898 13.8445 37.6178 12.786V10.5015L37.1888 10.0176C37.1693 9.99567 37.1395 9.98288 37.1139 9.98288H37.1108C36.9853 9.98288 36.8658 9.92925 36.783 9.83602C36.6964 9.73852 36.6581 9.60872 36.6776 9.47953V9.48014ZM41.5714 11.7958C41.5507 11.814 41.5385 11.8415 41.5385 11.8713V13.0675C41.5385 14.9018 39.2229 15.6903 39.1242 15.7226C39.0517 15.7463 39.0346 15.7518 38.9932 15.7518C38.9517 15.7518 38.9371 15.747 38.8634 15.7232C38.7647 15.6903 36.4478 14.9018 36.4478 13.0675V11.8713C36.4478 11.8415 36.4356 11.814 36.4149 11.7958C36.3192 11.7123 36.265 11.5922 36.265 11.4667C36.265 11.332 36.3253 11.2071 36.4308 11.123C36.5362 11.0389 36.6733 11.0085 36.8073 11.0395C36.9694 11.0767 37.1011 11.212 37.134 11.3759C37.1657 11.5331 37.1133 11.6897 36.9944 11.7945C36.9725 11.814 36.9603 11.8421 36.9603 11.8713V13.0675C36.9603 14.438 38.7214 15.1284 38.9938 15.2266C39.1211 15.1802 39.6056 14.9932 40.0736 14.6501C40.7061 14.187 41.0273 13.6544 41.0273 13.0669V11.8707C41.0273 11.8409 41.0145 11.8134 40.9931 11.7939C40.8737 11.6891 40.8219 11.5325 40.8536 11.3753C40.8865 11.2114 41.0181 11.0761 41.1802 11.0389C41.3143 11.0085 41.4514 11.0389 41.5568 11.1224C41.6622 11.2059 41.7226 11.3314 41.7226 11.4661C41.7226 11.5922 41.6677 11.7123 41.5727 11.7952L41.5714 11.7958Z" fill="#1C1E23"/>
<path d="M42.0566 2.90521L42.4314 2.57127C42.4588 2.5469 42.4765 2.51217 42.4801 2.4756L42.5478 1.79188C42.552 1.75106 42.5386 1.71023 42.5112 1.67915L41.9548 1.05271C41.9286 1.02346 41.8921 1.00579 41.8531 1.00335L40.9981 0.953383C40.9652 0.951555 40.9329 0.960696 40.9061 0.978977L40.2699 1.41468C40.2394 1.4354 40.2017 1.44454 40.1651 1.43906L38.9927 1.26782C38.9799 1.26599 38.9665 1.26599 38.9537 1.26782L37.8318 1.40493C37.7983 1.4092 37.7648 1.40127 37.7361 1.3836L37.0804 0.97593C37.0542 0.959477 37.0238 0.951555 36.9927 0.953383L36.1341 1.00396C36.0951 1.0064 36.0585 1.02407 36.0323 1.05332L35.4753 1.67976C35.4479 1.71084 35.4345 1.75166 35.4388 1.79249L35.5064 2.47621C35.5101 2.51338 35.5278 2.54751 35.5552 2.57188L35.9299 2.90582C35.9726 2.9436 35.9891 3.0021 35.9738 3.05695L35.3066 5.38354C35.2962 5.41949 35.2999 5.45789 35.3169 5.4914L35.9659 6.76865C35.9994 6.83446 36.075 6.86554 36.1451 6.84178C36.5552 6.70101 37.9305 6.258 38.9945 6.258H38.9957C40.0481 6.258 41.4302 6.7004 41.8403 6.84056C41.9097 6.86432 41.9853 6.83325 42.0188 6.76743L42.6696 5.49201C42.6867 5.45849 42.6904 5.4201 42.68 5.38415L42.0127 3.05756C41.9969 3.00271 42.0139 2.94421 42.0566 2.90643V2.90521ZM39.8275 3.30923L40.7074 3.31288C40.755 3.31288 40.7982 3.34031 40.8184 3.38357L41.0901 3.70837C41.1072 3.73762 41.1224 3.77113 41.1358 3.80709C41.2736 4.17881 40.9427 4.65595 40.5508 4.59562C40.3699 4.56759 40.2364 4.47314 40.1383 4.28728L39.7184 3.54688C39.6782 3.46523 39.7373 3.30984 39.8287 3.30984L39.8275 3.30923ZM38.4552 4.88324H39.5649C39.6977 4.88324 39.7593 5.04778 39.6593 5.13492L39.1048 5.61937C39.0506 5.6669 38.9701 5.6669 38.9159 5.61937L38.3614 5.13492C38.2614 5.04778 38.323 4.88324 38.4558 4.88324H38.4552ZM36.8848 3.80648C36.8982 3.77053 36.9135 3.73701 36.9305 3.70776L37.2023 3.38296C37.2224 3.3397 37.2657 3.31228 37.3132 3.31228L38.1932 3.30862C38.284 3.30862 38.3437 3.46401 38.3035 3.54567L37.8836 4.28606C37.7849 4.47192 37.6514 4.56637 37.4711 4.5944C37.0792 4.65473 36.7483 4.1782 36.8861 3.80587L36.8848 3.80648Z" fill="#1C1E23"/>
</svg>
