<svg width="68" height="54" viewBox="0 0 68 54" fill="none" xmlns="http://www.w3.org/2000/svg">
<path d="M22.3614 23.4336H19.3779V35.0694H22.3614V23.4336Z" fill="white"/>
<path d="M46.1924 26.7834C46.0809 26.7281 45.1409 26.1786 43.7031 26.1786C41.7674 26.1786 40.441 27.4952 40.441 29.306C40.441 31.1169 41.7116 32.4335 43.7031 32.4335C45.0852 32.4335 46.0809 31.884 46.1924 31.8286V34.9561C45.806 35.0668 44.8103 35.395 43.4839 35.395C40.166 35.395 37.2383 33.09 37.2383 29.3577C37.2383 25.8983 39.8911 23.3203 43.4839 23.3203C44.866 23.3203 45.9175 23.6485 46.1924 23.7592V26.776V26.7834Z" fill="white"/>
<path d="M15.2874 26.7834C15.176 26.7281 14.236 26.1786 12.7981 26.1786C10.8624 26.1786 9.53598 27.4952 9.53598 29.306C9.53598 31.1169 10.8067 32.4335 12.7981 32.4335C14.1802 32.4335 15.176 31.884 15.2874 31.8286V34.9561C14.901 35.0668 13.9053 35.395 12.5789 35.395C9.26104 35.395 6.32959 33.09 6.32959 29.3577C6.32959 25.8983 8.9861 23.3203 12.5789 23.3203C13.961 23.3203 15.0125 23.6485 15.2874 23.7592V26.776V26.7834Z" fill="white"/>
<path d="M61.5067 29.2536C61.5067 32.4917 59.0174 35.0696 55.5361 35.0696C52.0547 35.0696 49.5654 32.488 49.5654 29.2536C49.5654 26.0191 52.0547 23.4375 55.5361 23.4375C59.0174 23.4375 61.5067 26.0154 61.5067 29.2536ZM55.4804 26.2884C53.7676 26.2884 52.5489 27.605 52.5489 29.2536C52.5489 30.9021 53.8196 32.2151 55.4804 32.2151C57.1411 32.2151 58.4118 30.8984 58.4118 29.2536C58.4675 27.605 57.1969 26.2884 55.4804 26.2884Z" fill="white"/>
<path d="M33.5301 26.0679C33.4744 26.0679 32.2595 25.7396 31.208 25.7396C30.0451 25.7396 29.3837 26.1232 29.3837 26.6727C29.3837 27.3882 30.268 27.6058 30.7659 27.7718L31.5944 28.0484C33.5301 28.6532 34.4144 29.9698 34.4144 31.3934C34.4144 34.3033 31.8136 35.2917 29.5472 35.2917C28.0016 35.2917 26.508 35.0188 26.3408 34.9635V32.2749C26.6158 32.3302 27.8344 32.7137 29.1608 32.7137C30.6544 32.7137 31.3195 32.2749 31.3195 31.6147C31.3195 31.0099 30.7101 30.6816 29.9931 30.464C29.8259 30.4087 29.5509 30.3018 29.3837 30.2428C27.7267 29.7486 26.3445 28.7602 26.3445 26.8424C26.3445 24.648 28.0016 23.2207 30.7101 23.2207C32.148 23.2207 33.5301 23.5489 33.5859 23.6043V26.0753H33.5301V26.0679Z" fill="white"/>
<path d="M3.23103 10.9195C3.23103 10.097 2.56597 9.49219 1.74115 9.49219C0.916331 9.49219 0.247559 10.1523 0.247559 10.9195V13.9916C0.247559 14.814 0.9089 15.4742 1.74115 15.4742C2.5734 15.4742 3.23103 14.814 3.23103 13.9916V10.9195Z" fill="white"/>
<path d="M11.3043 6.91556C11.3043 6.09312 10.6392 5.48828 9.81068 5.48828C8.98214 5.48828 8.3208 6.14475 8.3208 6.91556V13.9966C8.3208 14.8191 8.98586 15.4792 9.81068 15.4792C10.6355 15.4792 11.3043 14.8191 11.3043 13.9966V6.91556Z" fill="white"/>
<path d="M19.3783 1.42728C19.3783 0.60484 18.717 0 17.8847 0C17.0525 0 16.3911 0.660161 16.3911 1.42728V16.9023C16.3911 17.7248 17.0562 18.3849 17.8847 18.3849C18.7132 18.3849 19.3783 17.7248 19.3783 16.9023V1.42728Z" fill="white"/>
<path d="M27.4478 6.91556C27.4478 6.09312 26.7828 5.48828 25.9542 5.48828C25.1257 5.48828 24.4644 6.14475 24.4644 6.91556V13.9966C24.4644 14.8191 25.1257 15.4792 25.9542 15.4792C26.7828 15.4792 27.4478 14.8191 27.4478 13.9966V6.91556Z" fill="white"/>
<path d="M35.4656 10.9195C35.4656 10.097 34.8043 9.49219 34.0278 9.49219C33.1992 9.49219 32.5342 10.1523 32.5342 10.9195V13.9916C32.5342 14.814 33.1992 15.4742 34.0278 15.4742C34.8563 15.4742 35.4656 14.814 35.4656 13.9916V10.9195Z" fill="white"/>
<path d="M43.595 6.91556C43.595 6.09312 42.9336 5.48828 42.1571 5.48828C41.3286 5.48828 40.7192 6.14475 40.7192 6.91556V13.9966C40.7192 14.8191 41.3843 15.4792 42.1571 15.4792C42.9856 15.4792 43.595 14.8191 43.595 13.9966V6.91556Z" fill="white"/>
<path d="M51.6648 1.42728C51.6648 0.60484 50.9997 0 50.2269 0C49.3984 0 48.7891 0.660161 48.7891 1.42728V16.9023C48.7891 17.7248 49.4504 18.3849 50.2269 18.3849C51.0592 18.3849 51.6648 17.7248 51.6648 16.9023V1.42728Z" fill="white"/>
<path d="M59.7383 6.91556C59.7383 6.09312 59.0769 5.48828 58.2484 5.48828C57.4199 5.48828 56.8105 6.14475 56.8105 6.91556V13.9966C56.8105 14.8191 57.4756 15.4792 58.2484 15.4792C59.0769 15.4792 59.7383 14.8191 59.7383 13.9966V6.91556Z" fill="white"/>
<path d="M67.7523 10.9195C67.7523 10.097 67.0909 9.49219 66.3144 9.49219C65.4859 9.49219 64.8208 10.1523 64.8208 10.9195V13.9916C64.8208 14.814 65.4821 15.4742 66.3144 15.4742C67.1466 15.4742 67.7523 14.814 67.7523 13.9916V10.9195Z" fill="white"/>
<path d="M14.8975 45.0566H17.7732C18.8804 45.0566 19.7089 45.3332 20.3182 45.8828C20.8124 46.377 21.0353 47.0334 21.0353 47.8559C21.0353 48.7889 20.7046 49.4491 20.0396 49.9433C19.486 50.3269 18.7132 50.5482 17.7175 50.5482H15.8375V53.7863H14.8975V45.0603V45.0566ZM17.8289 45.8274H15.8375V49.722H17.7732C18.6017 49.722 19.1553 49.5561 19.5417 49.1725C19.8724 48.8443 20.0396 48.4054 20.0396 47.8559C20.0396 47.1994 19.8204 46.6499 19.3745 46.318C19.0439 45.9897 18.4903 45.8238 17.8252 45.8238L17.8289 45.8274Z" fill="white"/>
<path d="M23.082 49.1728H22.142C22.1977 48.568 22.4727 48.0738 23.0263 47.7455C23.4684 47.4689 24.0777 47.3066 24.7391 47.3066C25.5676 47.3066 26.1769 47.5242 26.6191 47.9668C27.0055 48.3504 27.1727 48.8446 27.1727 49.4494V53.7829H26.4556L26.3441 52.8498C25.8462 53.6169 25.1292 54.0005 24.1334 54.0005C23.4164 54.0005 22.8628 53.8345 22.4764 53.4509C22.1457 53.119 21.9785 52.7391 21.9785 52.2449C21.9785 51.6401 22.2014 51.1459 22.5878 50.8177C22.9742 50.5447 23.5836 50.3235 24.3601 50.1575L26.2401 49.8293V49.3904C26.2401 48.9515 26.0729 48.6196 25.7422 48.3467C25.4636 48.1291 25.0772 48.0184 24.635 48.0184C24.1372 48.0184 23.7508 48.1291 23.4758 48.402C23.3123 48.568 23.1452 48.8409 23.0894 49.1691L23.082 49.1728ZM26.2884 51.4778V50.4894L24.6313 50.7623C23.97 50.873 23.4721 51.0389 23.2492 51.3119C23.0263 51.4741 22.9185 51.7507 22.9185 52.079C22.9185 52.4625 23.082 52.7391 23.3606 52.9567C23.5799 53.1227 23.9142 53.2297 24.3564 53.2297C24.9063 53.2297 25.3521 53.0674 25.7385 52.6801C26.1249 52.2966 26.2921 51.913 26.2921 51.4741L26.2884 51.4778Z" fill="white"/>
<path d="M29.8257 53.7278H28.9414V47.4728H29.6622L29.7737 48.5719C30.1043 47.7494 30.6579 47.3105 31.4865 47.3105C31.7057 47.3105 31.9286 47.3659 32.1478 47.4212V48.2989C31.8691 48.2436 31.6499 48.1883 31.4307 48.1883C30.9329 48.1883 30.5465 48.4059 30.2158 48.8448C29.9371 49.2283 29.7737 49.7779 29.7737 50.4896V53.7278H29.8294H29.8257Z" fill="white"/>
<path d="M35.7406 48.2429H34.3028V52.3588C34.3028 52.9083 34.5777 53.1259 35.0756 53.1259C35.2948 53.1259 35.5734 53.0706 35.7927 53.0153V53.7824C35.5177 53.8377 35.2391 53.893 34.9641 53.893C34.4105 53.893 34.0241 53.7271 33.7492 53.3988C33.5263 53.1222 33.4185 52.7387 33.4185 52.2998V48.1839H32.4785V47.4131H33.4185L33.4742 45.8789H34.3028V47.4131H35.7406V48.2356V48.2429Z" fill="white"/>
<path d="M37.8437 53.7275H36.9595V47.4726H37.6765L37.788 48.4057C38.0072 48.0774 38.2859 47.8008 38.6165 47.5832C38.9472 47.362 39.3336 47.3066 39.7757 47.3066C40.4928 47.3066 41.0464 47.5242 41.4886 47.9668C41.8192 48.3504 41.9864 48.8999 41.9864 49.56V53.7312H41.1021V49.56C41.1021 49.0105 40.935 48.627 40.66 48.354C40.3814 48.1365 40.0507 48.0258 39.6086 48.0258C39.1107 48.0258 38.6686 48.1918 38.3379 48.5753C38.0072 48.9036 37.84 49.3461 37.84 49.8366V53.7349L37.8437 53.7275Z" fill="white"/>
<path d="M48.2394 51.972H49.2351C49.0679 52.5769 48.7372 53.0711 48.1874 53.4546C47.6895 53.7829 47.1359 53.9488 46.4746 53.9488C45.4788 53.9488 44.7618 53.6206 44.2082 52.9604C43.7103 52.3556 43.4316 51.5885 43.4316 50.6001C43.4316 49.4457 43.7623 48.6233 44.3716 48.0184C44.9252 47.5242 45.5866 47.3066 46.3631 47.3066C47.3031 47.3066 48.0202 47.6349 48.5738 48.2397C49.0716 48.8446 49.2908 49.7223 49.2908 50.8177H44.3716C44.4274 51.6438 44.6466 52.2449 45.0887 52.6838C45.4751 53.0121 45.9172 53.178 46.5266 53.178C46.9687 53.178 47.3551 53.0674 47.6895 52.7945C47.9087 52.5732 48.1316 52.3003 48.2431 51.9683L48.2394 51.972ZM46.3557 48.0221C45.7463 48.0221 45.3079 48.2434 44.9178 48.627C44.5871 49.0105 44.3642 49.5047 44.3085 50.1096H48.2877C48.2319 49.3978 48.009 48.8482 47.6226 48.4647C47.2919 48.1365 46.9018 48.0258 46.3482 48.0258L46.3557 48.0221Z" fill="white"/>
<path d="M51.665 53.7278H50.7808V47.4728H51.4978L51.6093 48.5719C51.94 47.7494 52.4936 47.3105 53.3221 47.3105C53.545 47.3105 53.7642 47.3659 53.9872 47.4212V48.2989C53.7085 48.2436 53.4893 48.1883 53.2664 48.1883C52.7685 48.1883 52.3821 48.4059 52.0514 48.8448C51.7765 49.2283 51.6093 49.7779 51.6093 50.4896V53.7278H51.665Z" fill="white"/>
</svg>
