<svg width="61" height="59" viewBox="0 0 61 59" fill="none" xmlns="http://www.w3.org/2000/svg">
<path d="M53.3488 19.9806C57.2394 19.9806 60.3992 16.8099 60.3992 12.9083C60.009 3.52797 46.6831 3.52797 46.293 12.9083C46.293 16.8044 49.4582 19.9806 53.3433 19.9806H53.3488Z" fill="white"/>
<path d="M48.3098 25.5578C48.3482 23.9147 47.0459 22.6069 45.3973 22.4805H32.2418V41.939C32.2418 44.192 30.3899 46.0054 28.1369 46.0054H17.1465C19.0203 52.9733 25.2134 57.8256 32.4616 58.0125C41.0836 57.7926 47.9526 50.8742 48.2933 42.3786C48.3208 41.5213 48.2933 26.0029 48.3043 25.5523L48.3098 25.5578Z" fill="white"/>
<path d="M30.9998 41.9444V16.672C30.9998 15.1058 29.7084 13.7705 28.1423 13.7705H2.86984C1.3037 13.7705 0.00683594 15.1058 0.00683594 16.672V41.9444C0.00683594 43.5105 1.3037 44.7689 2.86984 44.7689H28.1423C29.7084 44.7689 30.9998 43.5105 30.9998 41.9444ZM23.4054 23.5355C23.4054 24.3927 22.735 25.0961 21.8722 25.0961H18.4268V37.6032C18.4268 38.4605 17.6794 39.1583 16.8222 39.1583H14.0471C13.1898 39.1583 12.448 38.4605 12.448 37.6032V25.0961H8.93654C8.07929 25.0961 7.34293 24.3982 7.34293 23.5355V21.178C7.34293 20.3208 8.07379 19.6174 8.93654 19.6174H21.8667C22.724 19.6174 23.3999 20.3153 23.3999 21.178V23.5355H23.4054Z" fill="white"/>
<path d="M32.2414 16.6731V18.9041C37.5937 19.5471 42.347 15.3488 42.347 9.92499C42.347 4.94084 38.2861 0.879883 33.3019 0.879883C28.3178 0.879883 24.2568 4.90787 24.2568 9.89201C24.2568 10.7987 24.3887 11.7769 24.6525 12.5242H28.1419C30.395 12.5242 32.2469 14.4146 32.2469 16.6676L32.2414 16.6731Z" fill="white"/>
<path d="M60.9977 39.0928V25.5142C60.9977 23.8546 59.6679 22.4863 58.0028 22.4863H48.3203C49.1226 23.3601 49.5512 24.4151 49.5512 25.5911C49.5512 25.679 49.5512 41.3733 49.5512 41.3569C49.6117 43.9231 49.1006 46.4839 48.04 48.8633C54.2991 50.7317 61.1241 45.7255 60.9977 39.0873V39.0928Z" fill="white"/>
</svg>
