<svg width="188" height="34" viewBox="0 0 188 34" fill="none" xmlns="http://www.w3.org/2000/svg">
<path fill-rule="evenodd" clip-rule="evenodd" d="M32.7976 12.8706C35.0727 15.1457 35.0727 18.8363 32.7976 21.1114C30.5225 23.3865 26.8318 23.3865 24.5568 21.1114C22.2817 18.8363 22.2817 15.1457 24.5568 12.8706C26.8318 10.5955 30.5225 10.5955 32.7976 12.8706ZM28.6845 7.2788C31.1684 7.2788 33.6498 8.22817 35.5461 10.1245C39.3388 13.9171 39.3388 20.0674 35.5461 23.86C31.7535 27.6526 25.6032 27.6526 21.8106 23.86C18.018 20.0674 18.018 13.9171 21.8106 10.1245C23.7045 8.23059 26.1884 7.28122 28.6723 7.2788H28.6845ZM53.1932 12.8706C55.4683 15.1457 55.4683 18.8363 53.1932 21.1114C50.9182 23.3865 47.2275 23.3865 44.9524 21.1114C42.6773 18.8363 42.6773 15.1457 44.9524 12.8706C47.2275 10.5955 50.9182 10.5955 53.1932 12.8706ZM55.9394 10.122C59.732 13.9147 59.732 20.0649 55.9394 23.8576C52.1468 27.6502 45.9965 27.6502 42.2039 23.8576C38.4112 20.0649 38.4112 13.9147 42.2039 10.122C44.0978 8.22816 46.5816 7.2788 49.0656 7.27637C51.5616 7.27637 54.0455 8.22574 55.9394 10.122ZM4.39661 26.6547L5.36783 26.7032H19.9362L19.8876 25.732C19.7565 24.1319 18.625 22.9665 17.0225 22.8669L16.0513 22.8184H7.31028L18.9649 11.1637L18.9164 10.1925C18.8387 8.58023 17.6611 7.41234 16.0513 7.32736L15.0801 7.2788H0.511719L0.56028 8.24759C0.686539 9.82825 1.83501 11.0229 3.42539 11.1127L4.39661 11.1613H13.1376L1.48294 22.8184L1.5315 23.7896C1.6262 25.3897 2.78438 26.5503 4.39661 26.6547ZM70.8889 13.0988C71.2216 13.6719 71.326 14.3177 71.3624 15.0486L71.4109 16.0198V22.8184L71.4595 23.7896C71.5566 25.3775 72.7221 26.5551 74.3246 26.6547L75.2958 26.7032V16.0198L75.3444 15.0486C75.3833 14.3274 75.4877 13.667 75.8227 13.094C76.4953 11.9407 77.7482 11.1637 79.1807 11.1637C80.6133 11.1637 81.8734 11.9455 82.546 13.1061C82.8762 13.6767 82.9782 14.3372 83.0171 15.0486L83.0656 16.0198V22.8184L83.1142 23.7896C83.2137 25.3872 84.3743 26.5624 85.9793 26.6547L86.9505 26.7032V15.0486C86.9505 10.7582 83.4711 7.2788 79.1807 7.2788C76.8595 7.2788 74.7762 8.29615 73.3534 9.90838C71.9306 8.29615 69.8473 7.2788 67.5261 7.2788C65.9138 7.2788 64.4157 7.76926 63.175 8.6118C62.4199 7.77169 60.7275 7.2788 59.7563 7.2788V26.7032L60.7275 26.6547C62.3494 26.5478 63.5295 25.4018 63.5926 23.7896L63.6412 22.8184V16.0198L63.6897 15.0486C63.731 14.3177 63.833 13.6694 64.1656 13.0964C64.8382 11.9407 66.0911 11.1637 67.5261 11.1637C68.961 11.1637 70.2163 11.9431 70.8889 13.0988Z" fill="white"/>
<path d="M89.8833 7.28027H90.0581C90.5923 7.28027 91.0269 7.71247 91.0293 8.24664L91.056 12.5443C92.6391 9.40968 95.8684 7.28756 99.6052 7.28756C105.017 7.28756 109.424 11.7236 109.325 17.1892C109.23 22.3876 104.937 26.627 99.7363 26.6974C95.9437 26.7484 92.6561 24.6142 91.0536 21.4431L91.0245 33.0225C91.0245 33.5567 90.5874 33.9913 90.0532 33.9913H89.8809V7.28027H89.8833ZM99.6052 25.6194C104.354 25.6194 108.154 21.7563 108.154 17.0071C108.154 12.2578 104.354 8.36319 99.6052 8.36319C94.8559 8.36319 91.056 12.2262 91.0245 17.0071C91.0245 21.7563 94.8559 25.6194 99.6052 25.6194Z" fill="white"/>
<path d="M126.729 26.7038C126.193 26.7038 125.758 26.2691 125.758 25.7325V14.8209C125.758 11.2419 122.876 8.36222 119.331 8.36222C115.468 8.36222 112.365 11.4653 112.365 15.3599V25.7325C112.365 26.2691 111.93 26.7038 111.394 26.7038H111.224V0H111.394C111.93 0 112.365 0.434622 112.365 0.971222V11.305C113.759 8.86726 116.323 7.28417 119.331 7.28417C123.478 7.28417 126.868 10.6397 126.868 14.8209V26.7038H126.729Z" fill="white"/>
<path d="M138.489 26.6965C133.137 26.6965 128.767 22.3576 128.767 16.9746C128.767 11.5916 133.137 7.28418 138.489 7.28418C143.84 7.28418 148.242 11.6231 148.242 16.9746C148.242 22.326 143.872 26.6965 138.489 26.6965ZM138.489 8.35981C133.771 8.35981 129.939 12.2228 129.939 16.9721C129.939 21.7214 133.771 25.616 138.489 25.616C143.206 25.616 147.069 21.753 147.069 16.9721C147.069 12.1913 143.238 8.35981 138.489 8.35981Z" fill="white"/>
<path d="M165.615 26.7047C165.079 26.7047 164.644 26.2701 164.644 25.7335V14.8218C164.644 11.3376 161.762 8.36319 158.217 8.36319C154.417 8.36319 151.282 11.4978 151.282 15.3924V25.7335C151.282 26.2701 150.848 26.7047 150.311 26.7047H150.144V7.28027H150.311C150.848 7.28027 151.282 7.7149 151.282 8.2515V11.4031C152.644 8.99691 155.145 7.28756 158.217 7.28756C162.43 7.28756 165.785 10.58 165.785 14.8242V26.7071H165.615V26.7047Z" fill="white"/>
<path d="M187.061 17.5112H168.853C169.168 22.0395 172.81 25.6185 177.37 25.6185C180.221 25.6185 182.671 24.1835 184.266 21.9886C184.586 21.5466 185.206 21.452 185.64 21.7822L185.73 21.8502C183.89 24.9532 180.468 26.9928 176.535 26.6601C172.043 26.2814 168.365 22.7728 167.77 18.3052C166.976 12.3492 171.601 7.2624 177.407 7.28425C182.717 7.30367 187.061 11.8514 187.061 17.1616V17.5112ZM185.888 16.4356C185.604 11.9073 181.899 8.35988 177.37 8.35988C172.842 8.35988 169.168 11.9073 168.853 16.4356H185.888Z" fill="white"/>
</svg>
