<svg width="84" height="30" viewBox="0 0 84 30" fill="none" xmlns="http://www.w3.org/2000/svg">
<path d="M11.0914 12.2438C11.8062 12.189 12.474 12.0309 13.0921 11.769C13.7114 11.5072 14.2204 11.1274 14.6189 10.6317C15.017 10.1345 15.2167 9.47245 15.2167 8.64523C15.2167 7.40408 14.8054 6.45349 13.9813 5.79034C13.1584 5.12834 12.2114 4.79742 11.1418 4.79742C9.65887 4.79742 8.53956 5.28601 7.7857 6.26186C7.0297 7.23789 6.66689 8.46952 6.69413 9.95332H1.10876C1.16422 8.46968 1.43268 7.11484 1.91299 5.89255C2.39446 4.67125 3.06922 3.62288 3.93713 2.74792C4.8034 1.87296 5.84328 1.19784 7.05383 0.718112C8.26453 0.239371 9.61407 0 11.1003 0C12.2559 0 13.4121 0.172268 14.5678 0.515984C15.7245 0.860192 16.7628 1.37618 17.6857 2.06394C18.6081 2.7517 19.358 3.5899 19.9354 4.58118C20.5131 5.57131 20.8033 6.71255 20.8033 8.00472C20.8033 9.4083 20.4668 10.646 19.796 11.7192C19.1245 12.7923 18.1187 13.5206 16.7774 13.9055V13.9883C18.3673 14.3463 19.6141 15.1163 20.5201 16.2998C21.4249 17.4832 21.8767 18.8999 21.8767 20.5499C21.8767 22.0638 21.5807 23.4119 20.9883 24.5955C20.3954 25.7795 19.6043 26.7685 18.6127 27.5678C17.6217 28.3648 16.4781 28.9707 15.183 29.3825C13.8885 29.7937 12.5384 30.0011 11.1351 30.0011C9.50954 30.0011 8.02987 29.7668 6.69298 29.2995C5.35723 28.8296 4.2202 28.148 3.28419 27.251C2.34703 26.3552 1.625 25.2612 1.11548 23.9674C0.605306 22.6741 0.364904 21.19 0.3928 19.5129H5.9785C6.00541 20.283 6.12947 21.018 6.35133 21.7189C6.57204 22.42 6.88989 23.0252 7.30391 23.5336C7.71793 24.0419 8.2345 24.4486 8.85594 24.7512C9.47688 25.0525 10.2153 25.2035 11.0701 25.2035C12.3949 25.2035 13.5132 24.7996 14.4234 23.9904C15.3348 23.1814 15.7899 22.0776 15.7899 20.6782C15.7899 19.5798 15.5701 18.7428 15.1322 18.1671C14.693 17.5902 14.1445 17.173 13.484 16.9111C12.8235 16.6509 12.101 16.5 11.3176 16.4595C10.5335 16.4178 9.78424 16.3963 9.07058 16.3963V12.2438C9.70252 12.2986 10.3761 12.2986 11.0914 12.2438Z" fill="white"/>
<path d="M38.8781 3.74359C42.1448 3.74359 45.3799 5.06481 47.7539 7.3691L48.3875 7.98336V3.02679L48.2288 2.91539C45.514 1.01175 42.5202 0.0869141 39.0763 0.0869141C30.2625 0.0869141 23.0918 6.83244 23.0918 15.1236C23.0918 23.4148 30.2625 29.9369 39.0763 29.9369C42.293 29.9369 45.5409 28.9335 48.2246 27.1122L48.3877 27.0008V22.0596L47.7585 22.6503C45.3028 24.9573 42.0944 26.2802 38.9578 26.2802C32.5712 26.2802 27.1755 21.1199 27.1755 15.0117C27.1755 8.9036 32.5344 3.74376 38.8783 3.74376L38.8781 3.74359Z" fill="white"/>
<path d="M48.4385 9.35547V20.8759L53.4795 14.8759L48.4385 9.35547Z" fill="white"/>
<path d="M78.9633 29.7399L67.1025 15.2564L78.9611 0.811523H72.6705L63.9725 11.4329L55.2751 0.811523H48.985L60.8437 15.2564L48.9824 29.7399H55.2109L63.9725 19.0692L72.7353 29.7399H78.9633Z" fill="white"/>
<path d="M79.7549 28.1065C79.7549 27.2053 80.4738 26.4863 81.3835 26.4863C82.2933 26.4863 83.0122 27.2051 83.0122 28.1065C83.0122 29.0078 82.2935 29.7266 81.3835 29.7266C80.4736 29.7266 79.7549 29.0078 79.7549 28.1065ZM82.7629 28.1065C82.7629 27.3421 82.1272 26.7355 81.3835 26.7355C80.6399 26.7355 80.0041 27.3421 80.0041 28.1065C80.0041 28.8708 80.6399 29.4774 81.3835 29.4774C82.1272 29.4774 82.7629 28.8708 82.7629 28.1065ZM82.1563 28.9831H81.8575L81.3255 28.1647H81.0265V28.9831H80.777V27.2094H81.5501C81.8699 27.2094 82.1814 27.2963 82.1814 27.6788C82.1814 28.0276 81.9362 28.1565 81.6207 28.1647L82.1564 28.9831H82.1563ZM81.3255 27.9155C81.5455 27.9155 81.9321 27.957 81.9321 27.6745C81.9321 27.4917 81.6911 27.4584 81.5001 27.4584H81.0265V27.9153H81.3255V27.9155Z" fill="white"/>
</svg>
