<svg width="44" height="44" viewBox="0 0 44 44" fill="none" xmlns="http://www.w3.org/2000/svg">
<rect width="44" height="44" rx="10" fill="#D5EFFF"/>
<path d="M26 31V15C26 14.4696 25.7893 13.9609 25.4142 13.5858C25.0391 13.2107 24.5304 13 24 13H20C19.4696 13 18.9609 13.2107 18.5858 13.5858C18.2107 13.9609 18 14.4696 18 15V31M14 17H30C31.1046 17 32 17.8954 32 19V29C32 30.1046 31.1046 31 30 31H14C12.8954 31 12 30.1046 12 29V19C12 17.8954 12.8954 17 14 17Z" stroke="#0452D8" stroke-width="2" stroke-linecap="round" stroke-linejoin="round"/>
</svg>
