<svg width="44" height="44" viewBox="0 0 44 44" fill="none" xmlns="http://www.w3.org/2000/svg">
<rect width="44" height="44" rx="10" fill="#D5EFFF"/>
<g clip-path="url(#clip0_140_22371)">
<path d="M26 26L22 22M22 22L18 26M22 22V31M30.39 28.39C31.3653 27.8583 32.1358 27.0169 32.5798 25.9986C33.0239 24.9804 33.1162 23.8432 32.8422 22.7667C32.5682 21.6901 31.9434 20.7355 31.0666 20.0534C30.1898 19.3714 29.1108 19.0007 28 19H26.74C26.4373 17.8292 25.8731 16.7423 25.0899 15.821C24.3067 14.8996 23.3248 14.1678 22.2181 13.6806C21.1113 13.1933 19.9085 12.9633 18.7001 13.0079C17.4916 13.0524 16.309 13.3703 15.2411 13.9376C14.1732 14.505 13.2479 15.3071 12.5346 16.2836C11.8213 17.26 11.3387 18.3855 11.1229 19.5754C10.9072 20.7652 10.9641 21.9885 11.2892 23.1532C11.6143 24.318 12.1992 25.3938 13 26.3" stroke="#0452D8" stroke-width="2" stroke-linecap="round" stroke-linejoin="round"/>
</g>
<defs>
<clipPath id="clip0_140_22371">
<rect width="24" height="24" fill="white" transform="translate(10 10)"/>
</clipPath>
</defs>
</svg>
