<svg width="44" height="44" viewBox="0 0 44 44" fill="none" xmlns="http://www.w3.org/2000/svg">
<rect width="44" height="44" rx="10" fill="#D5EFFF"/>
<path d="M16 16H16.01M16 28H16.01M14 12H30C31.1046 12 32 12.8954 32 14V18C32 19.1046 31.1046 20 30 20H14C12.8954 20 12 19.1046 12 18V14C12 12.8954 12.8954 12 14 12ZM14 24H30C31.1046 24 32 24.8954 32 26V30C32 31.1046 31.1046 32 30 32H14C12.8954 32 12 31.1046 12 30V26C12 24.8954 12.8954 24 14 24Z" stroke="#0452D8" stroke-width="2" stroke-linecap="round" stroke-linejoin="round"/>
</svg>
