<svg width="44" height="44" viewBox="0 0 44 44" fill="none" xmlns="http://www.w3.org/2000/svg">
<rect width="44" height="44" rx="10" fill="#D5EFFF"/>
<path d="M31.21 25.89C30.5738 27.3945 29.5788 28.7202 28.3119 29.7513C27.0449 30.7824 25.5447 31.4874 23.9424 31.8048C22.3401 32.1221 20.6844 32.0421 19.1201 31.5718C17.5558 31.1014 16.1306 30.2551 14.969 29.1067C13.8074 27.9582 12.9448 26.5428 12.4566 24.9839C11.9684 23.4251 11.8695 21.7705 12.1686 20.1646C12.4676 18.5588 13.1555 17.0506 14.172 15.772C15.1886 14.4934 16.5029 13.4833 18 12.83M32 22C32 20.6868 31.7413 19.3864 31.2388 18.1732C30.7362 16.9599 29.9996 15.8575 29.071 14.9289C28.1425 14.0003 27.0401 13.2638 25.8268 12.7612C24.6136 12.2587 23.3132 12 22 12V22H32Z" stroke="#0452D8" stroke-width="2" stroke-linecap="round" stroke-linejoin="round"/>
</svg>
