<svg width="44" height="44" viewBox="0 0 44 44" fill="none" xmlns="http://www.w3.org/2000/svg">
<rect width="44" height="44" rx="10" fill="#D5EFFF"/>
<path d="M26.2399 17.7599C26.7978 18.3172 27.2404 18.9789 27.5423 19.7073C27.8442 20.4357 27.9997 21.2164 27.9997 22.0049C27.9997 22.7934 27.8442 23.5742 27.5423 24.3026C27.2404 25.031 26.7978 25.6927 26.2399 26.2499M17.7599 26.2399C17.2021 25.6827 16.7595 25.021 16.4576 24.2926C16.1556 23.5642 16.0002 22.7834 16.0002 21.9949C16.0002 21.2064 16.1556 20.4257 16.4576 19.6973C16.7595 18.9689 17.2021 18.3072 17.7599 17.7499M29.0699 14.9299C30.9446 16.8052 31.9978 19.3483 31.9978 21.9999C31.9978 24.6516 30.9446 27.1947 29.0699 29.0699M14.9299 29.0699C13.0552 27.1947 12.0021 24.6516 12.0021 21.9999C12.0021 19.3483 13.0552 16.8052 14.9299 14.9299M23.9999 21.9999C23.9999 23.1045 23.1045 23.9999 21.9999 23.9999C20.8954 23.9999 19.9999 23.1045 19.9999 21.9999C19.9999 20.8954 20.8954 19.9999 21.9999 19.9999C23.1045 19.9999 23.9999 20.8954 23.9999 21.9999Z" stroke="#0452D8" stroke-width="2" stroke-linecap="round" stroke-linejoin="round"/>
</svg>
