<svg width="44" height="44" viewBox="0 0 44 44" fill="none" xmlns="http://www.w3.org/2000/svg">
<rect width="44" height="44" rx="10" fill="#D5EFFF"/>
<path d="M29 20V22C29 23.8565 28.2625 25.637 26.9497 26.9497C25.637 28.2625 23.8565 29 22 29M22 29C20.1435 29 18.363 28.2625 17.0503 26.9497C15.7375 25.637 15 23.8565 15 22V20M22 29V33M18 33H26M22 11C21.2044 11 20.4413 11.3161 19.8787 11.8787C19.3161 12.4413 19 13.2044 19 14V22C19 22.7956 19.3161 23.5587 19.8787 24.1213C20.4413 24.6839 21.2044 25 22 25C22.7956 25 23.5587 24.6839 24.1213 24.1213C24.6839 23.5587 25 22.7956 25 22V14C25 13.2044 24.6839 12.4413 24.1213 11.8787C23.5587 11.3161 22.7956 11 22 11Z" stroke="#0452D8" stroke-width="2" stroke-linecap="round" stroke-linejoin="round"/>
</svg>
