<svg width="144" height="48" viewBox="0 0 144 48" fill="none" xmlns="http://www.w3.org/2000/svg">
<g clip-path="url(#clip0_140_22591)">
<path d="M144 0H0V48H144V0Z" fill="#E1251B"/>
<path d="M62.7345 16.1775C60.6078 16.1775 58.1886 17.163 56.7108 19.1376V19.134V19.1358V16.488H51.6384V34.9624H56.7108V24.4503C56.7108 22.5585 58.1769 20.547 60.8931 20.547C62.9928 20.547 65.1645 22.0068 65.1645 24.4503V34.9624H70.2378V23.5098C70.2378 19.2618 67.1985 16.1784 62.7354 16.1784" fill="white"/>
<path d="M106.292 16.488L101.705 29.0728L97.119 16.488H91.3248L98.9262 34.9553H104.485L112.086 16.488H106.292Z" fill="white"/>
<path d="M46.2393 29.2815C44.1036 30.861 42.8841 31.239 40.9374 31.239C39.1851 31.239 37.8135 30.6954 36.846 29.7405L49.815 24.3603C49.5324 22.3551 48.7719 20.5649 47.6001 19.2032C45.8964 17.2232 43.3737 16.1765 40.3038 16.1765C34.7256 16.1765 30.519 20.2922 30.519 25.7265C30.519 31.1607 34.7346 35.2755 40.8618 35.2755C44.2944 35.2755 47.8053 33.6483 49.446 31.7475L46.2384 29.2815H46.2393ZM36.4932 22.0535C37.3572 20.8934 38.7333 20.213 40.3956 20.213C42.2244 20.213 43.6104 21.257 44.3277 22.7979L35.4654 26.4744C35.2233 24.588 35.7057 23.112 36.4941 22.0535H36.4932Z" fill="white"/>
<path d="M30.0357 30.3031H18.5058V10.9629H13.3641V34.9615H30.0357V30.3031Z" fill="white"/>
<path d="M121.195 35.2728C115.647 35.2728 111.3 31.14 111.3 25.7256C111.3 20.3111 115.677 16.1765 121.263 16.1765C126.85 16.1765 131.157 20.3093 131.157 25.7256C131.157 31.1418 126.781 35.2728 121.195 35.2728ZM121.195 20.5235C118.362 20.5235 116.305 22.6701 116.305 25.7247C116.305 28.7793 118.483 30.9258 121.263 30.9258C124.043 30.9258 126.153 28.7199 126.153 25.7247C126.153 22.7295 123.975 20.5235 121.195 20.5235Z" fill="white"/>
<path d="M82.1376 35.2728C76.59 35.2728 72.243 31.14 72.243 25.7256C72.243 20.3111 76.6197 16.1765 82.206 16.1765C87.7923 16.1765 92.0997 20.3093 92.0997 25.7256C92.0997 31.1418 87.7239 35.2728 82.1376 35.2728ZM82.1376 20.5235C79.3044 20.5235 77.2479 22.6701 77.2479 25.7247C77.2479 28.7793 79.4259 30.9258 82.206 30.9258C84.9861 30.9258 87.0957 28.7199 87.0957 25.7247C87.0957 22.7295 84.9177 20.5235 82.1376 20.5235Z" fill="white"/>
</g>
<defs>
<clipPath id="clip0_140_22591">
<rect width="144" height="48" rx="10" fill="white"/>
</clipPath>
</defs>
</svg>
