<svg width="48" height="48" viewBox="0 0 48 48" fill="none" xmlns="http://www.w3.org/2000/svg">
<rect width="48" height="48" rx="16" fill="#D5EFFF"/>
<rect x="13.5" y="13.5" width="21" height="21" rx="10.5" fill="#1275B1"/>
<path d="M21.4639 19.2691C21.4639 19.97 20.8564 20.5382 20.107 20.5382C19.3575 20.5382 18.75 19.97 18.75 19.2691C18.75 18.5682 19.3575 18 20.107 18C20.8564 18 21.4639 18.5682 21.4639 19.2691Z" fill="white"/>
<path d="M18.9356 21.4711H21.2552V28.5H18.9356V21.4711Z" fill="white"/>
<path d="M24.9897 21.4711H22.6701V28.5H24.9897C24.9897 28.5 24.9897 26.2872 24.9897 24.9036C24.9897 24.0732 25.2732 23.2392 26.4046 23.2392C27.6833 23.2392 27.6756 24.3259 27.6696 25.1678C27.6618 26.2683 27.6804 27.3914 27.6804 28.5H30V24.7903C29.9804 22.4215 29.3631 21.3301 27.3325 21.3301C26.1265 21.3301 25.379 21.8775 24.9897 22.3729V21.4711Z" fill="white"/>
</svg>
