<svg width="48" height="48" viewBox="0 0 48 48" fill="none" xmlns="http://www.w3.org/2000/svg">
<path d="M37.9184 41.2819L36.9273 36.1508C36.9165 36.0942 36.8878 36.0429 36.8457 36.0037L32.729 32.1871C32.5954 32.0631 32.3868 32.1062 32.3062 32.2697C31.579 33.7481 30.3184 35.1087 28.5551 36.292C27.3123 37.1274 26.0737 37.7062 25.2827 38.0352C25.0386 38.1366 25.0682 38.49 25.3258 38.5489L29.2533 39.4488C29.2865 39.4564 29.3178 39.4702 29.3458 39.4893L32.6487 41.7505C32.706 41.7897 32.7458 41.8492 32.7606 41.917L33.3746 44.78C33.4013 44.9047 33.5115 44.9939 33.6392 44.9939H38.8203C38.9697 44.9939 39.0911 44.8728 39.0911 44.7231V42.4698C39.0911 42.3898 39.0556 42.3138 38.9944 42.2625L38.0105 41.4376C37.9628 41.3978 37.9306 41.3425 37.9187 41.2816L37.9184 41.2819Z" fill="#1C1E23"/>
<path d="M19.1773 36.292C17.4143 35.1071 16.1521 33.7481 15.4265 32.27C15.3462 32.1065 15.1376 32.0634 15.0037 32.1871L10.885 36.0037C10.8429 36.0429 10.8143 36.0942 10.8031 36.1508L9.80971 41.2846C9.79787 41.3454 9.76529 41.4007 9.71791 41.4405L8.73636 42.2628C8.67549 42.3145 8.63995 42.3905 8.63995 42.4704V44.7237C8.63995 44.8731 8.76104 44.9942 8.91076 44.9942H14.0919C14.2196 44.9942 14.3298 44.9051 14.3565 44.7803L14.9701 41.9173C14.9846 41.8495 15.0248 41.79 15.082 41.7508L18.385 39.4896C18.4129 39.4705 18.4442 39.4567 18.4774 39.4491L22.4056 38.5492C22.6632 38.4903 22.6928 38.1369 22.4487 38.0356C21.658 37.7068 20.4201 37.1281 19.1773 36.2926" fill="#1C1E23"/>
<path d="M14.6217 16.3637L12.9906 14.6201C12.9383 14.5641 12.912 14.4884 12.9185 14.4121L13.1584 11.5869C13.166 11.4981 13.217 11.4184 13.2946 11.3744L14.4229 10.734C14.4855 10.6985 14.5312 10.6396 14.5503 10.5702L15.3568 7.62883C15.4041 7.45641 15.2745 7.28662 15.0958 7.28662H12.5589C12.4684 7.28662 12.3835 7.33203 12.3335 7.40738L8.68503 12.8988C8.65575 12.9432 8.63995 12.9952 8.63995 13.0485V19.0796C8.63995 19.1369 8.65805 19.1928 8.69194 19.2392L14.2054 26.7829C14.3601 26.9942 14.6947 26.8849 14.6947 26.6233V16.5486C14.6947 16.4798 14.6687 16.4137 14.6217 16.3637Z" fill="#1C1E23"/>
<path d="M35.1713 7.28662H32.6344C32.4557 7.28662 32.326 7.45641 32.3734 7.62883L33.1786 10.5702C33.1977 10.6396 33.2434 10.6988 33.3063 10.734L34.4362 11.3744C34.5139 11.4184 34.5649 11.4981 34.5724 11.5869L34.812 14.4114C34.8186 14.4881 34.7922 14.5638 34.7396 14.6197L33.1033 16.3614C33.0562 16.4117 33.0299 16.4779 33.0299 16.547L33.0351 26.624C33.0351 26.8856 33.3698 26.9948 33.5244 26.7836L39.0389 19.2392C39.0728 19.1928 39.0909 19.1369 39.0909 19.0796V13.0485C39.0909 12.9952 39.0751 12.9432 39.0458 12.8988L35.397 7.40771C35.347 7.33236 35.2621 7.28695 35.1716 7.28695L35.1713 7.28662Z" fill="#1C1E23"/>
<path d="M31.1358 17.6531C30.3369 17.303 26.6684 15.7654 23.8524 15.7654C21.0364 15.7654 17.3679 17.303 16.569 17.6531C16.4706 17.6962 16.411 17.792 16.411 17.8992V28.9502C16.411 33.9613 23.3976 36.3426 23.6981 36.4423L23.8524 36.492H23.854L24.0087 36.4423C24.3078 36.3426 31.2937 33.9613 31.2937 28.9502V17.8992C31.2937 17.792 31.2342 17.6962 31.1358 17.6531ZM23.2835 17.8963C23.5026 17.7219 23.7882 17.6584 24.0672 17.7222C24.4052 17.7999 24.6783 18.0815 24.7474 18.4231C24.8132 18.7505 24.7046 19.0762 24.4565 19.2947C24.4111 19.3349 24.3851 19.3931 24.3851 19.4546V27.61C24.3851 27.7663 24.3167 27.9144 24.1975 28.0158C24.1005 28.098 23.9781 28.1424 23.8514 28.1424C23.8224 28.1424 23.7932 28.1401 23.7639 28.1355C23.5108 28.0944 23.32 27.8585 23.32 27.587V19.4543C23.32 19.3925 23.295 19.3349 23.2512 19.2967C23.0528 19.1233 22.9389 18.8732 22.9389 18.6113C22.9389 18.3313 23.0646 18.0707 23.2838 17.8963H23.2835ZM19.0305 20.632C19.0707 20.3635 19.2286 20.1272 19.4636 19.9837C19.7758 19.7929 20.196 19.8159 20.4859 20.0387C20.7508 20.2424 20.8824 20.5602 20.838 20.8886C20.8308 20.9416 20.8505 20.9989 20.8923 21.0456L21.9189 22.2035C22.0054 22.3009 22.0532 22.4266 22.0532 22.5569V27.5304C22.017 28.9002 23.2742 29.4589 23.8507 29.6426C24.4233 29.4543 25.6727 28.8877 25.6516 27.5386V22.5569C25.6516 22.4266 25.6993 22.3009 25.7859 22.2035L26.8128 21.0456C26.8539 20.9992 26.873 20.9396 26.8658 20.882C26.8322 20.6205 26.9128 20.3579 27.0869 20.1618C27.2669 19.9587 27.5272 19.8482 27.7973 19.8544C28.0688 19.8623 28.3221 19.9907 28.4929 20.2072C28.7193 20.4944 28.7473 20.9143 28.5607 21.2289C28.3899 21.5161 28.0905 21.6918 27.7591 21.68C27.7055 21.678 27.6515 21.7056 27.6098 21.7527L26.7171 22.7592V27.5304C26.7516 29.7107 24.7076 30.4977 24.0804 30.6873C23.9899 30.7169 23.9389 30.7333 23.8527 30.7333C23.7665 30.7333 23.7168 30.7169 23.6332 30.6896C23.0005 30.503 20.9305 29.7202 20.9887 27.5166V22.7596L20.0957 21.7524C20.0545 21.7063 19.9927 21.6803 19.9397 21.6803H19.9334C19.6719 21.6803 19.4234 21.5691 19.251 21.3746C19.071 21.1716 18.9907 20.9011 19.0309 20.6326L19.0305 20.632ZM29.2204 25.4531C29.1767 25.4913 29.1517 25.5489 29.1517 25.6108V28.1013C29.1517 31.9209 24.3305 33.5618 24.1252 33.6299C23.9738 33.6793 23.9379 33.6908 23.852 33.6908C23.7662 33.6908 23.7346 33.6803 23.5816 33.6309C23.3756 33.5628 18.5524 31.9209 18.5524 28.1016V25.6111C18.5524 25.5492 18.5274 25.492 18.4837 25.4535C18.2849 25.2801 18.1711 25.03 18.1711 24.7677C18.1711 24.4877 18.2968 24.2271 18.5159 24.0527C18.7351 23.878 19.0207 23.8148 19.2997 23.8787C19.6376 23.9563 19.9107 24.2377 19.9798 24.5795C20.0456 24.9069 19.9371 25.2327 19.689 25.4512C19.6436 25.4913 19.6176 25.5496 19.6176 25.6111V28.1016C19.6176 30.9554 23.2844 32.3921 23.852 32.5974C24.1176 32.5013 25.1264 32.1111 26.1007 31.3974C27.4182 30.4329 28.0862 29.324 28.0862 28.1016V25.6111C28.0862 25.5496 28.0602 25.4913 28.0148 25.4512C27.7667 25.2324 27.6581 24.9066 27.7243 24.5795C27.793 24.238 28.0665 23.956 28.4044 23.8787C28.6831 23.8148 28.969 23.8783 29.1882 24.0527C29.4073 24.2275 29.533 24.4881 29.533 24.7677C29.533 25.03 29.4192 25.2797 29.2204 25.4535V25.4531Z" fill="#1C1E23"/>
<path d="M30.23 6.94409L31.0105 6.24914C31.0681 6.19781 31.1043 6.12674 31.1118 6.04974L31.253 4.62662C31.2615 4.5414 31.2339 4.45617 31.177 4.39201L30.0184 3.088C29.9641 3.02713 29.8881 2.98995 29.8065 2.98534L28.0264 2.88103C27.9583 2.87708 27.8908 2.89584 27.8345 2.93434L26.5098 3.84217C26.446 3.88594 26.368 3.90403 26.2916 3.89285L23.8511 3.53583C23.8241 3.53188 23.7965 3.53156 23.7695 3.53485L21.4343 3.82013C21.3645 3.82868 21.2941 3.81322 21.2345 3.77604L19.87 2.9271C19.8154 2.89321 19.7515 2.87675 19.6874 2.8807L17.8993 2.98567C17.8181 2.9906 17.7417 3.02746 17.6874 3.08833L16.5282 4.39234C16.4713 4.4565 16.4436 4.5414 16.4522 4.62695L16.5937 6.05007C16.6012 6.12674 16.6374 6.19781 16.695 6.24914L17.4752 6.94409C17.5634 7.02273 17.5989 7.14481 17.5663 7.25833L16.1768 12.1025C16.1554 12.1772 16.163 12.2572 16.1982 12.3266L17.5495 14.986C17.619 15.1225 17.7772 15.1877 17.922 15.138C18.7756 14.8451 21.6396 13.9222 23.8544 13.9222H23.857C26.0481 13.9222 28.9253 14.8435 29.7802 15.1347C29.9246 15.1841 30.0822 15.1189 30.1517 14.983L31.5067 12.3273C31.5422 12.2578 31.5498 12.1776 31.5284 12.1029L30.1388 7.25898C30.1063 7.14546 30.1418 7.02306 30.23 6.94475V6.94409ZM25.5885 7.78546L27.4203 7.7927C27.5193 7.7927 27.6091 7.84962 27.6516 7.93912L28.2169 8.61498C28.2521 8.67618 28.2837 8.74561 28.3113 8.82064C28.5979 9.59488 27.9089 10.5883 27.0932 10.4622C26.7168 10.404 26.439 10.2079 26.2337 9.82061L25.3591 8.27936C25.2755 8.10957 25.3989 7.78546 25.5885 7.78546ZM22.7314 11.0634H25.0416C25.318 11.0634 25.4466 11.4059 25.2384 11.5879L24.0834 12.5971C23.9705 12.6955 23.8024 12.6955 23.6899 12.5971L22.5349 11.5879C22.3266 11.4059 22.4553 11.0634 22.7317 11.0634H22.7314ZM19.4616 8.82096C19.4893 8.74594 19.5212 8.67651 19.5564 8.61531L20.1217 7.93945C20.1638 7.84995 20.254 7.79303 20.353 7.79303L22.1848 7.78579C22.3743 7.78579 22.4981 8.1099 22.4142 8.27968L21.5396 9.82093C21.3342 10.2082 21.0565 10.4043 20.6801 10.4626C19.8641 10.5889 19.1754 9.59554 19.462 8.82096H19.4616Z" fill="#1C1E23"/>
</svg>
