<svg width="48" height="48" viewBox="0 0 48 48" fill="none" xmlns="http://www.w3.org/2000/svg">
<rect width="48" height="48" rx="16" fill="#D5EFFF"/>
<path d="M14.154 16.7761C13.5 18.0595 13.5 19.7397 13.5 23.1V24.9C13.5 28.2603 13.5 29.9405 14.154 31.2239C14.7292 32.3529 15.6471 33.2708 16.7761 33.846C18.0595 34.5 19.7397 34.5 23.1 34.5H24.9C28.2603 34.5 29.9405 34.5 31.2239 33.846C32.3529 33.2708 33.2708 32.3529 33.846 31.2239C34.5 29.9405 34.5 28.2603 34.5 24.9V23.1C34.5 19.7397 34.5 18.0595 33.846 16.7761C33.2708 15.6471 32.3529 14.7292 31.2239 14.154C29.9405 13.5 28.2603 13.5 24.9 13.5H23.1C19.7397 13.5 18.0595 13.5 16.7761 14.154C15.6471 14.7292 14.7292 15.6471 14.154 16.7761Z" fill="url(#paint0_linear_515_562)"/>
<path d="M13.6989 18.2098C13.5 19.3402 13.5 20.8402 13.5 23.1001V24.9001C13.5 28.2604 13.5 29.9406 14.154 31.224C14.7292 32.353 15.6471 33.2709 16.7761 33.8461C18.0595 34.5001 19.7397 34.5001 23.1 34.5001H24.9C28.2603 34.5001 29.9405 34.5001 31.2239 33.8461C32.3529 33.2709 33.2708 32.353 33.846 31.224C34.5 29.9406 34.5 28.2604 34.5 24.9001V23.1001C34.5 19.7398 34.5 18.0596 33.846 16.7761C33.2908 15.6865 32.4164 14.7934 31.341 14.2153L13.6989 18.2098Z" fill="url(#paint1_linear_515_562)"/>
<path d="M34.2827 29.8906C34.1863 30.3974 34.0471 30.8295 33.846 31.224C33.2708 32.353 32.3529 33.2709 31.224 33.8461C29.9789 34.4805 28.3605 34.4995 25.1972 34.5001H24.0439V32.1277L34.2827 29.8906Z" fill="url(#paint2_linear_515_562)"/>
<path d="M24.9 13.5H23.1C22.4462 13.5 21.8561 13.5 21.3201 13.5048V16.4779L31.339 14.2142C31.3009 14.1937 31.2625 14.1736 31.2239 14.154C30.5114 13.7909 29.6766 13.6294 28.5 13.5576C27.5571 13.5 26.3948 13.5 24.9 13.5Z" fill="url(#paint3_linear_515_562)"/>
<path d="M34.5 25.0302C34.5 27.2844 34.496 28.7703 34.2828 29.8907L30.7218 30.6687V25.3621L34.5 24.4834V25.0302Z" fill="url(#paint4_linear_515_562)"/>
<path fill-rule="evenodd" clip-rule="evenodd" d="M23.2057 22.0334C23.2057 21.5514 23.5998 21.366 24.2525 21.366C25.1884 21.366 26.3707 21.6503 27.3066 22.157V19.2526C26.2845 18.8448 25.2746 18.6841 24.2525 18.6841C21.7525 18.6841 20.09 19.9942 20.09 22.1817C20.09 25.5929 24.7697 25.0491 24.7697 26.5198C24.7697 27.0883 24.2771 27.2737 23.5875 27.2737C22.5653 27.2737 21.2599 26.8535 20.2254 26.285V29.2265C21.3707 29.7208 22.5284 29.9309 23.5875 29.9309C26.149 29.9309 27.91 28.6579 27.91 26.4457C27.8977 22.7626 23.2057 23.4177 23.2057 22.0334Z" fill="white"/>
<defs>
<linearGradient id="paint0_linear_515_562" x1="13.5" y1="13.5" x2="20.3975" y2="18.3766" gradientUnits="userSpaceOnUse">
<stop stop-color="#392993"/>
<stop offset="1" stop-color="#4B47B9"/>
</linearGradient>
<linearGradient id="paint1_linear_515_562" x1="14.2908" y1="18.4309" x2="29.5175" y2="30.9908" gradientUnits="userSpaceOnUse">
<stop stop-color="#594BB9"/>
<stop offset="1" stop-color="#60A8F2"/>
</linearGradient>
<linearGradient id="paint2_linear_515_562" x1="24.0439" y1="32.2156" x2="34.5" y2="34.5001" gradientUnits="userSpaceOnUse">
<stop stop-color="#61A2EF"/>
<stop offset="1" stop-color="#58E6FD"/>
</linearGradient>
<linearGradient id="paint3_linear_515_562" x1="21.3201" y1="14.9937" x2="34.5" y2="13.5" gradientUnits="userSpaceOnUse">
<stop stop-color="#534EBE"/>
<stop offset="1" stop-color="#6875E2"/>
</linearGradient>
<linearGradient id="paint4_linear_515_562" x1="30.7218" y1="25.406" x2="34.5" y2="29.9311" gradientUnits="userSpaceOnUse">
<stop stop-color="#71A5F3"/>
<stop offset="1" stop-color="#6CC3FA"/>
</linearGradient>
</defs>
</svg>
