<?xml version="1.0" encoding="UTF-8"?>
<svg version="1.1" xmlns="http://www.w3.org/2000/svg" width="3840" height="2160">
<path d="M0 0 C168.63 0 337.26 0 511 0 C512.09943434 158.31854469 512.09943434 158.31854469 512.01707125 219.17342663 C511.97847121 249.09613744 512.02294832 279.01891048 512.05222067 308.94161442 C512.05838841 315.26020287 512.06429896 321.57879151 512.07004857 327.89738035 C512.07087146 328.80130314 512.07169435 329.70522594 512.07254218 330.63654033 C512.07378108 331.99748265 512.07378108 331.99748265 512.07504501 333.38591875 C512.13495916 399.18985557 512.20754881 464.99378015 512.28378862 530.79769987 C512.29504603 540.52073214 512.30622859 550.24376449 512.31738281 559.96679688 C512.31861614 561.04048363 512.31984946 562.11417039 512.32112016 563.2203931 C512.36122664 598.17627776 512.39467899 633.13216493 512.42468691 668.08805959 C512.45578502 704.27541907 512.49330767 740.46276632 512.53890612 776.65011058 C512.54535321 781.76832468 512.55172952 786.88653887 512.55806351 792.00475311 C512.55931181 793.01146774 512.56056012 794.01818238 512.56184625 795.05540351 C512.58159727 811.13059046 512.59473777 827.20577603 512.60529328 843.28097136 C512.6160472 859.43360632 512.63404341 875.58622091 512.65916704 891.73884001 C512.67253599 900.45752898 512.68289299 909.17619379 512.68421364 917.89489365 C512.69263509 960.30397205 512.80508459 1002.67371661 516.8125 1044.9375 C516.89648041 1045.84950165 516.98046082 1046.7615033 517.06698608 1047.70114136 C525.1066819 1134.59216492 546.3392742 1221.40494241 624 1340 C624.74636719 1340.92941406 625.49273438 1341.85882812 626.26171875 1342.81640625 C642.69258534 1363.08212501 660.14856269 1383.55039337 680.13671875 1400.4140625 C682.35471185 1402.30191407 684.48242155 1404.27702792 686.625 1406.25 C692.23150014 1411.30182357 698.12398749 1415.92821769 704.10058594 1420.52880859 C705.98772844 1421.99049506 707.85803354 1423.47165296 709.7265625 1424.95703125 C744.07845422 1452.03470927 783.29054608 1474.9498553 824 1491 C825.60246582 1491.63881104 825.60246582 1491.63881104 827.23730469 1492.29052734 C883.85706042 1514.74264021 944.975187 1528.96149649 1006.11328125 1529.203125 C1007.31376099 1529.21018463 1008.51424072 1529.21724426 1009.75109863 1529.22451782 C1013.60494039 1529.2420285 1017.45861974 1529.24850303 1021.3125 1529.25 C1021.97114925 1529.25029457 1022.62979851 1529.25058914 1023.30840683 1529.25089264 C1044.05022925 1529.25238975 1064.42651082 1528.8285345 1085 1526 C1086.47360576 1525.80448351 1087.94723972 1525.60917941 1089.42089844 1525.4140625 C1142.84218726 1518.23584138 1195.44924811 1503.5911036 1244 1480 C1244.74878418 1479.6380957 1245.49756836 1479.27619141 1246.26904297 1478.90332031 C1250.21511111 1476.98757527 1254.13221011 1475.02181052 1258.03076172 1473.01123047 C1260.10926847 1471.94388916 1262.19707386 1470.89612629 1264.28515625 1469.84765625 C1295.10592815 1454.18954697 1323.57734458 1434.2250137 1350 1412 C1350.56348145 1411.52675293 1351.12696289 1411.05350586 1351.70751953 1410.56591797 C1360.85907324 1402.86622568 1360.85907324 1402.86622568 1369.44921875 1394.5546875 C1371.12396958 1392.87571816 1372.88192726 1391.34962709 1374.6875 1389.8125 C1382.40477295 1383.14621753 1389.63851074 1375.80324944 1396.2421875 1368.03515625 C1398.3526414 1365.59171962 1400.55292879 1363.24081179 1402.75 1360.875 C1407.98548747 1355.12622945 1412.78059055 1349.0967398 1417.51416016 1342.93164062 C1419.06791462 1340.91170877 1420.63306483 1338.9009543 1422.19921875 1336.890625 C1478.88372003 1263.83733726 1508.42971702 1180.53688561 1530 996 C1530.0525293 995.09636719 1530.10505859 994.19273437 1530.15917969 993.26171875 C1531.77397482 965.38753705 1532.08313647 937.39043299 1532.02043056 909.47640371 C1532.00830837 903.82448502 1532.00534374 898.17255952 1532.00195312 892.52062988 C1532.00114982 891.33494093 1532.00034652 890.14925197 1531.99951887 888.92763305 C1531.99360599 875.48385825 1532.0396871 862.04033647 1532.09179688 848.59667969 C1532.09670891 847.31771726 1532.10162094 846.03875483 1532.10668182 844.72103596 C1532.13749407 836.76682864 1532.16982863 828.81262821 1532.20263672 820.85842896 C1532.22859861 814.51581096 1532.25340124 808.17318859 1532.27832031 801.83056641 C1532.35109159 783.47037312 1532.42564682 765.11018695 1532.5 746.75 C1532.665 705.5825 1532.83 664.415 1533 622 C1617.15 622 1701.3 622 1788 622 C1788 537.85 1788 453.7 1788 367 C1724.64 367 1661.28 367 1596 367 C1595.979375 335.505625 1595.95875 304.01125 1595.9375 271.5625 C1595.928396 261.60006104 1595.91929199 251.63762207 1595.90991211 241.37329102 C1595.90539551 229.25378418 1595.90539551 229.25378418 1595.90455627 223.588974 C1595.90362064 219.61317899 1595.89985742 215.63739719 1595.89442444 211.66160583 C1595.88759906 206.6003405 1595.88550255 201.53909456 1595.88692772 196.47782505 C1595.88662943 194.61403002 1595.88462668 192.75023435 1595.88078487 190.88644326 C1595.87585847 188.38138815 1595.87699248 185.87640978 1595.87974548 183.37135315 C1595.87683282 182.63130507 1595.87392015 181.891257 1595.87091923 181.12878323 C1595.88587517 176.11412483 1595.88587517 176.11412483 1597 175 C1599.4663066 174.90229329 1601.90459572 174.87003688 1604.37135315 174.87974548 C1605.1502742 174.87888947 1605.92919525 174.87803345 1606.73171997 174.87715149 C1609.37007886 174.8754862 1612.00837535 174.88103621 1614.64672852 174.88647461 C1616.55920122 174.8867807 1618.47167404 174.88664787 1620.38414669 174.88610935 C1625.52440514 174.88588278 1630.66464051 174.89169556 1635.80489349 174.89871979 C1640.62119116 174.90439773 1645.4374831 174.90468198 1650.25378418 174.90539551 C1664.35669253 174.91065127 1678.45959655 174.9246123 1692.5625 174.9375 C1724.056875 174.958125 1755.55125 174.97875 1788 175 C1788.33 238.03 1788.66 301.06 1789 366 C1873.15 366.33 1957.3 366.66 2044 367 C2044 451.15 2044 535.3 2044 622 C2040.48663343 622.70267331 2037.93800462 623.12478095 2034.48041821 623.12304783 C2033.59933958 623.1250387 2032.71826096 623.12702957 2031.81048298 623.12908077 C2030.8525846 623.12616811 2029.89468622 623.12325544 2028.90776062 623.12025452 C2027.8850708 623.12111053 2026.86238098 623.12196655 2025.80870056 623.12284851 C2022.36683415 623.12450531 2018.92501627 623.11897741 2015.4831543 623.11352539 C2012.97946836 623.11321911 2010.47578234 623.11335246 2007.97209644 623.11389065 C2001.9407103 623.11409373 1995.90934297 623.10980635 1989.87796154 623.10338932 C1982.90094042 623.09618845 1975.92392452 623.09539452 1968.94689941 623.09460449 C1950.52709725 623.08935446 1932.1072984 623.07539335 1913.6875 623.0625 C1872.540625 623.041875 1831.39375 623.02125 1789 623 C1788.67 706.82 1788.34 790.64 1788 877 C1806.39621094 876.98839844 1824.79242187 876.97679687 1843.74609375 876.96484375 C1855.3626303 876.95973751 1866.97916617 876.95487644 1878.59570312 876.95117188 C1884.69474287 876.94921386 1890.79378258 876.94719334 1896.89282227 876.94506836 C1897.65728694 876.94480461 1898.42175161 876.94454086 1899.20938188 876.94426912 C1911.56733246 876.93991427 1923.92527841 876.93202741 1936.28322624 876.9228472 C1948.95631985 876.91351108 1961.62941103 876.90794448 1974.30250794 876.90591151 C1982.12881798 876.90453619 1989.95511494 876.90018515 1997.78142095 876.89208353 C2003.77245809 876.88619591 2009.76348386 876.88554093 2015.75452423 876.88689232 C2018.21970513 876.88661579 2020.6848865 876.88460803 2023.15006447 876.88079453 C2026.49971481 876.87586425 2029.84930786 876.87699924 2033.19895935 876.87974548 C2034.18823832 876.87683264 2035.1775173 876.8739198 2036.19677442 876.87091869 C2037.08703134 876.87290974 2037.97728826 876.87490079 2038.89452267 876.87695217 C2039.66877242 876.87657245 2040.44302217 876.87619273 2041.24073404 876.8758015 C2043 877 2043 877 2044 878 C2044.09980386 879.38401893 2044.13074806 880.7730807 2044.13371277 882.16069031 C2044.13797775 883.06006821 2044.14224274 883.95944611 2044.14663696 884.88607788 C2044.14595718 886.38045883 2044.14595718 886.38045883 2044.14526367 887.9050293 C2044.15030159 889.4722599 2044.15030159 889.4722599 2044.15544128 891.07115173 C2044.16502913 894.57218591 2044.1669018 898.07317219 2044.16796875 901.57421875 C2044.17118852 904.04417438 2044.17455311 906.51412983 2044.17805481 908.98408508 C2044.18407394 914.21261904 2044.18593605 919.44114115 2044.18530273 924.66967773 C2044.18478128 929.92003054 2044.19188658 935.17031813 2044.20581055 940.4206543 C2044.32466665 985.95084346 2043.63743165 1031.46183098 2040.125 1076.875 C2039.95026044 1079.2138599 2039.77562127 1081.55272729 2039.60107422 1083.89160156 C2033.2870889 1167.30255745 2020.56878763 1250.40951084 1847 1625 C1845.82160904 1626.61588137 1844.64322375 1628.23176688 1843.46484375 1629.84765625 C1836.49395698 1639.38237298 1829.39924466 1648.7935197 1822 1658 C1821.4858252 1658.6403418 1820.97165039 1659.28068359 1820.44189453 1659.94042969 C1813.54040139 1668.51909554 1806.53959185 1677.00664201 1799.38574219 1685.37597656 C1797.94270908 1687.06714221 1796.50625183 1688.76374619 1795.0703125 1690.4609375 C1789.14195714 1697.44785875 1783.06505253 1704.26317319 1776.81640625 1710.96484375 C1774.25536657 1713.71334008 1771.74776222 1716.50626629 1769.25 1719.3125 C1765.81199277 1723.15830006 1762.23684182 1726.81829601 1758.53125 1730.40625 C1756.90653386 1731.93927006 1756.90653386 1731.93927006 1756 1734 C1755.34 1734 1754.68 1734 1754 1734 C1754 1734.66 1754 1735.32 1754 1736 C1753.34 1736 1752.68 1736 1752 1736 C1751.69449219 1736.79470703 1751.69449219 1736.79470703 1751.3828125 1737.60546875 C1749.39923885 1741.04030109 1746.69848883 1743.55261222 1743.875 1746.3125 C1743.28533447 1746.89572021 1742.69566895 1747.47894043 1742.08813477 1748.07983398 C1738.53347779 1751.57206867 1734.89115668 1754.90622869 1731.08984375 1758.12890625 C1728.2808777 1760.64384969 1725.64912676 1763.31854186 1723 1766 C1719.15846855 1769.88371996 1715.27627243 1773.62554769 1711.11328125 1777.16796875 C1708.94362747 1779.04887009 1706.8354694 1780.98912863 1704.73120117 1782.94262695 C1699.62281191 1787.6826111 1694.40075296 1792.19192291 1688.96875 1796.5625 C1685.47717355 1799.42926803 1682.08490453 1802.39793318 1678.6875 1805.375 C1672.25915488 1810.98520685 1665.66118789 1816.31468082 1658.90576172 1821.52392578 C1656.84672715 1823.11871479 1654.7997111 1824.72812291 1652.75390625 1826.33984375 C1643.07830867 1833.94595912 1633.23330079 1841.26164222 1623.21484375 1848.40869141 C1621.05805743 1849.95828722 1618.91746722 1851.52767144 1616.78125 1853.10546875 C1603.87500475 1862.6093203 1590.49231678 1871.35817712 1577 1880 C1575.98067383 1880.65291016 1574.96134766 1881.30582031 1573.91113281 1881.97851562 C1558.53847203 1891.786163 1542.86209922 1901.00906523 1527 1910 C1526.19965332 1910.45681152 1525.39930664 1910.91362305 1524.57470703 1911.38427734 C1510.99961474 1919.12724193 1497.09595197 1926.24910767 1483.18652344 1933.3671875 C1480.65434976 1934.6647034 1478.12664452 1935.97003122 1475.6015625 1937.28125 C1401.20775118 1975.59401367 1319.17632607 2001.99592817 1095.25 2039.6875 C1094.40755737 2039.74852905 1093.56511475 2039.80955811 1092.69714355 2039.87243652 C1067.90666985 2041.64031669 1043.15806731 2042.20545084 1018.3125 2042.1875 C1017.20842363 2042.18732061 1017.20842363 2042.18732061 1016.08204269 2042.1871376 C993.68618348 2042.18254427 971.37878943 2041.89667579 949.04052734 2040.15496826 C946.94427528 2039.99576798 944.84746847 2039.84975217 942.75 2039.70751953 C855.84660204 2033.79700435 769.4857761 2015.72162405 625 1964 C624.3517627 1963.7305658 623.70352539 1963.46113159 623.03564453 1963.18353271 C602.92248912 1954.81428746 583.30296928 1945.53431948 563.77972412 1935.87878418 C561.15429172 1934.58240997 558.52406697 1933.29583857 555.89453125 1932.0078125 C547.97937138 1928.11225461 540.20751592 1924.110679 532.63671875 1919.5703125 C530.03873517 1918.02306895 527.40982281 1916.56295443 524.75 1915.125 C502.52023378 1903.07462744 481.0916796 1889.94494524 460 1876 C458.60301421 1875.08180357 457.20589441 1874.16381095 455.80859375 1873.24609375 C435.26630414 1859.70752342 415.39695161 1845.12718239 396 1830 C394.85028509 1829.10934315 393.70054472 1828.21871916 392.55078125 1827.328125 C385.58819085 1821.9156564 378.78940763 1816.34679778 372.0859375 1810.6171875 C369.24394435 1808.19308244 366.34709935 1805.84268601 363.4375 1803.5 C358.36392507 1799.37309794 353.56258858 1794.99897442 348.76953125 1790.5546875 C346.54081607 1788.49886278 344.29232081 1786.48383043 342 1784.5 C338.05264346 1781.08115982 334.21447975 1777.54561966 330.38671875 1773.99414062 C327.86622827 1771.66623454 325.30977964 1769.43220628 322.6328125 1767.2890625 C321.32957031 1766.15597656 321.32957031 1766.15597656 320 1765 C320 1764.34 320 1763.68 320 1763 C319.40387405 1762.72886383 318.80774811 1762.45772766 318.19355774 1762.17837524 C316.03035746 1761.01630797 314.62762356 1759.87542967 312.90307617 1758.14599609 C312.32534958 1757.57134613 311.74762299 1756.99669617 311.15238953 1756.40463257 C310.53878067 1755.7838382 309.92517181 1755.16304382 309.29296875 1754.5234375 C308.64934891 1753.87935944 308.00572906 1753.23528137 307.34260559 1752.57168579 C305.98115702 1751.20721862 304.62213725 1749.84032432 303.26538086 1748.47119141 C301.21055985 1746.39826306 299.14800013 1744.33330021 297.08398438 1742.26953125 C295.75734275 1740.93796785 294.43115656 1739.60595051 293.10546875 1738.2734375 C292.49793259 1737.66478851 291.89039642 1737.05613953 291.26445007 1736.42904663 C287.52288325 1732.646827 283.96606182 1728.74619799 280.49507141 1724.71401978 C278.74997184 1722.71335603 276.90951862 1720.84367315 275 1719 C271.78565269 1715.8288397 268.78249037 1712.54417247 265.83984375 1709.12109375 C263.80491181 1706.77508942 261.71709033 1704.4826355 259.625 1702.1875 C255.67628555 1697.81714316 251.9537279 1693.29696921 248.25 1688.71875 C246.06498431 1686.07852271 243.80828609 1683.5327028 241.5 1681 C236.79576612 1675.82453026 232.38284513 1670.4485611 228 1665 C227.09789338 1663.89043217 226.19553917 1662.78106559 225.29296875 1661.671875 C216.90979801 1651.32726182 208.93554886 1640.68986778 201 1630 C200.38801758 1629.17886719 199.77603516 1628.35773438 199.14550781 1627.51171875 C191.18756256 1616.83299927 183.44059428 1606.04550253 176 1595 C175.52353027 1594.29552734 175.04706055 1593.59105469 174.55615234 1592.86523438 C162.44503024 1574.93997556 150.98866554 1556.63309744 140 1538 C139.41847168 1537.01644531 138.83694336 1536.03289062 138.23779297 1535.01953125 C128.57126051 1518.62319952 119.60106062 1501.97615872 111 1485 C110.27997817 1483.58852623 109.55993072 1482.17706554 108.83984375 1480.765625 C107.25184441 1477.63665982 105.69626556 1474.49271901 104.15234375 1471.34179688 C103.29568318 1469.60088836 102.43270273 1467.86308681 101.56640625 1466.12695312 C65.34453315 1393.46180182 38.35859076 1314.73100933 23 1235 C22.85151611 1234.23071167 22.70303223 1233.46142334 22.55004883 1232.66882324 C13.77949126 1186.92169003 8.53869239 1140.42571888 5 1094 C4.93059204 1093.09213745 4.86118408 1092.1842749 4.78967285 1091.24890137 C0.04449563 1028.57680127 -0.2933819 965.97161507 -0.23522237 903.15999967 C-0.22452881 891.14433484 -0.22590755 879.12867774 -0.22749493 867.11300933 C-0.23010112 844.95180923 -0.22353799 822.79061938 -0.21146011 800.62942314 C-0.19955392 778.7302183 -0.19189778 756.83101844 -0.18975449 734.93181038 C-0.18968566 734.24789303 -0.18961684 733.56397569 -0.18954593 732.85933357 C-0.1889194 726.61141737 -0.18834403 720.36350116 -0.18782998 714.11558495 C-0.18655234 698.59443918 -0.18463441 683.07329351 -0.18227959 667.55214787 C-0.18217295 666.84589662 -0.18206632 666.13964537 -0.18195645 665.41199256 C-0.17673251 631.18343263 -0.16412536 596.95487597 -0.15087891 562.72631836 C-0.14629495 550.8707886 -0.14174394 539.01525883 -0.1373291 527.159729 C-0.1370552 526.4242957 -0.1367813 525.68886239 -0.13649911 524.93114322 C-0.12377653 490.64888848 -0.11637031 456.36663319 -0.11026346 422.08437671 C-0.10986233 419.83722527 -0.10945773 417.59007384 -0.10905199 415.3429224 C-0.10437711 389.44228352 -0.10002295 363.54164458 -0.09576209 337.64100563 C-0.07703617 225.09399755 -0.03688252 112.54700658 0 0 Z " fill="#005ED8" transform="translate(906,74)"/>
<path d="M0 0 C42.24 0 84.48 0 128 0 C128 42.24 128 84.48 128 128 C85.76 128 43.52 128 0 128 C-1.25974428 125.48051145 -1.1075179 123.79588974 -1.08229065 120.9760437 C-1.07527162 119.91532591 -1.06825258 118.85460812 -1.06102085 117.76174736 C-1.04805438 116.58852991 -1.03508791 115.41531246 -1.02172852 114.20654297 C-1.01193686 112.9573665 -1.00214521 111.70819004 -0.99205685 110.42115974 C-0.96455452 107.0357906 -0.93265468 103.65051918 -0.89864349 100.26521301 C-0.86767474 97.09098146 -0.84220124 93.91670792 -0.81628418 90.74243164 C-0.73722541 81.453239 -0.64931957 72.16412335 -0.5625 62.875 C-0.376875 42.12625 -0.19125 21.3775 0 0 Z " fill="#005ED8" transform="translate(2758,58)"/>
</svg>
